SplineFontDB: 3.2
FontName: ATM461-Regular
FullName: ATM461-Regular
FamilyName: ATM 461
Weight: Book
Version: 1.001
ItalicAngle: -11
UnderlinePosition: -271
UnderlineWidth: 102
Ascent: 1600
Descent: 400
InvalidEm: 0
sfntRevision: 0x00010042
LayerCount: 2
Layer: 0 1 "Back" 1
Layer: 1 1 "Fore" 0
XUID: [1021 192 2086997156 25324]
StyleMap: 0x0040
FSType: 8
OS2Version: 3
OS2_WeightWidthSlopeOnly: 0
OS2_UseTypoMetrics: 0
CreationTime: 1537444466
ModificationTime: 1545681762
PfmFamily: 17
TTFWeight: 400
TTFWidth: 5
LineGap: 0
VLineGap: 0
Panose: 2 0 5 5 0 0 0 2 0 2
OS2TypoAscent: 2000
OS2TypoAOffset: 0
OS2TypoDescent: -1320
OS2TypoDOffset: 0
OS2TypoLinegap: 0
OS2WinAscent: 2000
OS2WinAOffset: 0
OS2WinDescent: 744
OS2WinDOffset: 0
HheadAscent: 2000
HheadAOffset: 0
HheadDescent: -1320
HheadDOffset: 0
OS2SubXSize: 1400
OS2SubYSize: 1300
OS2SubXOff: 0
OS2SubYOff: 0
OS2SupXSize: 1400
OS2SupYSize: 1300
OS2SupXOff: 0
OS2SupYOff: 0
OS2StrikeYSize: 100
OS2StrikeYPos: 518
OS2CapHeight: 1586
OS2XHeight: -200
OS2Vendor: '    '
OS2CodePages: 00000001.00000000
OS2UnicodeRanges: 00100003.00000000.00000000.00000000
Lookup: 4 0 0 "'akhn' Akhand in Tamil2 lookup 0" { "'akhn' Akhand in Tamil2 lookup 0 subtable"  } ['akhn' ('tml2' <'dflt' > ) ]
Lookup: 4 0 0 "'akhn' Akhand in Tamil lookup 1" { "'akhn' Akhand in Tamil lookup 1 subtable"  } ['akhn' ('taml' <'dflt' > ) ]
Lookup: 4 0 0 "'half' Half Forms in Tamil lookup 2" { "'half' Half Forms in Tamil lookup 2 subtable"  } ['half' ('taml' <'dflt' > ) ]
Lookup: 4 0 0 "'haln' Halant Forms in Tamil2 lookup 3" { "'haln' Halant Forms in Tamil2 lookup 3 subtable"  } ['haln' ('tml2' <'dflt' > ) ]
Lookup: 4 0 0 "'haln' Halant Forms in Tamil lookup 4" { "'haln' Halant Forms in Tamil lookup 4 subtable"  } ['haln' ('taml' <'dflt' > ) ]
Lookup: 4 0 0 "'abvs' Above Base Substitutions lookup 5" { "'abvs' Above Base Substitutions lookup 5 subtable"  } ['abvs' ('taml' <'dflt' > 'tml2' <'dflt' > ) ]

StartChar: exclam
Encoding: 33 33 4
Width: 552
GlyphClass: 2
Flags: W
LayerCount: 2
Fore
SplineSet
384 250 m 1,0,-1
 148 250 l 1,1,-1
 148 1022 l 1,2,-1
 384 1022 l 1,3,-1
 384 250 l 1,0,-1
466 48 m 0,4,5
 466 -12 466 -12 410 -73 c 128,-1,6
 354 -134 354 -134 282 -136 c 0,7,8
 202 -138 202 -138 143 -86 c 128,-1,9
 84 -34 84 -34 84 42 c 0,10,11
 84 120 84 120 143 176 c 128,-1,12
 202 232 202 232 282 232 c 0,13,14
 360 232 360 232 413 178 c 128,-1,15
 466 124 466 124 466 48 c 0,4,5
EndSplineSet
EndChar

StartChar: quotedbl
Encoding: 34 34 5
Width: 606
GlyphClass: 2
Flags: W
LayerCount: 2
Fore
SplineSet
109 647 m 1,0,-1
 63 912 l 1,1,-1
 63 1140 l 1,2,-1
 257 1140 l 1,3,-1
 257 912 l 1,4,-1
 214 647 l 1,5,-1
 109 647 l 1,0,-1
423 647 m 1,6,-1
 378 912 l 1,7,-1
 378 1140 l 1,8,-1
 572 1140 l 1,9,-1
 572 912 l 1,10,-1
 527 647 l 1,11,-1
 423 647 l 1,6,-1
EndSplineSet
EndChar

StartChar: numbersign
Encoding: 35 35 6
Width: 1203
GlyphClass: 2
Flags: W
LayerCount: 2
Fore
SplineSet
179 22 m 1,0,-1
 264 356 l 1,1,-1
 103 356 l 1,2,-1
 103 473 l 1,3,-1
 288 473 l 1,4,-1
 358 761 l 1,5,-1
 103 761 l 1,6,-1
 103 876 l 1,7,-1
 386 876 l 1,8,-1
 471 1218 l 1,9,-1
 609 1218 l 1,10,-1
 526 876 l 1,11,-1
 817 876 l 1,12,-1
 903 1218 l 1,13,-1
 1041 1218 l 1,14,-1
 962 876 l 1,15,-1
 1124 876 l 1,16,-1
 1124 761 l 1,17,-1
 932 761 l 1,18,-1
 861 473 l 1,19,-1
 1124 473 l 1,20,-1
 1124 356 l 1,21,-1
 832 356 l 1,22,-1
 755 22 l 1,23,-1
 611 22 l 1,24,-1
 688 356 l 1,25,-1
 401 356 l 1,26,-1
 322 22 l 1,27,-1
 179 22 l 1,0,-1
435 473 m 1,28,-1
 724 473 l 1,29,-1
 792 761 l 1,30,-1
 501 761 l 1,31,-1
 435 473 l 1,28,-1
EndSplineSet
EndChar

StartChar: dollar
Encoding: 36 36 7
Width: 908
GlyphClass: 2
Flags: W
LayerCount: 2
Fore
SplineSet
766 302 m 0,0,1
 744 187 744 187 654 120 c 0,2,3
 572 60 572 60 456 60 c 1,4,-1
 456 -52 l 1,5,-1
 383 -52 l 1,6,-1
 383 60 l 1,7,8
 372 60 372 60 357 60 c 0,9,10
 336 65 336 65 330 71 c 2,11,-1
 264 92 l 2,12,13
 242 95 242 95 229.5 102.5 c 128,-1,14
 217 110 217 110 188 131 c 2,15,-1
 146 156 l 1,16,-1
 180 232 l 1,17,-1
 217 204 l 2,18,19
 259 169 259 169 284 156 c 2,20,-1
 336 137 l 1,21,-1
 383 134 l 1,22,-1
 383 518 l 1,23,24
 230 560 230 560 169 630 c 0,25,26
 99 710 99 710 99 838 c 2,27,-1
 99 872 l 1,28,-1
 104 912 l 2,29,30
 119 1045 119 1045 217 1126 c 0,31,32
 299 1192 299 1192 383 1192 c 1,33,-1
 383 1289 l 1,34,-1
 456 1289 l 1,35,-1
 456 1197 l 1,36,-1
 510 1191 l 2,37,38
 531 1191 531 1191 541.5 1190 c 128,-1,39
 552 1189 552 1189 578 1176 c 1,40,41
 688 1140 688 1140 688 1126 c 1,42,-1
 659 1037 l 1,43,-1
 646 1048 l 2,44,45
 615 1079 615 1079 563 1101 c 0,46,47
 537 1112 537 1112 517.5 1116.5 c 128,-1,48
 498 1121 498 1121 491 1121 c 0,49,50
 466 1121 466 1121 456 1126 c 1,51,-1
 456 739 l 1,52,53
 561 717 561 717 615 686 c 0,54,55
 773 594 773 594 773 404 c 2,56,-1
 772 355 l 2,57,58
 772 330 772 330 766 302 c 0,0,1
383 770 m 1,59,-1
 383 1126 l 1,60,61
 330 1121 330 1121 281 1080 c 0,62,63
 219 1030 219 1030 219 964 c 0,64,65
 219 872 219 872 283 819 c 0,66,67
 297 807 297 807 322.5 796 c 128,-1,68
 348 785 348 785 383 770 c 1,59,-1
653 317 m 0,69,70
 653 404 653 404 573 448 c 1,71,-1
 456 493 l 1,72,-1
 456 134 l 1,73,74
 547 134 547 134 600 185 c 128,-1,75
 653 236 653 236 653 317 c 0,69,70
EndSplineSet
EndChar

StartChar: percent
Encoding: 37 37 8
Width: 940
GlyphClass: 2
Flags: W
LayerCount: 2
Fore
SplineSet
364 632 m 0,0,1
 364 566 364 566 324 528 c 128,-1,2
 284 490 284 490 224 490 c 0,3,4
 170 490 170 490 127 524 c 128,-1,5
 84 558 84 558 84 608 c 0,6,7
 84 772 84 772 224 772 c 0,8,9
 276 772 276 772 320 730 c 128,-1,10
 364 688 364 688 364 632 c 0,0,1
658 764 m 1,11,-1
 386 0 l 1,12,-1
 226 0 l 1,13,-1
 494 764 l 1,14,-1
 658 764 l 1,11,-1
856 298 m 0,15,16
 856 232 856 232 815 193 c 128,-1,17
 774 154 774 154 712 154 c 0,18,19
 658 154 658 154 617 188 c 128,-1,20
 576 222 576 222 576 272 c 0,21,22
 576 436 576 436 712 436 c 0,23,24
 856 436 856 436 856 298 c 0,15,16
EndSplineSet
EndChar

StartChar: ampersand
Encoding: 38 38 9
Width: 990
GlyphClass: 2
Flags: W
LayerCount: 2
Fore
SplineSet
908 76 m 1,0,-1
 848 -2 l 1,1,-1
 682 122 l 1,2,3
 598 -56 598 -56 402 -56 c 0,4,5
 288 -56 288 -56 186 33 c 128,-1,6
 84 122 84 122 84 240 c 0,7,8
 84 334 84 334 124 414 c 0,9,10
 170 508 170 508 258 552 c 1,11,12
 250 582 250 582 250 614 c 0,13,14
 250 708 250 708 319 775 c 128,-1,15
 388 842 388 842 482 842 c 0,16,17
 558 842 558 842 644 760 c 1,18,-1
 584 640 l 1,19,20
 546 728 546 728 482 728 c 0,21,22
 446 728 446 728 419 698 c 128,-1,23
 392 668 392 668 392 640 c 0,24,25
 392 548 392 548 490 546 c 0,26,27
 526 546 526 546 562 574 c 1,28,-1
 600 406 l 1,29,30
 542 360 542 360 470 360 c 0,31,32
 402 360 402 360 318 428 c 1,33,34
 254 342 254 342 254 290 c 0,35,36
 254 222 254 222 303 164 c 128,-1,37
 352 106 352 106 402 106 c 256,38,39
 452 106 452 106 506 152 c 0,40,41
 552 192 552 192 558 220 c 1,42,-1
 514 252 l 1,43,-1
 574 324 l 1,44,-1
 908 76 l 1,0,-1
EndSplineSet
EndChar

StartChar: quotesingle
Encoding: 39 39 10
Width: 368
GlyphClass: 2
Flags: W
LayerCount: 2
Fore
SplineSet
137 647 m 1,0,-1
 91 912 l 1,1,-1
 91 1140 l 1,2,-1
 285 1140 l 1,3,-1
 285 912 l 1,4,-1
 242 647 l 1,5,-1
 137 647 l 1,0,-1
EndSplineSet
EndChar

StartChar: parenleft
Encoding: 40 40 11
Width: 540
GlyphClass: 2
Flags: W
LayerCount: 2
Fore
SplineSet
456 1060 m 1,0,1
 216 866 216 866 212 476 c 0,2,3
 210 290 210 290 267 134 c 128,-1,4
 324 -22 324 -22 428 -108 c 1,5,-1
 428 -314 l 1,6,7
 84 -120 84 -120 84 534 c 0,8,9
 84 748 84 748 200 946 c 0,10,11
 310 1136 310 1136 454 1194 c 1,12,-1
 456 1060 l 1,0,1
EndSplineSet
EndChar

StartChar: parenright
Encoding: 41 41 12
Width: 516
GlyphClass: 2
Flags: W
LayerCount: 2
Fore
SplineSet
430 350 m 0,0,1
 430 136 430 136 314 -62 c 0,2,3
 204 -252 204 -252 60 -310 c 1,4,-1
 58 -176 l 1,5,6
 298 18 298 18 302 408 c 0,7,8
 304 594 304 594 247 750 c 128,-1,9
 190 906 190 906 86 992 c 1,10,-1
 86 1198 l 1,11,12
 430 1004 430 1004 430 350 c 0,0,1
EndSplineSet
EndChar

StartChar: asterisk
Encoding: 42 42 13
Width: 705
GlyphClass: 2
Flags: W
LayerCount: 2
Fore
SplineSet
646 1169 m 1,0,-1
 414 1121 l 1,1,-1
 592 981 l 1,2,-1
 451 875 l 1,3,-1
 346 1073 l 1,4,-1
 267 873 l 1,5,-1
 114 954 l 1,6,-1
 280 1125 l 1,7,-1
 48 1154 l 1,8,-1
 99 1307 l 1,9,-1
 300 1207 l 1,10,-1
 261 1434 l 1,11,-1
 432 1434 l 1,12,-1
 390 1212 l 1,13,-1
 594 1317 l 1,14,-1
 646 1169 l 1,0,-1
EndSplineSet
EndChar

StartChar: plus
Encoding: 43 43 14
Width: 924
GlyphClass: 2
Flags: W
LayerCount: 2
Fore
SplineSet
840 290 m 1,0,-1
 584 290 l 1,1,-1
 584 -4 l 1,2,-1
 360 -4 l 1,3,-1
 360 290 l 1,4,-1
 82 290 l 1,5,-1
 82 474 l 1,6,-1
 360 474 l 1,7,-1
 360 770 l 1,8,-1
 584 770 l 1,9,-1
 584 474 l 1,10,-1
 840 474 l 1,11,-1
 840 290 l 1,0,-1
EndSplineSet
EndChar

StartChar: comma
Encoding: 44 44 15
Width: 464
GlyphClass: 2
Flags: W
LayerCount: 2
Fore
SplineSet
420 110 m 0,0,1
 420 28 420 28 360 -42 c 0,2,3
 292 -122 292 -122 190 -122 c 0,4,5
 116 -122 116 -122 66 -82 c 0,6,7
 22 -48 22 -48 10 0 c 1,8,9
 80 -70 80 -70 160 -70 c 0,10,11
 200 -70 200 -70 226 -50 c 1,12,13
 146 -50 146 -50 88 4 c 128,-1,14
 30 58 30 58 30 136 c 256,15,16
 30 214 30 214 89 268 c 128,-1,17
 148 322 148 322 226 322 c 256,18,19
 304 322 304 322 362 258 c 128,-1,20
 420 194 420 194 420 110 c 0,0,1
EndSplineSet
EndChar

StartChar: hyphen
Encoding: 45 45 16
Width: 728
GlyphClass: 2
Flags: W
LayerCount: 2
Fore
SplineSet
644 284 m 1,0,-1
 84 284 l 1,1,-1
 84 506 l 1,2,-1
 644 506 l 1,3,-1
 644 284 l 1,0,-1
EndSplineSet
EndChar

StartChar: period
Encoding: 46 46 17
Width: 422
GlyphClass: 2
Flags: W
LayerCount: 2
Fore
SplineSet
384 186 m 0,0,1
 384 126 384 126 329 62 c 128,-1,2
 274 -2 274 -2 210 -2 c 0,3,4
 128 -2 128 -2 75 52 c 128,-1,5
 22 106 22 106 22 186 c 0,6,7
 22 264 22 264 77 320 c 128,-1,8
 132 376 132 376 210 376 c 0,9,10
 282 376 282 376 333 319 c 128,-1,11
 384 262 384 262 384 186 c 0,0,1
EndSplineSet
EndChar

StartChar: slash
Encoding: 47 47 18
Width: 598
GlyphClass: 2
Flags: W
LayerCount: 2
Fore
SplineSet
558 932 m 1,0,-1
 198 -106 l 1,1,-1
 40 -106 l 1,2,-1
 398 932 l 1,3,-1
 558 932 l 1,0,-1
EndSplineSet
EndChar

StartChar: zero
Encoding: 48 48 19
Width: 1026
GlyphClass: 2
Flags: W
LayerCount: 2
Fore
SplineSet
965 473 m 0,0,1
 965 310 965 310 863 152 c 0,2,3
 731 -51 731 -51 509 -51 c 0,4,5
 302 -51 302 -51 177 114 c 0,6,7
 59 266 59 266 59 483 c 0,8,9
 59 716 59 716 197.5 894 c 128,-1,10
 336 1072 336 1072 526 1072 c 0,11,12
 735 1072 735 1072 855 899 c 0,13,14
 965 737 965 737 965 473 c 0,0,1
659 517 m 0,15,16
 659 650 659 650 600 769 c 0,17,18
 540 897 540 897 460 897 c 0,19,20
 359 897 359 897 291 758 c 0,21,22
 228 633 228 633 228 481 c 0,23,24
 228 338 228 338 277 222 c 0,25,26
 334 93 334 93 424 93 c 0,27,28
 547 93 547 93 612 264 c 0,29,30
 659 388 659 388 659 517 c 0,15,16
EndSplineSet
EndChar

StartChar: one
Encoding: 49 49 20
Width: 332
GlyphClass: 2
Flags: W
LayerCount: 2
Fore
SplineSet
274 0 m 1,0,-1
 59 0 l 1,1,-1
 59 920 l 1,2,-1
 274 920 l 1,3,-1
 274 0 l 1,0,-1
EndSplineSet
EndChar

StartChar: two
Encoding: 50 50 21
Width: 939
GlyphClass: 2
Flags: W
LayerCount: 2
Fore
SplineSet
880 614 m 0,0,1
 880 427 880 427 707 313 c 1,2,3
 574 241 574 241 441 169 c 1,4,-1
 861 169 l 1,5,-1
 861 0 l 1,6,-1
 95 0 l 1,7,-1
 95 103 l 1,8,9
 270 207 270 207 443 310 c 1,10,11
 676 460 676 460 676 593 c 0,12,13
 676 686 676 686 599 762 c 128,-1,14
 522 838 522 838 420 838 c 0,15,16
 190 838 190 838 154 564 c 1,17,-1
 61 564 l 1,18,19
 57 585 57 585 57 606 c 0,20,21
 57 756 57 756 183.5 875 c 128,-1,22
 310 994 310 994 469 994 c 0,23,24
 619 994 619 994 745 887 c 0,25,26
 880 773 880 773 880 614 c 0,0,1
EndSplineSet
EndChar

StartChar: three
Encoding: 51 51 22
Width: 1024
GlyphClass: 2
Flags: W
LayerCount: 2
Fore
SplineSet
965 323 m 0,0,1
 965 190 965 190 862.5 95 c 128,-1,2
 760 0 760 0 623 0 c 2,3,-1
 59 0 l 1,4,-1
 59 122 l 1,5,-1
 465 122 l 2,6,7
 600 122 600 122 667 148 c 0,8,9
 768 188 768 188 768 298 c 0,10,11
 768 374 768 374 726 434 c 128,-1,12
 684 494 684 494 617 496 c 2,13,-1
 401 503 l 1,14,-1
 401 640 l 1,15,-1
 502 640 l 1,16,-1
 640 737 l 1,17,-1
 59 735 l 1,18,-1
 59 929 l 1,19,-1
 891 929 l 1,20,-1
 891 756 l 1,21,-1
 711 633 l 1,22,23
 798 612 798 612 876 532 c 0,24,25
 965 437 965 437 965 323 c 0,0,1
EndSplineSet
EndChar

StartChar: four
Encoding: 52 52 23
Width: 927
GlyphClass: 2
Flags: W
LayerCount: 2
Fore
SplineSet
901 160 m 1,0,-1
 728 160 l 1,1,-1
 728 0 l 1,2,-1
 498 0 l 1,3,-1
 498 163 l 1,4,-1
 9 163 l 1,5,-1
 498 918 l 1,6,-1
 735 918 l 1,7,-1
 735 275 l 1,8,-1
 901 275 l 1,9,-1
 901 160 l 1,0,-1
498 296 m 1,10,-1
 498 682 l 1,11,-1
 245 296 l 1,12,-1
 498 296 l 1,10,-1
EndSplineSet
EndChar

StartChar: five
Encoding: 53 53 24
Width: 948
GlyphClass: 2
Flags: W
LayerCount: 2
Fore
SplineSet
889 336 m 0,0,1
 889 171 889 171 743 72 c 0,2,3
 631 -6 631 -6 519 -6 c 0,4,5
 376 -6 376 -6 248 62.5 c 128,-1,6
 120 131 120 131 95 220 c 1,7,-1
 230 211 l 1,8,9
 264 163 264 163 323 135 c 0,10,11
 376 108 376 108 420 108 c 0,12,13
 517 108 517 108 583.5 176.5 c 128,-1,14
 650 245 650 245 650 336 c 0,15,16
 650 503 650 503 541 503 c 2,17,-1
 177 503 l 1,18,-1
 177 433 l 1,19,-1
 59 433 l 1,20,-1
 59 916 l 1,21,-1
 870 916 l 1,22,-1
 870 735 l 1,23,-1
 175 735 l 1,24,-1
 175 640 l 1,25,-1
 555 640 l 2,26,27
 711 640 711 640 800 553.5 c 128,-1,28
 889 467 889 467 889 336 c 0,0,1
EndSplineSet
EndChar

StartChar: six
Encoding: 54 54 25
Width: 1085
GlyphClass: 2
Flags: W
LayerCount: 2
Fore
SplineSet
1024 369 m 0,0,1
 1024 217 1024 217 877 104.5 c 128,-1,2
 730 -8 730 -8 549 -8 c 0,3,4
 59 -8 59 -8 59 388 c 0,5,6
 59 608 59 608 291 785 c 0,7,8
 496 940 496 940 688 940 c 0,9,10
 773 940 773 940 883 897 c 1,11,-1
 883 794 l 1,12,13
 817 819 817 819 745 819 c 0,14,15
 625 819 625 819 498 756 c 0,16,17
 410 712 410 712 355 663 c 1,18,19
 460 695 460 695 566 695 c 0,20,21
 756 695 756 695 890 601 c 128,-1,22
 1024 507 1024 507 1024 369 c 0,0,1
785 361 m 0,23,24
 785 448 785 448 699 498 c 0,25,26
 623 540 623 540 515 540 c 0,27,28
 374 540 374 540 291 456 c 0,29,30
 226 393 226 393 226 332 c 0,31,32
 226 264 226 264 314.5 198.5 c 128,-1,33
 403 133 403 133 503 133 c 0,34,35
 627 133 627 133 706 196.5 c 128,-1,36
 785 260 785 260 785 361 c 0,23,24
EndSplineSet
EndChar

StartChar: seven
Encoding: 55 55 26
Width: 811
GlyphClass: 2
Flags: W
LayerCount: 2
Fore
SplineSet
800 760 m 1,0,-1
 179 0 l 1,1,-1
 25 0 l 1,2,-1
 610 737 l 1,3,-1
 11 737 l 1,4,-1
 11 920 l 1,5,-1
 800 920 l 1,6,-1
 800 760 l 1,0,-1
EndSplineSet
EndChar

StartChar: eight
Encoding: 56 56 27
Width: 1121
GlyphClass: 2
Flags: W
LayerCount: 2
Fore
SplineSet
1062 342 m 0,0,1
 1062 182 1062 182 907 66.5 c 128,-1,2
 752 -49 752 -49 564 -49 c 0,3,4
 370 -49 370 -49 220 57 c 0,5,6
 59 169 59 169 59 332 c 0,7,8
 59 519 59 519 260 621 c 1,9,10
 215 678 215 678 215 737 c 0,11,12
 215 845 215 845 331 925 c 0,13,14
 441 1003 441 1003 576 1003 c 0,15,16
 720 1003 720 1003 824.5 929 c 128,-1,17
 929 855 929 855 929 743 c 0,18,19
 929 680 929 680 882 617 c 1,20,21
 956 578 956 578 1005 509 c 0,22,23
 1062 431 1062 431 1062 342 c 0,0,1
756 730 m 0,24,25
 756 794 756 794 705.5 838.5 c 128,-1,26
 655 883 655 883 593 883 c 0,27,28
 511 883 511 883 450 844 c 0,29,30
 384 800 384 800 384 728 c 0,31,32
 384 682 384 682 401 654 c 1,33,34
 456 674 456 674 553 674 c 0,35,36
 671 674 671 674 724 654 c 1,37,38
 756 709 756 709 756 730 c 0,24,25
828 338 m 0,39,40
 828 441 828 441 737 521 c 1,41,42
 646 488 646 488 536 488 c 0,43,44
 450 488 450 488 412 521 c 1,45,46
 294 464 294 464 294 334 c 0,47,48
 294 234 294 234 382 160 c 0,49,50
 464 91 464 91 555 91 c 0,51,52
 667 91 667 91 747.5 161.5 c 128,-1,53
 828 232 828 232 828 338 c 0,39,40
EndSplineSet
EndChar

StartChar: nine
Encoding: 57 57 28
Width: 1085
GlyphClass: 2
Flags: W
LayerCount: 2
Fore
SplineSet
1026 545 m 0,0,1
 1026 325 1026 325 796 150 c 0,2,3
 589 -8 589 -8 399 -8 c 0,4,5
 310 -8 310 -8 201 38 c 1,6,-1
 201 141 l 1,7,8
 270 114 270 114 344 114 c 0,9,10
 462 114 462 114 589 177 c 0,11,12
 674 220 674 220 730 270 c 1,13,14
 625 237 625 237 521 237 c 0,15,16
 329 237 329 237 195 332 c 128,-1,17
 61 427 61 427 61 564 c 0,18,19
 61 718 61 718 211 832 c 0,20,21
 355 942 355 942 538 942 c 0,22,23
 1026 942 1026 942 1026 545 c 0,0,1
861 602 m 0,24,25
 861 671 861 671 771.5 735.5 c 128,-1,26
 682 800 682 800 583 800 c 0,27,28
 458 800 458 800 379 737 c 128,-1,29
 300 674 300 674 300 572 c 0,30,31
 300 484 300 484 388 437 c 0,32,33
 464 393 464 393 572 393 c 0,34,35
 711 393 711 393 796 477 c 0,36,37
 861 541 861 541 861 602 c 0,24,25
EndSplineSet
EndChar

StartChar: colon
Encoding: 58 58 29
Width: 506
GlyphClass: 2
Flags: W
LayerCount: 2
Fore
SplineSet
440 652 m 0,0,1
 440 574 440 574 384 520 c 128,-1,2
 328 466 328 466 248 466 c 0,3,4
 176 466 176 466 124 517 c 128,-1,5
 72 568 72 568 72 640 c 0,6,7
 72 718 72 718 130 776 c 128,-1,8
 188 834 188 834 266 834 c 0,9,10
 340 834 340 834 390 780 c 128,-1,11
 440 726 440 726 440 652 c 0,0,1
436 184 m 0,12,13
 436 106 436 106 386 52 c 128,-1,14
 336 -2 336 -2 258 -2 c 256,15,16
 180 -2 180 -2 127 49 c 128,-1,17
 74 100 74 100 74 172 c 0,18,19
 74 252 74 252 131 309 c 128,-1,20
 188 366 188 366 266 366 c 0,21,22
 338 366 338 366 387 310 c 128,-1,23
 436 254 436 254 436 184 c 0,12,13
EndSplineSet
EndChar

StartChar: semicolon
Encoding: 59 59 30
Width: 530
GlyphClass: 2
Flags: W
LayerCount: 2
Fore
SplineSet
434 650 m 256,0,1
 434 574 434 574 387 521 c 128,-1,2
 340 468 340 468 262 468 c 0,3,4
 178 468 178 468 119 527 c 128,-1,5
 60 586 60 586 60 662 c 0,6,7
 60 740 60 740 114 790 c 128,-1,8
 168 840 168 840 248 840 c 0,9,10
 322 840 322 840 378 783 c 128,-1,11
 434 726 434 726 434 650 c 256,0,1
460 144 m 0,12,13
 460 62 460 62 398 -8 c 0,14,15
 328 -86 328 -86 226 -86 c 0,16,17
 154 -86 154 -86 100 -42 c 0,18,19
 56 -8 56 -8 42 32 c 1,20,21
 134 -22 134 -22 186 -22 c 0,22,23
 206 -22 206 -22 216 -16 c 128,-1,24
 226 -10 226 -10 220 -10 c 0,25,26
 170 -10 170 -10 127 41 c 128,-1,27
 84 92 84 92 84 154 c 0,28,29
 84 242 84 242 138 296 c 128,-1,30
 192 350 192 350 272 350 c 0,31,32
 354 350 354 350 404 300 c 0,33,34
 460 244 460 244 460 144 c 0,12,13
EndSplineSet
EndChar

StartChar: less
Encoding: 60 60 31
Width: 1240
GlyphClass: 2
Flags: W
LayerCount: 2
Fore
SplineSet
993 0 m 1,0,-1
 4 471 l 1,1,-1
 4 589 l 1,2,-1
 993 1070 l 1,3,-1
 993 859 l 1,4,-1
 261 531 l 1,5,-1
 993 202 l 1,6,-1
 993 0 l 1,0,-1
EndSplineSet
EndChar

StartChar: equal
Encoding: 61 61 32
Width: 956
GlyphClass: 2
Flags: W
LayerCount: 2
Fore
SplineSet
872 526 m 1,0,-1
 84 526 l 1,1,-1
 84 766 l 1,2,-1
 872 766 l 1,3,-1
 872 526 l 1,0,-1
872 154 m 1,4,-1
 84 154 l 1,5,-1
 84 342 l 1,6,-1
 872 342 l 1,7,-1
 872 154 l 1,4,-1
EndSplineSet
EndChar

StartChar: greater
Encoding: 62 62 33
Width: 1306
GlyphClass: 2
Flags: W
LayerCount: 2
Fore
SplineSet
242 202 m 1,0,-1
 974 531 l 1,1,-1
 242 859 l 1,2,-1
 242 1070 l 1,3,-1
 1231 589 l 1,4,-1
 1231 471 l 1,5,-1
 242 0 l 1,6,-1
 242 202 l 1,0,-1
EndSplineSet
EndChar

StartChar: question
Encoding: 63 63 34
Width: 894
GlyphClass: 2
Flags: W
LayerCount: 2
Fore
SplineSet
812 678 m 0,0,1
 812 580 812 580 728 510 c 1,2,3
 650 456 650 456 572 402 c 1,4,5
 488 336 488 336 488 250 c 1,6,-1
 252 250 l 1,7,8
 252 370 252 370 338 450 c 0,9,10
 342 454 342 454 498 558 c 0,11,12
 584 616 584 616 584 684 c 0,13,14
 584 832 584 832 444 832 c 0,15,16
 392 832 392 832 358 808 c 0,17,18
 314 778 314 778 314 724 c 1,19,-1
 78 728 l 1,20,21
 78 860 78 860 173 944 c 128,-1,22
 268 1028 268 1028 428 1028 c 0,23,24
 606 1028 606 1028 709 934 c 128,-1,25
 812 840 812 840 812 678 c 0,0,1
570 48 m 0,26,27
 570 -12 570 -12 514 -73 c 128,-1,28
 458 -134 458 -134 386 -136 c 0,29,30
 306 -138 306 -138 247 -86 c 128,-1,31
 188 -34 188 -34 188 42 c 0,32,33
 188 120 188 120 247 176 c 128,-1,34
 306 232 306 232 386 232 c 0,35,36
 464 232 464 232 517 178 c 128,-1,37
 570 124 570 124 570 48 c 0,26,27
EndSplineSet
EndChar

StartChar: at
Encoding: 64 64 35
Width: 1619
GlyphClass: 2
Flags: W
LayerCount: 2
Fore
SplineSet
877 71 m 0,0,1
 870 83 870 83 867 104 c 1,2,3
 849 87 849 87 827.5 71 c 128,-1,4
 806 55 806 55 783 41 c 0,5,6
 711 -2 711 -2 640 -2 c 0,7,8
 564 -2 564 -2 495 41 c 128,-1,9
 426 84 426 84 381 178 c 0,10,11
 336 269 336 269 336 371 c 0,12,13
 336 493 336 493 401 626 c 0,14,15
 467 758 467 758 568 824 c 0,16,17
 668 890 668 890 764 890 c 0,18,19
 843 890 843 890 903 851 c 0,20,21
 929 837 929 837 950.5 818.5 c 128,-1,22
 972 800 972 800 991 774 c 1,23,24
 996 798 996 798 1002 821.5 c 128,-1,25
 1008 845 1008 845 1013 865 c 1,26,-1
 1190 865 l 1,27,-1
 1073 320 l 1,28,-1
 1050 195 l 2,29,30
 1051 190 1051 190 1054 185.5 c 128,-1,31
 1057 181 1057 181 1062 176 c 2,32,-1
 1060 178 l 2,33,34
 1072 168 1072 168 1085 168 c 0,35,36
 1122 168 1122 168 1181 210 c 0,37,38
 1263 267 1263 267 1316 371 c 0,39,40
 1370 474 1370 474 1370 583 c 0,41,42
 1370 702 1370 702 1304 813 c 0,43,44
 1272 869 1272 869 1223.5 913 c 128,-1,45
 1175 957 1175 957 1112 991 c 0,46,47
 1048 1021 1048 1021 977.5 1040.5 c 128,-1,48
 907 1060 907 1060 829 1060 c 0,49,50
 648 1060 648 1060 503 976 c 0,51,52
 429 934 429 934 372.5 874 c 128,-1,53
 316 814 316 814 274 733 c 0,54,55
 191 570 191 570 191 402 c 0,56,57
 191 311 191 311 211 230.5 c 128,-1,58
 231 150 231 150 271 83.5 c 128,-1,59
 311 17 311 17 369 -34 c 128,-1,60
 427 -85 427 -85 504 -118 c 0,61,62
 582 -152 582 -152 668 -168 c 128,-1,63
 754 -184 754 -184 849 -184 c 0,64,65
 1050 -184 1050 -184 1181 -119 c 0,66,67
 1315 -54 1315 -54 1393 54 c 1,68,-1
 1574 54 l 1,69,70
 1519 -65 1519 -65 1421 -148 c 0,71,72
 1374 -188 1374 -188 1310.5 -223.5 c 128,-1,73
 1247 -259 1247 -259 1181 -285 c 0,74,75
 1152 -295 1152 -295 1113 -305.5 c 128,-1,76
 1074 -316 1074 -316 1031 -324 c 0,77,78
 993 -331 993 -331 951 -334.5 c 128,-1,79
 909 -338 909 -338 852 -338 c 0,80,81
 716 -338 716 -338 599 -312 c 128,-1,82
 482 -286 482 -286 387 -235.5 c 128,-1,83
 292 -185 292 -185 220.5 -110.5 c 128,-1,84
 149 -36 149 -36 104 61 c 0,85,86
 37 219 37 219 37 388 c 0,87,88
 37 488 37 488 57.5 580 c 128,-1,89
 78 672 78 672 117 760 c 0,90,91
 217 973 217 973 394 1091 c 0,92,93
 575 1210 575 1210 835 1210 c 0,94,95
 935 1210 935 1210 1022 1190.5 c 128,-1,96
 1109 1171 1109 1171 1191 1129 c 0,97,98
 1272 1090 1272 1090 1335.5 1029 c 128,-1,99
 1399 968 1399 968 1448 883 c 0,100,101
 1523 740 1523 740 1523 581 c 0,102,103
 1523 464 1523 464 1480.5 359 c 128,-1,104
 1438 254 1438 254 1358 163 c 0,105,106
 1285 85 1285 85 1202.5 41.5 c 128,-1,107
 1120 -2 1120 -2 1033 -2 c 2,108,-1
 1012 -2 l 1,109,-1
 977 0 l 2,110,111
 954 4 954 4 933 18 c 1,112,-1
 934 18 l 1,113,114
 917 27 917 27 903.5 40.5 c 128,-1,115
 890 54 890 54 877 71 c 0,0,1
521 360 m 0,116,117
 521 261 521 261 566 207 c 0,118,119
 610 154 610 154 667 154 c 0,120,121
 707 154 707 154 753.5 178.5 c 128,-1,122
 800 203 800 203 839 251 c 0,123,124
 859 274 859 274 876.5 305.5 c 128,-1,125
 894 337 894 337 907 376 c 0,126,127
 936 455 936 455 936 530 c 0,128,129
 936 627 936 627 889 682 c 0,130,131
 844 735 844 735 774 735 c 0,132,133
 751 735 751 735 730 729.5 c 128,-1,134
 709 724 709 724 690 711 c 0,135,136
 646 687 646 687 611 636 c 128,-1,137
 576 585 576 585 545 500 c 1,138,-1
 545 501 l 1,139,140
 521 427 521 427 521 360 c 0,116,117
EndSplineSet
EndChar

StartChar: bracketleft
Encoding: 91 91 36
Width: 426
GlyphClass: 2
Flags: W
LayerCount: 2
Fore
SplineSet
89 1496 m 1,0,-1
 404 1496 l 1,1,-1
 404 1328 l 1,2,-1
 252 1328 l 1,3,-1
 252 -81 l 1,4,-1
 404 -81 l 1,5,-1
 404 -259 l 1,6,-1
 89 -259 l 1,7,-1
 89 1496 l 1,0,-1
EndSplineSet
EndChar

StartChar: backslash
Encoding: 92 92 37
Width: 865
GlyphClass: 2
Flags: W
LayerCount: 2
Fore
SplineSet
184 1239 m 1,0,-1
 838 -119 l 1,1,-1
 674 -119 l 1,2,-1
 16 1239 l 1,3,-1
 184 1239 l 1,0,-1
EndSplineSet
EndChar

StartChar: bracketright
Encoding: 93 93 38
Width: 428
GlyphClass: 2
Flags: W
LayerCount: 2
Fore
SplineSet
331 -259 m 1,0,-1
 16 -259 l 1,1,-1
 16 -81 l 1,2,-1
 169 -81 l 1,3,-1
 169 1328 l 1,4,-1
 16 1328 l 1,5,-1
 16 1496 l 1,6,-1
 331 1496 l 1,7,-1
 331 -259 l 1,0,-1
EndSplineSet
EndChar

StartChar: asciicircum
Encoding: 94 94 39
Width: 719
GlyphClass: 2
Flags: W
LayerCount: 2
Fore
SplineSet
180 450 m 1,0,-1
 43 450 l 1,1,-1
 306 1234 l 1,2,-1
 414 1234 l 1,3,-1
 674 450 l 1,4,-1
 540 450 l 1,5,-1
 358 1032 l 1,6,-1
 180 450 l 1,0,-1
EndSplineSet
EndChar

StartChar: underscore
Encoding: 95 95 40
Width: 1192
GlyphClass: 2
Flags: W
LayerCount: 2
Fore
SplineSet
108 -333 m 1,0,-1
 108 -226 l 1,1,-1
 1083 -226 l 1,2,-1
 1083 -333 l 1,3,-1
 108 -333 l 1,0,-1
EndSplineSet
EndChar

StartChar: braceleft
Encoding: 123 123 41
Width: 623
GlyphClass: 2
Flags: W
LayerCount: 2
Fore
SplineSet
124 705 m 1,0,1
 178 705 178 705 213.5 737.5 c 128,-1,2
 249 770 249 770 260 823 c 1,3,-1
 260 820 l 1,4,-1
 265 921 l 2,5,6
 267 948 267 948 269 977.5 c 128,-1,7
 271 1007 271 1007 273 1034 c 0,8,9
 273 1111 273 1111 274 1164.5 c 128,-1,10
 275 1218 275 1218 277 1247 c 0,11,12
 279 1277 279 1277 284.5 1305.5 c 128,-1,13
 290 1334 290 1334 299 1358 c 0,14,15
 318 1407 318 1407 345 1437.5 c 128,-1,16
 372 1468 372 1468 420 1485 c 0,17,18
 460 1500 460 1500 518 1500 c 2,19,-1
 578 1500 l 1,20,-1
 578 1319 l 1,21,-1
 533 1319 l 2,22,23
 473 1319 473 1319 451 1287 c 1,24,-1
 452 1288 l 1,25,26
 432 1259 432 1259 432 1151 c 2,27,-1
 432 960 l 1,28,-1
 429 892 l 2,29,30
 429 867 429 867 423 851 c 0,31,32
 417 804 417 804 404.5 764.5 c 128,-1,33
 392 725 392 725 376 698 c 0,34,35
 363 678 363 678 342 655.5 c 128,-1,36
 321 633 321 633 297 613 c 1,37,38
 363 567 363 567 394 494 c 0,39,40
 412 449 412 449 422 376 c 128,-1,41
 432 303 432 303 432 203 c 2,42,-1
 434 -5 l 2,43,44
 437 -58 437 -58 454 -78 c 1,45,-1
 482 -93 l 1,46,47
 501 -97 501 -97 533 -97 c 2,48,-1
 578 -97 l 1,49,-1
 578 -275 l 1,50,-1
 518 -275 l 2,51,52
 442 -275 442 -275 409 -261 c 0,53,54
 363 -237 363 -237 324 -189 c 1,55,56
 298 -148 298 -148 281 -64 c 0,57,58
 277 -29 277 -29 275 31.5 c 128,-1,59
 273 92 273 92 273 177 c 0,60,61
 273 258 273 258 270 313.5 c 128,-1,62
 267 369 267 369 260 399 c 0,63,64
 248 454 248 454 220 485 c 1,65,66
 200 499 200 499 176.5 507 c 128,-1,67
 153 515 153 515 124 515 c 1,68,-1
 124 705 l 1,0,1
EndSplineSet
EndChar

StartChar: bar
Encoding: 124 124 42
Width: 313
GlyphClass: 2
Flags: W
LayerCount: 2
Fore
SplineSet
70 -259 m 1,0,-1
 70 1586 l 1,1,-1
 242 1586 l 1,2,-1
 239 -259 l 1,3,-1
 70 -259 l 1,0,-1
EndSplineSet
EndChar

StartChar: braceright
Encoding: 125 125 43
Width: 547
GlyphClass: 2
Flags: W
LayerCount: 2
Fore
SplineSet
489 517 m 1,0,1
 458 517 458 517 435 510 c 128,-1,2
 412 503 412 503 395 489 c 0,3,4
 379 472 379 472 368 451 c 128,-1,5
 357 430 357 430 351 401 c 0,6,7
 339 341 339 341 339 179 c 0,8,9
 339 11 339 11 330 -59 c 0,10,11
 316 -146 316 -146 289 -187 c 0,12,13
 270 -210 270 -210 248.5 -228.5 c 128,-1,14
 227 -247 227 -247 203 -259 c 0,15,16
 170 -273 170 -273 94 -273 c 2,17,-1
 33 -273 l 1,18,-1
 33 -95 l 1,19,-1
 79 -95 l 2,20,21
 96 -95 96 -95 108 -93.5 c 128,-1,22
 120 -92 120 -92 131 -90 c 2,23,-1
 158 -76 l 1,24,25
 176 -55 176 -55 179 -2 c 0,26,27
 179 49 179 49 180 101 c 128,-1,28
 181 153 181 153 181 205 c 0,29,30
 181 306 181 306 190 378.5 c 128,-1,31
 199 451 199 451 218 496 c 0,32,33
 252 572 252 572 315 615 c 1,34,35
 290 635 290 635 269 657.5 c 128,-1,36
 248 680 248 680 235 700 c 0,37,38
 219 726 219 726 207.5 767 c 128,-1,39
 196 808 196 808 188 853 c 0,40,41
 185 861 185 861 184.5 870.5 c 128,-1,42
 184 880 184 880 184 894 c 2,43,-1
 181 962 l 1,44,-1
 181 1153 l 2,45,46
 181 1261 181 1261 161 1290 c 1,47,-1
 162 1289 l 1,48,49
 140 1321 140 1321 79 1321 c 2,50,-1
 33 1321 l 1,51,-1
 33 1502 l 1,52,-1
 94 1502 l 2,53,54
 153 1502 153 1502 191 1487 c 0,55,56
 237 1470 237 1470 265.5 1439 c 128,-1,57
 294 1408 294 1408 311 1360 c 0,58,59
 321 1336 321 1336 326.5 1307.5 c 128,-1,60
 332 1279 332 1279 334 1249 c 0,61,62
 336 1220 336 1220 337.5 1166 c 128,-1,63
 339 1112 339 1112 339 1037 c 1,64,-1
 348 923 l 1,65,-1
 352 825 l 1,66,67
 364 773 364 773 399 740 c 128,-1,68
 434 707 434 707 489 707 c 1,69,-1
 489 517 l 1,0,1
EndSplineSet
EndChar

StartChar: asciitilde
Encoding: 126 126 44
Width: 1161
GlyphClass: 2
Flags: W
LayerCount: 2
Fore
SplineSet
1045 747 m 1,0,-1
 1086 747 l 1,1,2
 1082 571 1082 571 1014 469.5 c 128,-1,3
 946 368 946 368 850 368 c 0,4,5
 807 368 807 368 757.5 389 c 128,-1,6
 708 410 708 410 503 535 c 0,7,8
 356 620 356 620 294 620 c 0,9,10
 229 620 229 620 183.5 562 c 128,-1,11
 138 504 138 504 118 371 c 1,12,-1
 75 371 l 1,13,14
 83 557 83 557 148.5 654.5 c 128,-1,15
 214 752 214 752 302 752 c 0,16,17
 342 752 342 752 387 732 c 0,18,19
 484 691 484 691 642.5 592.5 c 128,-1,20
 801 494 801 494 867 494 c 0,21,22
 936 494 936 494 985 559.5 c 128,-1,23
 1034 625 1034 625 1045 747 c 1,0,-1
EndSplineSet
EndChar

StartChar: cent
Encoding: 162 162 45
Width: 721
GlyphClass: 2
Flags: W
LayerCount: 2
Fore
SplineSet
598 156 m 1,0,1
 537 71 537 71 467 31 c 128,-1,2
 397 -9 397 -9 304 -17 c 1,3,-1
 228 -265 l 1,4,-1
 187 -265 l 1,5,-1
 262 -17 l 1,6,7
 177 -8 177 -8 128.5 47 c 128,-1,8
 80 102 80 102 80 188 c 0,9,10
 80 345 80 345 191.5 478.5 c 128,-1,11
 303 612 303 612 457 638 c 1,12,-1
 541 917 l 1,13,-1
 580 917 l 1,14,-1
 499 638 l 1,15,16
 580 638 580 638 616.5 607 c 128,-1,17
 653 576 653 576 653 523 c 0,18,19
 653 482 653 482 631.5 455.5 c 128,-1,20
 610 429 610 429 580 429 c 0,21,22
 557 429 557 429 544 442 c 128,-1,23
 531 455 531 455 531 476 c 0,24,25
 531 491 531 491 536 502 c 128,-1,26
 541 513 541 513 560.5 534.5 c 128,-1,27
 580 556 580 556 580 570 c 0,28,29
 580 578 580 578 575 585 c 0,30,31
 565 596 565 596 549.5 601 c 128,-1,32
 534 606 534 606 489 606 c 1,33,-1
 322 49 l 1,34,-1
 352 47 l 1,35,36
 470 47 470 47 580 173 c 1,37,-1
 598 156 l 1,0,1
284 57 m 1,38,-1
 445 598 l 1,39,40
 383 570 383 570 342 533 c 0,41,42
 274 467 274 467 237 380.5 c 128,-1,43
 200 294 200 294 200 205 c 0,44,45
 200 146 200 146 224 108 c 0,46,47
 243 81 243 81 284 57 c 1,38,-1
EndSplineSet
EndChar

StartChar: multiply
Encoding: 215 215 46
Width: 975
GlyphClass: 2
Flags: W
LayerCount: 2
Fore
SplineSet
267 230 m 1,0,-1
 515 479 l 1,1,-1
 267 728 l 1,2,-1
 308 768 l 1,3,-1
 556 520 l 1,4,-1
 805 768 l 1,5,-1
 844 728 l 1,6,-1
 595 480 l 1,7,-1
 845 230 l 1,8,-1
 805 190 l 1,9,-1
 555 439 l 1,10,-1
 307 190 l 1,11,-1
 267 230 l 1,0,-1
EndSplineSet
EndChar

StartChar: divide
Encoding: 247 247 47
Width: 1136
GlyphClass: 2
Flags: W
LayerCount: 2
Fore
SplineSet
752 712 m 0,0,1
 752 634 752 634 694 581 c 128,-1,2
 636 528 636 528 556 528 c 0,3,4
 482 528 482 528 430 582 c 128,-1,5
 378 636 378 636 378 712 c 0,6,7
 378 790 378 790 432 847 c 128,-1,8
 486 904 486 904 556 904 c 0,9,10
 636 904 636 904 694 848 c 128,-1,11
 752 792 752 792 752 712 c 0,0,1
1064 268 m 1,12,-1
 70 268 l 1,13,-1
 70 496 l 1,14,-1
 1064 496 l 1,15,-1
 1064 268 l 1,12,-1
770 68 m 0,16,17
 770 -8 770 -8 726 -60 c 0,18,19
 676 -122 676 -122 586 -122 c 0,20,21
 504 -122 504 -122 456 -69 c 128,-1,22
 408 -16 408 -16 408 62 c 256,23,24
 408 140 408 140 462 197 c 128,-1,25
 516 254 516 254 586 254 c 0,26,27
 664 254 664 254 717 197 c 128,-1,28
 770 140 770 140 770 68 c 0,16,17
EndSplineSet
EndChar

StartChar: tm_visarga
Encoding: 2947 2947 48
Width: 1200
GlyphClass: 2
Flags: W
LayerCount: 2
Fore
SplineSet
772 958 m 0,0,1
 772 884 772 884 717 827 c 128,-1,2
 662 770 662 770 594 770 c 0,3,4
 516 770 516 770 461 824 c 128,-1,5
 406 878 406 878 406 958 c 0,6,7
 406 1010 406 1010 448 1068 c 0,8,9
 502 1142 502 1142 594 1142 c 0,10,11
 676 1142 676 1142 724 1089 c 128,-1,12
 772 1036 772 1036 772 958 c 0,0,1
1184 172 m 0,13,14
 1184 80 1184 80 1118 36 c 0,15,16
 1068 0 1068 0 998 0 c 0,17,18
 932 0 932 0 876 46 c 0,19,20
 814 98 814 98 814 180 c 0,21,22
 814 256 814 256 872 308 c 0,23,24
 924 356 924 356 992 356 c 0,25,26
 1076 356 1076 356 1130 300 c 128,-1,27
 1184 244 1184 244 1184 172 c 0,13,14
380 168 m 0,28,29
 380 74 380 74 312 28 c 0,30,31
 256 -12 256 -12 170 -12 c 0,32,33
 108 -12 108 -12 61 34 c 128,-1,34
 14 80 14 80 14 156 c 0,35,36
 14 236 14 236 69 295 c 128,-1,37
 124 354 124 354 200 354 c 0,38,39
 284 354 284 354 332 300 c 128,-1,40
 380 246 380 246 380 168 c 0,28,29
EndSplineSet
EndChar

StartChar: tm_a
Encoding: 2949 2949 49
Width: 1394
GlyphClass: 2
Flags: W
LayerCount: 2
Fore
SplineSet
1324 -4 m 1,0,-1
 1124 -4 l 1,1,-1
 1124 360 l 1,2,-1
 1064 360 l 1,3,4
 1048 202 1048 202 880 76 c 0,5,6
 720 -44 720 -44 560 -44 c 0,7,8
 374 -44 374 -44 202 90 c 128,-1,9
 30 224 30 224 30 348 c 0,10,11
 30 492 30 492 154 492 c 2,12,-1
 290 492 l 1,13,14
 238 568 238 568 238 640 c 0,15,16
 238 766 238 766 346 862 c 0,17,18
 462 966 462 966 640 966 c 0,19,20
 812 966 812 966 944 826 c 128,-1,21
 1076 686 1076 686 1074 504 c 1,22,-1
 1118 504 l 1,23,-1
 1118 906 l 1,24,-1
 1324 906 l 1,25,-1
 1324 -4 l 1,0,-1
884 496 m 1,26,27
 796 818 796 818 626 818 c 0,28,29
 520 818 520 818 442 756 c 1,30,31
 470 764 470 764 498 764 c 0,32,33
 570 764 570 764 623 715 c 128,-1,34
 676 666 676 666 676 584 c 0,35,36
 676 548 676 548 662 496 c 1,37,-1
 884 496 l 1,26,27
518 560 m 0,38,39
 518 612 518 612 464 612 c 0,40,41
 408 612 408 612 408 566 c 0,42,43
 408 546 408 546 424 526 c 128,-1,44
 440 506 440 506 464 506 c 0,45,46
 518 506 518 506 518 560 c 0,38,39
848 362 m 1,47,-1
 166 362 l 1,48,49
 192 278 192 278 284 209 c 128,-1,50
 376 140 376 140 482 140 c 0,51,52
 606 140 606 140 721 210 c 128,-1,53
 836 280 836 280 848 362 c 1,47,-1
EndSplineSet
EndChar

StartChar: tm_aa
Encoding: 2950 2950 50
Width: 1748
GlyphClass: 2
Flags: W
LayerCount: 2
Fore
SplineSet
1718 60 m 0,0,1
 1718 -96 1718 -96 1576 -214 c 0,2,3
 1440 -324 1440 -324 1274 -324 c 0,4,5
 1122 -324 1122 -324 978 -251 c 128,-1,6
 834 -178 834 -178 820 -90 c 1,7,-1
 970 -90 l 1,8,9
 1002 -140 1002 -140 1078 -170 c 0,10,11
 1140 -194 1140 -194 1202 -194 c 0,12,13
 1304 -194 1304 -194 1376 -106 c 0,14,15
 1442 -26 1442 -26 1442 68 c 0,16,17
 1442 132 1442 132 1410 192 c 0,18,19
 1374 262 1374 262 1326 256 c 1,20,-1
 1326 -14 l 1,21,-1
 1120 -14 l 1,22,-1
 1120 358 l 1,23,-1
 1054 358 l 1,24,25
 1046 212 1046 212 887 85 c 128,-1,26
 728 -42 728 -42 552 -42 c 0,27,28
 364 -42 364 -42 194 92 c 0,29,30
 28 220 28 220 28 350 c 0,31,32
 28 414 28 414 62 454 c 128,-1,33
 96 494 96 494 150 494 c 2,34,-1
 288 494 l 1,35,36
 236 572 236 572 236 642 c 0,37,38
 236 766 236 766 349 867 c 128,-1,39
 462 968 462 968 632 968 c 0,40,41
 808 968 808 968 941 827 c 128,-1,42
 1074 686 1074 686 1070 500 c 1,43,-1
 1114 500 l 1,44,-1
 1114 900 l 1,45,-1
 1318 900 l 1,46,-1
 1318 390 l 1,47,48
 1362 404 1362 404 1406 404 c 0,49,50
 1534 404 1534 404 1626 301 c 128,-1,51
 1718 198 1718 198 1718 60 c 0,0,1
878 500 m 1,52,53
 800 814 800 814 620 814 c 0,54,55
 506 814 506 814 438 758 c 1,56,57
 466 766 466 766 492 766 c 0,58,59
 566 766 566 766 616 720 c 0,60,61
 670 668 670 668 670 584 c 0,62,63
 670 522 670 522 650 500 c 1,64,-1
 878 500 l 1,52,53
516 558 m 0,65,66
 516 614 516 614 464 614 c 0,67,68
 444 614 444 614 425 597 c 128,-1,69
 406 580 406 580 406 558 c 0,70,71
 406 540 406 540 425 524 c 128,-1,72
 444 508 444 508 464 508 c 0,73,74
 516 508 516 508 516 558 c 0,65,66
842 358 m 1,75,-1
 160 358 l 1,76,77
 182 278 182 278 279 207 c 128,-1,78
 376 136 376 136 476 136 c 0,79,80
 600 136 600 136 716 208 c 128,-1,81
 832 280 832 280 842 358 c 1,75,-1
EndSplineSet
EndChar

StartChar: tm_i
Encoding: 2951 2951 51
Width: 1468
GlyphClass: 2
Flags: W
LayerCount: 2
Fore
SplineSet
1436 276 m 0,0,1
 1436 164 1436 164 1369 78 c 128,-1,2
 1302 -8 1302 -8 1200 -8 c 0,3,4
 1134 -8 1134 -8 1070 34 c 0,5,6
 1014 72 1014 72 984 122 c 1,7,8
 818 -18 818 -18 626 -18 c 0,9,10
 440 -18 440 -18 278 108 c 0,11,12
 120 228 120 228 120 354 c 0,13,14
 120 430 120 430 164 468 c 1,15,16
 128 482 128 482 92 530 c 0,17,18
 30 610 30 610 30 728 c 0,19,20
 30 892 30 892 186 1022 c 0,21,22
 370 1178 370 1178 678 1178 c 0,23,24
 998 1178 998 1178 1185 1016 c 128,-1,25
 1372 854 1372 854 1356 586 c 1,26,-1
 1226 622 l 1,27,28
 1196 1044 1196 1044 742 1044 c 0,29,30
 566 1044 566 1044 414 948 c 0,31,32
 250 844 250 844 250 708 c 0,33,34
 250 640 250 640 276 569 c 128,-1,35
 302 498 302 498 300 490 c 1,36,-1
 372 490 l 1,37,38
 310 562 310 562 310 634 c 0,39,40
 310 746 310 746 406 842 c 0,41,42
 516 952 516 952 680 952 c 0,43,44
 868 952 868 952 1004 823 c 128,-1,45
 1140 694 1140 694 1136 510 c 1,46,47
 1166 528 1166 528 1204 528 c 0,48,49
 1290 528 1290 528 1363 456 c 128,-1,50
 1436 384 1436 384 1436 276 c 0,0,1
940 502 m 1,51,52
 918 612 918 612 870 692 c 0,53,54
 800 808 800 808 698 808 c 0,55,56
 582 808 582 808 520 752 c 1,57,58
 544 762 544 762 570 762 c 0,59,60
 638 762 638 762 690 707 c 128,-1,61
 742 652 742 652 742 574 c 0,62,63
 742 538 742 538 730 502 c 1,64,-1
 940 502 l 1,51,52
590 560 m 0,65,66
 590 606 590 606 534 606 c 0,67,68
 486 606 486 606 486 560 c 0,69,70
 486 510 486 510 534 510 c 0,71,72
 590 510 590 510 590 560 c 0,65,66
914 370 m 1,73,-1
 248 370 l 1,74,75
 272 286 272 286 356 222 c 0,76,77
 448 152 448 152 558 152 c 0,78,79
 678 152 678 152 794 226 c 0,80,81
 904 296 904 296 914 370 c 1,73,-1
1228 262 m 0,82,83
 1228 310 1228 310 1196 344 c 128,-1,84
 1164 378 1164 378 1128 372 c 1,85,86
 1092 232 1092 232 1004 138 c 1,87,88
 1106 148 1106 148 1140 158 c 0,89,90
 1228 188 1228 188 1228 262 c 0,82,83
EndSplineSet
EndChar

StartChar: tm_ii
Encoding: 2952 2952 52
Width: 1128
GlyphClass: 2
Flags: W
LayerCount: 2
Fore
SplineSet
1004 626 m 1,0,-1
 812 626 l 1,1,-1
 812 -4 l 1,2,-1
 590 0 l 1,3,-1
 590 628 l 1,4,-1
 280 628 l 1,5,-1
 280 0 l 1,6,-1
 70 0 l 1,7,-1
 70 768 l 1,8,-1
 1004 768 l 1,9,-1
 1004 626 l 1,0,-1
1116 376 m 0,10,11
 1116 322 1116 322 1080 287 c 128,-1,12
 1044 252 1044 252 1004 252 c 0,13,14
 952 252 952 252 908 289 c 128,-1,15
 864 326 864 326 864 376 c 0,16,17
 864 430 864 430 897 466 c 128,-1,18
 930 502 930 502 988 502 c 0,19,20
 1042 502 1042 502 1079 465 c 128,-1,21
 1116 428 1116 428 1116 376 c 0,10,11
566 368 m 0,22,23
 566 314 566 314 530 280 c 128,-1,24
 494 246 494 246 442 246 c 256,25,26
 390 246 390 246 352 284 c 128,-1,27
 314 322 314 322 314 374 c 0,28,29
 314 418 314 418 349 456 c 128,-1,30
 384 494 384 494 442 494 c 0,31,32
 496 494 496 494 531 457 c 128,-1,33
 566 420 566 420 566 368 c 0,22,23
EndSplineSet
EndChar

StartChar: tm_u
Encoding: 2953 2953 53
Width: 1204
GlyphClass: 2
Flags: W
LayerCount: 2
Fore
SplineSet
1192 -4 m 1,0,-1
 264 0 l 2,1,2
 198 0 198 0 154 34 c 0,3,4
 104 72 104 72 104 140 c 0,5,6
 104 228 104 228 148 260 c 0,7,8
 176 280 176 280 262 294 c 0,9,10
 360 310 360 310 414 336 c 0,11,12
 480 368 480 368 528 447 c 128,-1,13
 576 526 576 526 576 602 c 0,14,15
 576 684 576 684 519 751 c 128,-1,16
 462 818 462 818 392 818 c 0,17,18
 284 818 284 818 204 726 c 1,19,20
 268 762 268 762 336 762 c 0,21,22
 414 762 414 762 470 703 c 128,-1,23
 526 644 526 644 526 568 c 0,24,25
 526 458 526 458 458 398 c 0,26,27
 398 344 398 344 300 344 c 0,28,29
 200 344 200 344 126 406 c 0,30,31
 30 484 30 484 30 630 c 0,32,33
 30 788 30 788 160 886 c 0,34,35
 274 970 274 970 422 970 c 0,36,37
 564 970 564 970 682 864 c 0,38,39
 804 752 804 752 804 602 c 0,40,41
 804 410 804 410 686 298 c 0,42,43
 574 194 574 194 404 194 c 0,44,45
 314 194 314 194 308 194 c 0,46,47
 252 190 252 190 252 166 c 0,48,49
 252 130 252 130 324 130 c 2,50,-1
 1192 124 l 1,51,-1
 1192 -4 l 1,0,-1
350 532 m 0,52,53
 350 604 350 604 284 604 c 0,54,55
 254 604 254 604 232 583 c 128,-1,56
 210 562 210 562 210 532 c 0,57,58
 210 464 210 464 280 464 c 256,59,60
 350 464 350 464 350 532 c 0,52,53
EndSplineSet
EndChar

StartChar: tm_uu
Encoding: 2954 2954 54
Width: 2234
GlyphClass: 2
Flags: W
LayerCount: 2
Fore
SplineSet
2220 -2 m 1,0,-1
 288 -2 l 2,1,2
 216 -2 216 -2 170 36 c 0,3,4
 116 80 116 80 116 156 c 0,5,6
 116 246 116 246 164 282 c 0,7,8
 196 304 196 304 288 322 c 0,9,10
 396 342 396 342 454 370 c 0,11,12
 526 404 526 404 578 491 c 128,-1,13
 630 578 630 578 630 662 c 0,14,15
 630 750 630 750 569 822 c 128,-1,16
 508 894 508 894 434 894 c 0,17,18
 368 894 368 894 304 863 c 128,-1,19
 240 832 240 832 218 788 c 1,20,21
 298 834 298 834 370 834 c 0,22,23
 452 834 452 834 514 767 c 128,-1,24
 576 700 576 700 576 622 c 0,25,26
 576 502 576 502 506 439 c 128,-1,27
 436 376 436 376 330 376 c 0,28,29
 206 376 206 376 122 456 c 0,30,31
 28 546 28 546 28 692 c 0,32,33
 28 854 28 854 154 960 c 128,-1,34
 280 1066 280 1066 464 1066 c 0,35,36
 610 1066 610 1066 742 940 c 0,37,38
 878 808 878 808 878 642 c 0,39,40
 878 446 878 446 750 328 c 0,41,42
 630 214 630 214 446 214 c 0,43,44
 346 214 346 214 338 214 c 0,45,46
 276 208 276 208 276 184 c 0,47,48
 276 150 276 150 302 142 c 0,49,50
 312 138 312 138 352 138 c 2,51,-1
 2220 142 l 1,52,-1
 2220 -2 l 1,0,-1
2196 662 m 1,53,-1
 1990 662 l 1,54,-1
 1990 168 l 1,55,-1
 1784 168 l 1,56,-1
 1784 664 l 1,57,-1
 1640 664 l 1,58,-1
 1640 174 l 1,59,-1
 1440 174 l 1,60,-1
 1440 518 l 2,61,62
 1440 590 1440 590 1383 641 c 128,-1,63
 1326 692 1326 692 1246 692 c 0,64,65
 1140 692 1140 692 1080 622 c 0,66,67
 1028 562 1028 562 1028 478 c 0,68,69
 1028 462 1028 462 1030 446 c 1,70,71
 1096 562 1096 562 1220 562 c 0,72,73
 1292 562 1292 562 1342 501 c 128,-1,74
 1392 440 1392 440 1392 362 c 0,75,76
 1392 276 1392 276 1329 230 c 128,-1,77
 1266 184 1266 184 1174 184 c 0,78,79
 1066 184 1066 184 975 281 c 128,-1,80
 884 378 884 378 884 500 c 0,81,82
 884 646 884 646 998 737 c 128,-1,83
 1112 828 1112 828 1276 828 c 0,84,85
 1414 828 1414 828 1544 712 c 1,86,-1
 1498 768 l 1,87,-1
 2132 768 l 1,88,-1
 2196 662 l 1,53,-1
388 582 m 0,89,90
 388 614 388 614 366 638 c 128,-1,91
 344 662 344 662 312 662 c 256,92,93
 280 662 280 662 252 636 c 128,-1,94
 224 610 224 610 224 576 c 0,95,96
 224 504 224 504 310 504 c 0,97,98
 388 504 388 504 388 582 c 0,89,90
1232 350 m 256,99,100
 1232 376 1232 376 1214 396 c 128,-1,101
 1196 416 1196 416 1172 416 c 0,102,103
 1108 416 1108 416 1108 346 c 0,104,105
 1108 286 1108 286 1162 286 c 0,106,107
 1190 286 1190 286 1211 305 c 128,-1,108
 1232 324 1232 324 1232 350 c 256,99,100
EndSplineSet
EndChar

StartChar: tm_e
Encoding: 2958 2958 55
Width: 1308
GlyphClass: 2
Flags: W
LayerCount: 2
Fore
SplineSet
1292 608 m 1,0,-1
 1066 608 l 1,1,-1
 1066 0 l 1,2,-1
 828 0 l 1,3,-1
 828 608 l 1,4,-1
 380 608 l 2,5,6
 310 608 310 608 255 542 c 128,-1,7
 200 476 200 476 200 412 c 0,8,9
 200 396 200 396 206 382 c 1,10,11
 260 454 260 454 270 464 c 0,12,13
 330 514 330 514 434 514 c 256,14,15
 538 514 538 514 612 437 c 128,-1,16
 686 360 686 360 686 252 c 0,17,18
 686 136 686 136 601 72 c 128,-1,19
 516 8 516 8 374 8 c 0,20,21
 234 8 234 8 134 129 c 128,-1,22
 34 250 34 250 34 404 c 0,23,24
 34 552 34 552 131 659 c 128,-1,25
 228 766 228 766 370 766 c 2,26,-1
 1292 766 l 1,27,-1
 1292 608 l 1,0,-1
468 252 m 0,28,29
 468 294 468 294 442 326 c 128,-1,30
 416 358 416 358 380 358 c 0,31,32
 336 358 336 358 307 328 c 128,-1,33
 278 298 278 298 278 256 c 0,34,35
 278 156 278 156 380 156 c 0,36,37
 402 156 402 156 435 187 c 128,-1,38
 468 218 468 218 468 252 c 0,28,29
EndSplineSet
EndChar

StartChar: tm_ee
Encoding: 2959 2959 56
Width: 1346
GlyphClass: 2
Flags: W
LayerCount: 2
Fore
SplineSet
1332 612 m 1,0,-1
 1086 612 l 1,1,-1
 1086 -286 l 1,2,-1
 270 -286 l 1,3,-1
 270 -136 l 1,4,-1
 852 -136 l 1,5,-1
 852 614 l 1,6,-1
 408 614 l 2,7,8
 328 614 328 614 269 549 c 128,-1,9
 210 484 210 484 210 420 c 0,10,11
 210 406 210 406 214 394 c 1,12,-1
 228 412 l 2,13,14
 316 528 316 528 434 528 c 0,15,16
 544 528 544 528 624 450 c 128,-1,17
 704 372 704 372 704 262 c 0,18,19
 704 136 704 136 615 71 c 128,-1,20
 526 6 526 6 376 6 c 0,21,22
 238 6 238 6 135 126 c 128,-1,23
 32 246 32 246 32 402 c 0,24,25
 32 556 32 556 126 661 c 128,-1,26
 220 766 220 766 372 766 c 2,27,-1
 1332 766 l 1,28,-1
 1332 612 l 1,0,-1
478 254 m 0,29,30
 478 292 478 292 452 325 c 128,-1,31
 426 358 426 358 388 358 c 0,32,33
 346 358 346 358 317 328 c 128,-1,34
 288 298 288 298 288 258 c 0,35,36
 288 154 288 154 384 154 c 0,37,38
 406 154 406 154 442 186 c 128,-1,39
 478 218 478 218 478 254 c 0,29,30
EndSplineSet
EndChar

StartChar: tm_ai
Encoding: 2960 2960 57
Width: 1276
GlyphClass: 2
Flags: W
LayerCount: 2
Fore
SplineSet
1246 504 m 0,0,1
 1246 372 1246 372 1162 268 c 0,2,3
 1070 156 1070 156 932 150 c 2,4,-1
 306 124 l 2,5,6
 290 124 290 124 266 86 c 128,-1,7
 242 48 242 48 242 12 c 0,8,9
 242 -46 242 -46 284 -86 c 128,-1,10
 326 -126 326 -126 406 -126 c 0,11,12
 444 -126 444 -126 483 -101 c 128,-1,13
 522 -76 522 -76 522 -52 c 2,14,-1
 522 88 l 1,15,-1
 744 88 l 1,16,-1
 744 -52 l 2,17,18
 744 -94 744 -94 780 -124 c 128,-1,19
 816 -154 816 -154 854 -154 c 0,20,21
 956 -154 956 -154 956 -62 c 2,22,-1
 956 144 l 1,23,-1
 1202 144 l 1,24,-1
 1202 -70 l 2,25,26
 1202 -162 1202 -162 1108 -240 c 128,-1,27
 1014 -318 1014 -318 896 -318 c 0,28,29
 814 -318 814 -318 724 -274 c 0,30,31
 708 -266 708 -266 610 -206 c 1,32,33
 584 -224 584 -224 512 -242 c 0,34,35
 422 -266 422 -266 334 -266 c 0,36,37
 214 -266 214 -266 126 -192 c 0,38,39
 30 -112 30 -112 30 16 c 0,40,41
 30 172 30 172 170 254 c 1,42,43
 80 316 80 316 48 388 c 0,44,45
 26 440 26 440 26 534 c 0,46,47
 26 680 26 680 130 779 c 128,-1,48
 234 878 234 878 378 878 c 0,49,50
 536 878 536 878 640 752 c 1,51,52
 752 858 752 858 920 858 c 0,53,54
 1062 858 1062 858 1154 754 c 128,-1,55
 1246 650 1246 650 1246 504 c 0,0,1
540 528 m 1,56,-1
 540 576 l 1,57,58
 496 686 496 686 356 686 c 0,59,60
 288 686 288 686 232 634 c 128,-1,61
 176 582 176 582 176 508 c 0,62,63
 176 496 176 496 178 482 c 1,64,65
 236 606 236 606 360 606 c 0,66,67
 466 606 466 606 540 528 c 1,56,-1
968 476 m 0,68,69
 968 550 968 550 927 605 c 128,-1,70
 886 660 886 660 818 660 c 0,71,72
 802 660 802 660 784 656 c 1,73,-1
 784 290 l 1,74,-1
 522 290 l 2,75,76
 510 290 510 290 500 262 c 1,77,-1
 800 262 l 2,78,79
 892 262 892 262 936 346 c 0,80,81
 968 404 968 404 968 476 c 0,68,69
376 404 m 0,82,83
 376 462 376 462 318 462 c 0,84,85
 268 462 268 462 268 404 c 0,86,87
 268 386 268 386 285 372 c 128,-1,88
 302 358 302 358 324 358 c 0,89,90
 376 358 376 358 376 404 c 0,82,83
EndSplineSet
EndChar

StartChar: tm_o
Encoding: 2962 2962 58
Width: 1072
GlyphClass: 2
Flags: W
LayerCount: 2
Fore
SplineSet
1040 548 m 0,0,1
 1040 338 1040 338 784 272 c 1,2,3
 842 136 842 136 1002 110 c 1,4,-1
 974 -2 l 1,5,-1
 858 20 l 1,6,7
 822 -100 822 -100 720 -166 c 0,8,9
 626 -226 626 -226 492 -226 c 0,10,11
 366 -226 366 -226 254 -80 c 0,12,13
 152 50 152 50 152 148 c 0,14,15
 152 166 152 166 158 178 c 1,16,-1
 308 140 l 1,17,18
 322 76 322 76 370 36 c 128,-1,19
 418 -4 418 -4 482 -4 c 0,20,21
 562 -4 562 -4 613 56 c 128,-1,22
 664 116 664 116 664 200 c 1,23,24
 664 198 664 198 646 234 c 128,-1,25
 628 270 628 270 628 338 c 1,26,27
 534 388 534 388 534 554 c 0,28,29
 534 588 534 588 546 614 c 0,30,31
 562 648 562 648 564 664 c 1,32,-1
 672 628 l 1,33,34
 668 592 668 592 700 559 c 128,-1,35
 732 526 732 526 760 526 c 0,36,37
 836 526 836 526 836 598 c 0,38,39
 836 672 836 672 752 744 c 0,40,41
 660 822 660 822 536 822 c 0,42,43
 344 822 344 822 240 680 c 1,44,45
 268 688 268 688 324 688 c 1,46,47
 410 696 410 696 474 624 c 0,48,49
 532 556 532 556 532 462 c 256,50,51
 532 368 532 368 457 307 c 128,-1,52
 382 246 382 246 282 246 c 0,53,54
 186 246 186 246 108 322 c 128,-1,55
 30 398 30 398 30 498 c 0,56,57
 30 702 30 702 196 850 c 0,58,59
 356 990 356 990 552 990 c 0,60,61
 722 990 722 990 874 868 c 0,62,63
 1040 732 1040 732 1040 548 c 0,0,1
354 470 m 0,64,65
 354 542 354 542 280 542 c 0,66,67
 246 542 246 542 223 522 c 128,-1,68
 200 502 200 502 200 470 c 0,69,70
 200 436 200 436 225 415 c 128,-1,71
 250 394 250 394 282 394 c 0,72,73
 354 394 354 394 354 470 c 0,64,65
EndSplineSet
EndChar

StartChar: tm_oo
Encoding: 2963 2963 59
Width: 1036
GlyphClass: 2
Flags: W
LayerCount: 2
Fore
SplineSet
1006 564 m 0,0,1
 1006 478 1006 478 938 404 c 128,-1,2
 870 330 870 330 750 298 c 1,3,4
 810 172 810 172 950 148 c 1,5,-1
 928 42 l 1,6,-1
 818 50 l 1,7,8
 800 -64 800 -64 685 -146 c 128,-1,9
 570 -228 570 -228 430 -228 c 0,10,11
 292 -228 292 -228 188 -146 c 0,12,13
 76 -58 76 -58 76 70 c 0,14,15
 76 154 76 154 131 219 c 128,-1,16
 186 284 186 284 266 284 c 0,17,18
 366 284 366 284 436 214 c 128,-1,19
 506 144 506 144 498 40 c 1,20,21
 622 90 622 90 622 206 c 1,22,23
 622 206 622 206 602 256 c 128,-1,24
 582 306 582 306 582 350 c 0,25,26
 582 368 582 368 586 386 c 1,27,28
 514 422 514 422 514 572 c 0,29,30
 514 606 514 606 520 618 c 0,31,32
 532 638 532 638 534 646 c 1,33,-1
 646 644 l 1,34,35
 644 608 644 608 674 577 c 128,-1,36
 704 546 704 546 732 546 c 0,37,38
 814 546 814 546 814 620 c 0,39,40
 814 688 814 688 722 762 c 128,-1,41
 630 836 630 836 520 836 c 0,42,43
 334 836 334 836 230 698 c 1,44,45
 260 706 260 706 308 706 c 0,46,47
 398 706 398 706 454 642 c 128,-1,48
 510 578 510 578 510 488 c 0,49,50
 510 400 510 400 438 345 c 128,-1,51
 366 290 366 290 270 290 c 0,52,53
 176 290 176 290 102 360 c 128,-1,54
 28 430 28 430 28 526 c 0,55,56
 28 722 28 722 188 860 c 0,57,58
 340 988 340 988 528 988 c 0,59,60
 694 988 694 988 842 872 c 0,61,62
 1006 742 1006 742 1006 564 c 0,0,1
338 498 m 0,63,64
 338 528 338 528 317 550 c 128,-1,65
 296 572 296 572 266 572 c 0,66,67
 234 572 234 572 211 549 c 128,-1,68
 188 526 188 526 188 498 c 0,69,70
 188 466 188 466 211 445 c 128,-1,71
 234 424 234 424 266 424 c 0,72,73
 338 424 338 424 338 498 c 0,63,64
362 84 m 256,74,75
 362 116 362 116 340 137 c 128,-1,76
 318 158 318 158 286 158 c 0,77,78
 264 158 264 158 241 135 c 128,-1,79
 218 112 218 112 218 84 c 0,80,81
 218 6 218 6 286 6 c 0,82,83
 318 6 318 6 340 29 c 128,-1,84
 362 52 362 52 362 84 c 256,74,75
EndSplineSet
EndChar

StartChar: tm_au
Encoding: 2964 2964 60
Width: 2398
GlyphClass: 2
Flags: W
LayerCount: 2
Fore
SplineSet
1040 548 m 0,0,1
 1040 338 1040 338 784 272 c 1,2,3
 842 136 842 136 1002 110 c 1,4,-1
 974 -2 l 1,5,-1
 858 20 l 1,6,7
 822 -100 822 -100 720 -166 c 0,8,9
 626 -226 626 -226 492 -226 c 0,10,11
 366 -226 366 -226 254 -80 c 0,12,13
 152 50 152 50 152 148 c 0,14,15
 152 166 152 166 158 178 c 1,16,-1
 308 140 l 1,17,18
 322 76 322 76 370 36 c 128,-1,19
 418 -4 418 -4 482 -4 c 0,20,21
 562 -4 562 -4 613 56 c 128,-1,22
 664 116 664 116 664 200 c 1,23,24
 664 198 664 198 646 234 c 128,-1,25
 628 270 628 270 628 338 c 1,26,27
 534 388 534 388 534 554 c 0,28,29
 534 588 534 588 546 614 c 0,30,31
 562 648 562 648 564 664 c 1,32,-1
 672 628 l 1,33,34
 668 592 668 592 700 559 c 128,-1,35
 732 526 732 526 760 526 c 0,36,37
 836 526 836 526 836 598 c 0,38,39
 836 672 836 672 752 744 c 0,40,41
 660 822 660 822 536 822 c 0,42,43
 344 822 344 822 240 680 c 1,44,45
 268 688 268 688 324 688 c 1,46,47
 410 696 410 696 474 624 c 0,48,49
 532 556 532 556 532 462 c 256,50,51
 532 368 532 368 457 307 c 128,-1,52
 382 246 382 246 282 246 c 0,53,54
 186 246 186 246 108 322 c 128,-1,55
 30 398 30 398 30 498 c 0,56,57
 30 702 30 702 196 850 c 0,58,59
 356 990 356 990 552 990 c 0,60,61
 722 990 722 990 874 868 c 0,62,63
 1040 732 1040 732 1040 548 c 0,0,1
2384 488 m 1,64,-1
 2160 488 l 1,65,-1
 2160 -2 l 1,66,-1
 1960 -2 l 1,67,-1
 1960 490 l 1,68,-1
 1812 490 l 1,69,-1
 1812 0 l 1,70,-1
 1610 0 l 1,71,-1
 1610 344 l 2,72,73
 1610 418 1610 418 1549 468 c 128,-1,74
 1488 518 1488 518 1420 518 c 0,75,76
 1308 518 1308 518 1244 434 c 0,77,78
 1196 370 1196 370 1196 298 c 0,79,80
 1196 276 1196 276 1202 266 c 1,81,82
 1268 382 1268 382 1390 382 c 0,83,84
 1462 382 1462 382 1512 325 c 128,-1,85
 1562 268 1562 268 1562 194 c 0,86,87
 1562 106 1562 106 1499 58 c 128,-1,88
 1436 10 1436 10 1346 10 c 0,89,90
 1220 10 1220 10 1140 72 c 0,91,92
 1054 140 1054 140 1054 260 c 0,93,94
 1054 414 1054 414 1174 534 c 128,-1,95
 1294 654 1294 654 1440 654 c 0,96,97
 1534 654 1534 654 1626 602 c 0,98,99
 1668 574 1668 574 1710 544 c 1,100,-1
 1710 614 l 1,101,-1
 2384 614 l 1,102,-1
 2384 488 l 1,64,-1
354 470 m 0,103,104
 354 542 354 542 280 542 c 0,105,106
 246 542 246 542 223 522 c 128,-1,107
 200 502 200 502 200 470 c 0,108,109
 200 436 200 436 225 415 c 128,-1,110
 250 394 250 394 282 394 c 0,111,112
 354 394 354 394 354 470 c 0,103,104
1402 170 m 0,113,114
 1402 192 1402 192 1383 214 c 128,-1,115
 1364 236 1364 236 1340 236 c 0,116,117
 1314 236 1314 236 1296 216 c 128,-1,118
 1278 196 1278 196 1278 176 c 0,119,120
 1278 150 1278 150 1297 130 c 128,-1,121
 1316 110 1316 110 1338 110 c 0,122,123
 1402 110 1402 110 1402 170 c 0,113,114
EndSplineSet
EndChar

StartChar: tm_ka
Encoding: 2965 2965 61
Width: 1020
GlyphClass: 2
Flags: W
LayerCount: 2
Fore
SplineSet
990 294 m 0,0,1
 990 156 990 156 904 74 c 0,2,3
 828 -2 828 -2 716 -2 c 0,4,5
 644 -2 644 -2 588 32 c 0,6,7
 562 50 562 50 536 70 c 1,8,9
 428 -2 428 -2 304 -2 c 0,10,11
 200 -2 200 -2 115 75 c 128,-1,12
 30 152 30 152 30 252 c 0,13,14
 30 420 30 420 148 522 c 1,15,-1
 148 768 l 1,16,-1
 878 768 l 1,17,-1
 878 634 l 1,18,-1
 662 634 l 1,19,-1
 662 548 l 1,20,-1
 734 548 l 2,21,22
 840 548 840 548 915 478 c 128,-1,23
 990 408 990 408 990 294 c 0,0,1
422 546 m 1,24,-1
 422 634 l 1,25,-1
 330 634 l 1,26,-1
 330 546 l 1,27,-1
 422 546 l 1,24,-1
766 268 m 256,28,29
 766 314 766 314 732 356 c 128,-1,30
 698 398 698 398 662 392 c 1,31,-1
 662 262 l 2,32,33
 662 198 662 198 620 152 c 1,34,35
 672 144 672 144 719 183 c 128,-1,36
 766 222 766 222 766 268 c 256,28,29
422 250 m 2,37,-1
 422 388 l 1,38,-1
 282 388 l 2,39,40
 240 388 240 388 208 348 c 128,-1,41
 176 308 176 308 176 258 c 0,42,43
 176 212 176 212 213 174 c 128,-1,44
 250 136 250 136 294 136 c 0,45,46
 346 136 346 136 384 167 c 128,-1,47
 422 198 422 198 422 250 c 2,37,-1
EndSplineSet
EndChar

StartChar: tm_nga
Encoding: 2969 2969 62
Width: 1590
GlyphClass: 2
Flags: W
LayerCount: 2
Fore
SplineSet
1520 0 m 1,0,-1
 782 0 l 1,1,-1
 782 154 l 1,2,3
 830 146 830 146 869 177 c 128,-1,4
 908 208 908 208 908 254 c 0,5,6
 908 348 908 348 808 348 c 0,7,8
 764 348 764 348 736 319 c 128,-1,9
 708 290 708 290 708 254 c 2,10,-1
 708 0 l 1,11,-1
 474 0 l 1,12,-1
 474 622 l 1,13,-1
 288 622 l 1,14,-1
 288 0 l 1,15,-1
 70 0 l 1,16,-1
 70 768 l 1,17,-1
 902 768 l 1,18,-1
 902 620 l 1,19,-1
 708 620 l 1,20,-1
 708 498 l 1,21,22
 732 514 732 514 758 528 c 0,23,24
 804 550 804 550 890 550 c 0,25,26
 992 550 992 550 1056 481 c 128,-1,27
 1120 412 1120 412 1120 314 c 0,28,29
 1120 230 1120 230 1098 192 c 1,30,31
 1076 170 1076 170 1056 146 c 1,32,-1
 1290 146 l 1,33,-1
 1290 768 l 1,34,-1
 1520 768 l 1,35,-1
 1520 0 l 1,0,-1
EndSplineSet
EndChar

StartChar: tm_ca
Encoding: 2970 2970 63
Width: 896
GlyphClass: 2
Flags: W
LayerCount: 2
Fore
SplineSet
882 394 m 1,0,-1
 660 394 l 1,1,-1
 660 260 l 2,2,3
 660 196 660 196 598 112 c 0,4,5
 508 -10 508 -10 352 -10 c 0,6,7
 194 -10 194 -10 106 80 c 0,8,9
 30 156 30 156 30 264 c 0,10,11
 30 420 30 420 170 510 c 1,12,-1
 170 768 l 1,13,-1
 880 768 l 1,14,-1
 880 620 l 1,15,-1
 664 620 l 1,16,-1
 664 538 l 1,17,-1
 882 538 l 1,18,-1
 882 394 l 1,0,-1
410 538 m 1,19,-1
 410 620 l 1,20,-1
 318 620 l 1,21,-1
 318 538 l 1,22,-1
 410 538 l 1,19,-1
410 258 m 2,23,-1
 410 394 l 1,24,-1
 294 394 l 2,25,26
 252 394 252 394 220 364 c 0,27,28
 182 330 182 330 182 274 c 0,29,30
 182 222 182 222 222 192 c 0,31,32
 254 168 254 168 300 168 c 0,33,34
 338 168 338 168 374 192 c 128,-1,35
 410 216 410 216 410 258 c 2,23,-1
EndSplineSet
EndChar

StartChar: tm_ja
Encoding: 2972 2972 64
Width: 1330
GlyphClass: 2
Flags: W
LayerCount: 2
Fore
SplineSet
1316 16 m 0,0,1
 1316 -90 1316 -90 1220 -160 c 128,-1,2
 1124 -230 1124 -230 1006 -230 c 2,3,-1
 690 -230 l 1,4,-1
 690 -86 l 1,5,-1
 938 -86 l 2,6,7
 988 -86 988 -86 1024 -58 c 128,-1,8
 1060 -30 1060 -30 1060 22 c 0,9,10
 1060 148 1060 148 952 148 c 2,11,-1
 856 148 l 2,12,13
 808 148 808 148 746 105 c 128,-1,14
 684 62 684 62 640 -6 c 0,15,16
 610 -56 610 -56 582 -106 c 0,17,18
 538 -176 538 -176 490 -210 c 0,19,20
 424 -258 424 -258 338 -258 c 0,21,22
 200 -258 200 -258 119 -174 c 128,-1,23
 38 -90 38 -90 38 34 c 0,24,25
 38 124 38 124 100 194 c 1,26,27
 140 232 140 232 180 268 c 1,28,29
 138 302 138 302 96 338 c 1,30,31
 30 414 30 414 30 540 c 0,32,33
 30 680 30 680 138 777 c 128,-1,34
 246 874 246 874 394 874 c 0,35,36
 502 874 502 874 582 830 c 1,37,38
 624 798 624 798 668 766 c 1,39,40
 718 808 718 808 768 850 c 1,41,42
 858 908 858 908 978 908 c 0,43,44
 1108 908 1108 908 1194 798 c 0,45,46
 1274 694 1274 694 1274 556 c 0,47,48
 1274 442 1274 442 1222 356 c 0,49,50
 1180 288 1180 288 1126 262 c 1,51,52
 1180 262 1180 262 1244 190 c 0,53,54
 1316 110 1316 110 1316 16 c 0,0,1
564 534 m 1,55,-1
 564 584 l 1,56,57
 536 644 536 644 483 679 c 128,-1,58
 430 714 430 714 380 714 c 0,59,60
 300 714 300 714 238 646 c 128,-1,61
 176 578 176 578 188 496 c 1,62,63
 248 620 248 620 380 620 c 0,64,65
 500 620 500 620 564 534 c 1,55,-1
1000 490 m 0,66,67
 1000 566 1000 566 959 620 c 128,-1,68
 918 674 918 674 860 674 c 0,69,70
 834 674 834 674 808 660 c 1,71,-1
 808 300 l 1,72,-1
 554 300 l 1,73,-1
 554 332 l 1,74,-1
 476 272 l 1,75,-1
 750 272 l 2,76,77
 1000 272 1000 272 1000 490 c 0,66,67
392 416 m 0,78,79
 392 474 392 474 334 474 c 0,80,81
 286 474 286 474 286 416 c 0,82,83
 286 362 286 362 334 362 c 0,84,85
 392 362 392 362 392 416 c 0,78,79
554 134 m 1,86,-1
 368 134 l 2,87,88
 258 134 258 134 258 16 c 0,89,90
 258 -108 258 -108 356 -108 c 0,91,92
 400 -108 400 -108 438 -68 c 0,93,94
 482 -16 482 -16 554 134 c 1,86,-1
EndSplineSet
EndChar

StartChar: tm_nya
Encoding: 2974 2974 65
Width: 1688
GlyphClass: 2
Flags: W
LayerCount: 2
Fore
SplineSet
1658 132 m 0,0,1
 1658 -132 1658 -132 1360 -270 c 0,2,3
 1110 -386 1110 -386 736 -386 c 0,4,5
 270 -386 270 -386 -40 -82 c 1,6,-1
 42 46 l 1,7,8
 122 -42 122 -42 260 -116 c 0,9,10
 472 -230 472 -230 706 -230 c 0,11,12
 974 -230 974 -230 1174 -142 c 0,13,14
 1392 -46 1392 -46 1392 106 c 0,15,16
 1392 190 1392 190 1336 258 c 0,17,18
 1288 320 1288 320 1240 320 c 0,19,20
 1202 320 1202 320 1202 270 c 2,21,-1
 1202 0 l 1,22,-1
 974 0 l 1,23,-1
 974 616 l 1,24,-1
 556 616 l 2,25,26
 462 616 462 616 404 548 c 0,27,28
 352 490 352 490 352 418 c 0,29,30
 352 398 352 398 358 380 c 1,31,32
 376 438 376 438 440 481 c 128,-1,33
 504 524 504 524 578 524 c 0,34,35
 662 524 662 524 740 452 c 0,36,37
 828 374 828 374 828 266 c 0,38,39
 828 152 828 152 749 82 c 128,-1,40
 670 12 670 12 542 12 c 0,41,42
 392 12 392 12 286 130 c 128,-1,43
 180 248 180 248 180 404 c 0,44,45
 180 556 180 556 270 658 c 0,46,47
 366 768 366 768 520 768 c 2,48,-1
 1438 768 l 1,49,-1
 1438 612 l 1,50,-1
 1200 612 l 1,51,-1
 1200 516 l 1,52,53
 1228 528 1228 528 1270 528 c 0,54,55
 1404 528 1404 528 1520 434 c 0,56,57
 1658 322 1658 322 1658 132 c 0,0,1
614 258 m 0,58,59
 614 356 614 356 526 356 c 0,60,61
 482 356 482 356 452 325 c 128,-1,62
 422 294 422 294 422 252 c 0,63,64
 422 214 422 214 448 188 c 128,-1,65
 474 162 474 162 512 162 c 0,66,67
 614 162 614 162 614 258 c 0,58,59
EndSplineSet
EndChar

StartChar: tm_tta
Encoding: 2975 2975 66
Width: 1050
GlyphClass: 2
Flags: W
LayerCount: 2
Fore
SplineSet
1036 0 m 1,0,-1
 70 0 l 1,1,-1
 70 768 l 1,2,-1
 294 768 l 1,3,-1
 294 148 l 1,4,-1
 1036 148 l 1,5,-1
 1036 0 l 1,0,-1
EndSplineSet
EndChar

StartChar: tm_nna
Encoding: 2979 2979 67
Width: 2338
GlyphClass: 2
Flags: W
LayerCount: 2
Fore
SplineSet
2324 620 m 1,0,-1
 2082 620 l 1,1,-1
 2082 0 l 1,2,-1
 1872 0 l 1,3,-1
 1872 610 l 1,4,-1
 1732 610 l 1,5,6
 1756 574 1756 574 1780 538 c 1,7,8
 1814 468 1814 468 1814 380 c 0,9,10
 1814 216 1814 216 1694 104 c 0,11,12
 1584 0 1584 0 1448 0 c 0,13,14
 1336 0 1336 0 1254 48 c 0,15,16
 1246 54 1246 54 1166 120 c 1,17,18
 1024 2 1024 2 898 2 c 0,19,20
 812 2 812 2 726 52 c 0,21,22
 664 88 664 88 640 120 c 1,23,24
 574 20 574 20 404 20 c 0,25,26
 252 20 252 20 148 108 c 0,27,28
 30 208 30 208 30 386 c 0,29,30
 30 768 30 768 528 768 c 2,31,-1
 2324 768 l 1,32,-1
 2324 620 l 1,0,-1
640 604 m 1,33,-1
 422 604 l 2,34,35
 328 604 328 604 260 546 c 0,36,37
 184 484 184 484 184 386 c 0,38,39
 184 354 184 354 194 318 c 1,40,41
 218 392 218 392 281 438 c 128,-1,42
 344 484 344 484 420 484 c 0,43,44
 478 484 478 484 520 468 c 0,45,46
 542 458 542 458 564 448 c 1,47,-1
 640 604 l 1,33,-1
1574 372 m 0,48,49
 1574 440 1574 440 1534 492 c 128,-1,50
 1494 544 1494 544 1424 544 c 0,51,52
 1362 544 1362 544 1320 500 c 128,-1,53
 1278 456 1278 456 1278 392 c 0,54,55
 1278 324 1278 324 1328 278 c 0,56,57
 1372 236 1372 236 1430 236 c 256,58,59
 1488 236 1488 236 1531 276 c 128,-1,60
 1574 316 1574 316 1574 372 c 0,48,49
982 362 m 0,61,62
 982 424 982 424 938 470 c 128,-1,63
 894 516 894 516 834 516 c 0,64,65
 778 516 778 516 738 482 c 0,66,67
 692 442 692 442 692 372 c 0,68,69
 692 212 692 212 838 212 c 0,70,71
 902 212 902 212 942 254 c 128,-1,72
 982 296 982 296 982 362 c 0,61,62
456 224 m 0,73,74
 456 290 456 290 384 290 c 0,75,76
 352 290 352 290 327 270 c 128,-1,77
 302 250 302 250 302 220 c 0,78,79
 302 192 302 192 326 170 c 128,-1,80
 350 148 350 148 384 148 c 0,81,82
 456 148 456 148 456 224 c 0,73,74
EndSplineSet
EndChar

StartChar: tm_ta
Encoding: 2980 2980 68
Width: 1078
GlyphClass: 2
Flags: W
LayerCount: 2
Fore
SplineSet
1048 212 m 0,0,1
 1048 36 1048 36 937 -70 c 128,-1,2
 826 -176 826 -176 624 -176 c 2,3,-1
 12 -176 l 1,4,-1
 12 -24 l 1,5,-1
 478 -24 l 2,6,7
 640 -24 640 -24 732 54 c 0,8,9
 812 120 812 120 812 214 c 0,10,11
 812 290 812 290 766 346 c 0,12,13
 724 394 724 394 684 394 c 2,14,-1
 630 394 l 1,15,-1
 630 254 l 2,16,17
 630 162 630 162 536 76 c 128,-1,18
 442 -10 442 -10 320 -10 c 0,19,20
 186 -10 186 -10 106 78 c 0,21,22
 30 160 30 160 30 282 c 0,23,24
 30 376 30 376 88 450 c 0,25,26
 124 496 124 496 160 514 c 1,27,-1
 160 768 l 1,28,-1
 824 768 l 1,29,-1
 824 640 l 1,30,-1
 624 640 l 1,31,-1
 624 546 l 1,32,-1
 698 546 l 2,33,34
 818 546 818 546 922 468 c 0,35,36
 1048 374 1048 374 1048 212 c 0,0,1
410 552 m 1,37,-1
 410 640 l 1,38,-1
 308 640 l 1,39,-1
 308 552 l 1,40,-1
 410 552 l 1,37,-1
410 270 m 2,41,-1
 410 390 l 1,42,-1
 304 390 l 2,43,44
 180 390 180 390 180 270 c 0,45,46
 180 220 180 220 214 187 c 128,-1,47
 248 154 248 154 300 154 c 0,48,49
 410 154 410 154 410 270 c 2,41,-1
EndSplineSet
EndChar

StartChar: tm_na
Encoding: 2984 2984 69
Width: 1148
GlyphClass: 2
Flags: W
LayerCount: 2
Fore
SplineSet
1118 124 m 0,0,1
 1118 -72 1118 -72 952 -172 c 0,2,3
 816 -254 816 -254 620 -254 c 2,4,-1
 64 -254 l 1,5,-1
 64 -108 l 1,6,-1
 644 -108 l 2,7,8
 720 -108 720 -108 786 -66 c 0,9,10
 880 -6 880 -6 880 112 c 0,11,12
 880 214 880 214 833 272 c 128,-1,13
 786 330 786 330 714 330 c 0,14,15
 688 330 688 330 662 322 c 1,16,-1
 662 0 l 1,17,-1
 426 0 l 1,18,-1
 426 612 l 1,19,-1
 250 612 l 1,20,-1
 250 0 l 1,21,-1
 70 0 l 1,22,-1
 70 768 l 1,23,-1
 880 768 l 1,24,-1
 880 612 l 1,25,-1
 656 612 l 1,26,-1
 656 500 l 1,27,28
 690 512 690 512 730 512 c 0,29,30
 866 512 866 512 986 408 c 0,31,32
 1118 292 1118 292 1118 124 c 0,0,1
EndSplineSet
EndChar

StartChar: tm_nnna
Encoding: 2985 2985 70
Width: 1794
GlyphClass: 2
Flags: W
LayerCount: 2
Fore
SplineSet
1780 614 m 1,0,-1
 1532 614 l 1,1,-1
 1532 0 l 1,2,-1
 1284 0 l 1,3,-1
 1284 614 l 1,4,-1
 1110 614 l 1,5,6
 1142 608 1142 608 1178 546 c 0,7,8
 1222 468 1222 468 1222 368 c 0,9,10
 1222 228 1222 228 1116 125 c 128,-1,11
 1010 22 1010 22 874 22 c 0,12,13
 770 22 770 22 690 68 c 0,14,15
 678 74 678 74 622 120 c 1,16,17
 592 88 592 88 564 54 c 1,18,19
 506 6 506 6 414 6 c 0,20,21
 278 6 278 6 172 80 c 0,22,23
 30 176 30 176 30 362 c 0,24,25
 30 568 30 568 170 676 c 0,26,27
 290 768 290 768 486 768 c 2,28,-1
 1780 768 l 1,29,-1
 1780 614 l 1,0,-1
634 620 m 1,30,31
 608 616 608 616 486 616 c 0,32,33
 352 616 352 616 268 541 c 128,-1,34
 184 466 184 466 184 360 c 0,35,36
 184 318 184 318 200 276 c 1,37,38
 222 378 222 378 300 430 c 0,39,40
 356 466 356 466 418 466 c 0,41,42
 486 466 486 466 548 426 c 1,43,44
 540 464 540 464 587 542 c 128,-1,45
 634 620 634 620 634 620 c 1,30,31
964 338 m 0,46,47
 964 402 964 402 929 440 c 128,-1,48
 894 478 894 478 840 478 c 256,49,50
 786 478 786 478 748 436 c 128,-1,51
 710 394 710 394 710 336 c 0,52,53
 710 292 710 292 750 255 c 128,-1,54
 790 218 790 218 838 218 c 256,55,56
 886 218 886 218 925 252 c 128,-1,57
 964 286 964 286 964 338 c 0,46,47
468 196 m 0,58,59
 468 232 468 232 444 254 c 128,-1,60
 420 276 420 276 392 276 c 0,61,62
 320 276 320 276 320 196 c 0,63,64
 320 134 320 134 396 134 c 0,65,66
 468 134 468 134 468 196 c 0,58,59
EndSplineSet
EndChar

StartChar: tm_pa
Encoding: 2986 2986 71
Width: 926
GlyphClass: 2
Flags: W
LayerCount: 2
Fore
SplineSet
856 0 m 1,0,-1
 70 0 l 1,1,-1
 70 768 l 1,2,-1
 244 768 l 1,3,-1
 244 134 l 1,4,-1
 614 134 l 1,5,-1
 614 768 l 1,6,-1
 856 768 l 1,7,-1
 856 0 l 1,0,-1
EndSplineSet
EndChar

StartChar: tm_ma
Encoding: 2990 2990 72
Width: 1186
GlyphClass: 2
Flags: W
LayerCount: 2
Fore
SplineSet
1156 422 m 0,0,1
 1156 0 1156 0 600 0 c 2,2,-1
 70 0 l 1,3,-1
 70 768 l 1,4,-1
 304 768 l 1,5,-1
 304 170 l 1,6,-1
 454 170 l 1,7,-1
 454 540 l 2,8,9
 454 638 454 638 572 712 c 0,10,11
 678 778 678 778 788 778 c 0,12,13
 916 778 916 778 1022 700 c 0,14,15
 1156 600 1156 600 1156 422 c 0,0,1
974 364 m 0,16,17
 974 526 974 526 834 526 c 0,18,19
 712 526 712 526 712 436 c 2,20,-1
 712 188 l 1,21,-1
 834 188 l 2,22,23
 888 188 888 188 931 242 c 128,-1,24
 974 296 974 296 974 364 c 0,16,17
EndSplineSet
EndChar

StartChar: tm_ya
Encoding: 2991 2991 73
Width: 1306
GlyphClass: 2
Flags: W
LayerCount: 2
Fore
SplineSet
1236 0 m 1,0,-1
 398 0 l 1,1,-1
 398 182 l 1,2,-1
 236 48 l 1,3,-1
 236 0 l 1,4,-1
 70 0 l 1,5,-1
 70 768 l 1,6,-1
 224 768 l 1,7,-1
 224 216 l 1,8,-1
 398 358 l 1,9,-1
 398 768 l 1,10,-1
 620 768 l 1,11,-1
 620 140 l 1,12,-1
 1002 140 l 1,13,-1
 1002 768 l 1,14,-1
 1236 768 l 1,15,-1
 1236 0 l 1,0,-1
EndSplineSet
EndChar

StartChar: tm_ra
Encoding: 2992 2992 74
Width: 910
GlyphClass: 2
Flags: W
LayerCount: 2
Fore
SplineSet
896 620 m 1,0,-1
 694 620 l 1,1,-1
 694 -264 l 1,2,-1
 -22 -264 l 1,3,-1
 -22 -132 l 1,4,-1
 468 -132 l 1,5,-1
 468 624 l 1,6,-1
 288 624 l 1,7,-1
 288 0 l 1,8,-1
 70 0 l 1,9,-1
 70 768 l 1,10,-1
 896 768 l 1,11,-1
 896 620 l 1,0,-1
EndSplineSet
EndChar

StartChar: tm_rra
Encoding: 2993 2993 75
Width: 1252
GlyphClass: 2
Flags: W
LayerCount: 2
Fore
SplineSet
1222 266 m 0,0,1
 1222 2 1222 2 1006 -146 c 0,2,3
 836 -264 836 -264 644 -264 c 2,4,-1
 38 -264 l 1,5,-1
 38 -122 l 1,6,-1
 616 -122 l 2,7,8
 764 -122 764 -122 873 -12 c 128,-1,9
 982 98 982 98 982 248 c 0,10,11
 982 390 982 390 888 494 c 128,-1,12
 794 598 794 598 668 616 c 1,13,-1
 668 0 l 1,14,-1
 426 0 l 1,15,-1
 426 484 l 2,16,17
 426 568 426 568 412 596 c 0,18,19
 392 638 392 638 324 638 c 0,20,21
 226 638 226 638 226 514 c 2,22,-1
 226 0 l 1,23,-1
 70 0 l 1,24,-1
 70 472 l 2,25,26
 70 666 70 666 164 734 c 0,27,28
 216 772 216 772 328 772 c 0,29,30
 526 772 526 772 580 708 c 1,31,32
 606 766 606 766 768 766 c 0,33,34
 886 766 886 766 1028 658 c 0,35,36
 1222 512 1222 512 1222 266 c 0,0,1
EndSplineSet
EndChar

StartChar: tm_la
Encoding: 2994 2994 76
Width: 1432
GlyphClass: 2
Flags: W
LayerCount: 2
Fore
SplineSet
1402 412 m 0,0,1
 1402 222 1402 222 1290 112 c 0,2,3
 1186 8 1186 8 1016 8 c 0,4,5
 858 8 858 8 769 87 c 128,-1,6
 680 166 680 166 680 302 c 0,7,8
 680 426 680 426 614 492 c 0,9,10
 554 550 554 550 462 550 c 256,11,12
 370 550 370 550 306 500 c 0,13,14
 232 442 232 442 216 332 c 1,15,16
 256 374 256 374 272 386 c 0,17,18
 320 420 320 420 388 420 c 0,19,20
 478 420 478 420 537 360 c 128,-1,21
 596 300 596 300 596 210 c 0,22,23
 596 -2 596 -2 334 -2 c 0,24,25
 210 -2 210 -2 122 84 c 0,26,27
 28 178 28 178 28 326 c 0,28,29
 28 490 28 490 178 627 c 128,-1,30
 328 764 328 764 524 764 c 0,31,32
 708 764 708 764 840 618 c 0,33,34
 952 498 952 498 952 394 c 0,35,36
 952 168 952 168 1104 168 c 0,37,38
 1154 168 1154 168 1198 231 c 128,-1,39
 1242 294 1242 294 1242 384 c 0,40,41
 1242 496 1242 496 1174 566 c 128,-1,42
 1106 636 1106 636 1008 636 c 1,43,-1
 1008 752 l 1,44,45
 1036 762 1036 762 1072 762 c 0,46,47
 1188 762 1188 762 1288 674 c 0,48,49
 1402 570 1402 570 1402 412 c 0,0,1
404 154 m 0,50,51
 404 224 404 224 334 224 c 0,52,53
 270 224 270 224 270 154 c 0,54,55
 270 128 270 128 291 110 c 128,-1,56
 312 92 312 92 340 92 c 0,57,58
 364 92 364 92 384 110 c 128,-1,59
 404 128 404 128 404 154 c 0,50,51
EndSplineSet
EndChar

StartChar: tm_lla
Encoding: 2995 2995 77
Width: 1648
GlyphClass: 2
Flags: W
LayerCount: 2
Fore
SplineSet
1634 616 m 1,0,-1
 1370 616 l 1,1,-1
 1370 0 l 1,2,-1
 1118 0 l 1,3,-1
 1118 614 l 1,4,-1
 944 614 l 1,5,-1
 944 0 l 1,6,-1
 698 0 l 1,7,-1
 698 440 l 2,8,9
 698 530 698 530 626 588 c 128,-1,10
 554 646 554 646 448 646 c 0,11,12
 338 646 338 646 262 550 c 0,13,14
 196 466 196 466 196 378 c 0,15,16
 196 356 196 356 202 340 c 1,17,18
 278 482 278 482 422 482 c 0,19,20
 514 482 514 482 577 411 c 128,-1,21
 640 340 640 340 640 246 c 0,22,23
 640 14 640 14 370 14 c 0,24,25
 260 14 260 14 154 114 c 0,26,27
 30 230 30 230 30 404 c 256,28,29
 30 578 30 578 160 680 c 0,30,31
 280 774 280 774 462 774 c 0,32,33
 712 774 712 774 820 682 c 1,34,-1
 820 768 l 1,35,-1
 1634 768 l 1,36,-1
 1634 616 l 1,0,-1
442 218 m 0,37,38
 442 294 442 294 370 294 c 0,39,40
 292 294 292 294 292 218 c 0,41,42
 292 140 292 140 358 140 c 0,43,44
 392 140 392 140 417 162 c 128,-1,45
 442 184 442 184 442 218 c 0,37,38
EndSplineSet
EndChar

StartChar: tm_llla
Encoding: 2996 2996 78
Width: 1190
GlyphClass: 2
Flags: W
LayerCount: 2
Fore
SplineSet
1160 390 m 0,0,1
 1160 202 1160 202 1055 110 c 128,-1,2
 950 18 950 18 728 4 c 1,3,4
 728 -48 728 -48 794 -96 c 0,5,6
 834 -122 834 -122 874 -148 c 1,7,-1
 768 -328 l 1,8,9
 738 -328 738 -328 682 -302 c 128,-1,10
 626 -276 626 -276 622 -252 c 1,11,12
 454 -396 454 -396 250 -396 c 0,13,14
 158 -396 158 -396 60 -366 c 1,15,-1
 60 -224 l 1,16,17
 178 -270 178 -270 280 -270 c 0,18,19
 446 -270 446 -270 526 -158 c 1,20,21
 502 -146 502 -146 482 -93 c 128,-1,22
 462 -40 462 -40 460 0 c 1,23,-1
 70 0 l 1,24,-1
 70 770 l 1,25,-1
 304 770 l 1,26,-1
 304 170 l 1,27,-1
 454 170 l 1,28,-1
 454 494 l 2,29,30
 454 590 454 590 538 670 c 0,31,32
 638 766 638 766 796 766 c 0,33,34
 964 766 964 766 1066 656 c 0,35,36
 1160 550 1160 550 1160 390 c 0,0,1
978 344 m 0,37,38
 978 414 978 414 939 461 c 128,-1,39
 900 508 900 508 838 508 c 0,40,41
 704 508 704 508 704 386 c 2,42,-1
 704 170 l 1,43,-1
 822 170 l 2,44,45
 892 170 892 170 935 220 c 128,-1,46
 978 270 978 270 978 344 c 0,37,38
EndSplineSet
EndChar

StartChar: tm_va
Encoding: 2997 2997 79
Width: 1496
GlyphClass: 2
Flags: W
LayerCount: 2
Fore
SplineSet
1426 0 m 1,0,-1
 630 0 l 1,1,-1
 630 122 l 1,2,3
 752 222 752 222 752 350 c 0,4,5
 752 450 752 450 684 532 c 0,6,7
 604 630 604 630 464 630 c 0,8,9
 338 630 338 630 250 534 c 0,10,11
 172 448 172 448 172 344 c 0,12,13
 172 312 172 312 182 284 c 1,14,15
 196 374 196 374 268 426 c 0,16,17
 334 476 334 476 424 476 c 0,18,19
 510 476 510 476 576 415 c 128,-1,20
 642 354 642 354 642 274 c 0,21,22
 642 176 642 176 578 104 c 0,23,24
 502 18 502 18 376 18 c 0,25,26
 238 18 238 18 134 121 c 128,-1,27
 30 224 30 224 30 382 c 0,28,29
 30 562 30 562 151 669 c 128,-1,30
 272 776 272 776 466 776 c 0,31,32
 682 776 682 776 830 678 c 0,33,34
 982 574 982 574 982 412 c 0,35,36
 982 288 982 288 924 202 c 1,37,38
 892 170 892 170 862 136 c 1,39,-1
 1158 136 l 1,40,-1
 1158 768 l 1,41,-1
 1426 768 l 1,42,-1
 1426 0 l 1,0,-1
412 196 m 0,43,44
 412 254 412 254 356 254 c 0,45,46
 294 254 294 254 294 200 c 0,47,48
 294 174 294 174 311 155 c 128,-1,49
 328 136 328 136 352 136 c 0,50,51
 412 136 412 136 412 196 c 0,43,44
EndSplineSet
EndChar

StartChar: tm_ssa
Encoding: 2999 2999 80
Width: 1708
GlyphClass: 2
Flags: W
LayerCount: 2
Fore
SplineSet
1694 0 m 1,0,-1
 1362 0 l 1,1,-1
 1268 -208 l 1,2,-1
 1112 -208 l 1,3,-1
 1214 0 l 1,4,-1
 630 0 l 1,5,-1
 630 120 l 1,6,7
 708 210 708 210 708 342 c 0,8,9
 708 458 708 458 622 542 c 0,10,11
 544 616 544 616 454 616 c 0,12,13
 348 616 348 616 266 548 c 0,14,15
 176 474 176 474 164 358 c 1,16,17
 216 428 216 428 255 451 c 128,-1,18
 294 474 294 474 368 474 c 0,19,20
 460 474 460 474 538 409 c 128,-1,21
 616 344 616 344 616 258 c 0,22,23
 616 156 616 156 550 82 c 0,24,25
 478 6 478 6 370 6 c 0,26,27
 232 6 232 6 130 100 c 128,-1,28
 28 194 28 194 28 338 c 0,29,30
 28 512 28 512 144 634 c 0,31,32
 274 770 274 770 494 770 c 0,33,34
 724 770 724 770 850 620 c 0,35,36
 948 504 948 504 948 366 c 0,37,38
 948 280 948 280 910 212 c 0,39,40
 890 178 890 178 868 144 c 1,41,-1
 1286 144 l 1,42,-1
 1316 196 l 1,43,44
 1210 196 1210 196 1137 270 c 128,-1,45
 1064 344 1064 344 1064 448 c 0,46,47
 1064 550 1064 550 1143 624 c 128,-1,48
 1222 698 1222 698 1322 698 c 0,49,50
 1436 698 1436 698 1512 622 c 0,51,52
 1582 550 1582 550 1582 460 c 0,53,54
 1582 266 1582 266 1436 144 c 1,55,-1
 1694 144 l 1,56,-1
 1694 0 l 1,0,-1
1448 422 m 0,57,58
 1448 444 1448 444 1426 465 c 128,-1,59
 1404 486 1404 486 1380 486 c 0,60,61
 1312 486 1312 486 1312 426 c 0,62,63
 1312 354 1312 354 1380 354 c 256,64,65
 1448 354 1448 354 1448 422 c 0,57,58
392 228 m 0,66,67
 392 292 392 292 334 292 c 0,68,69
 310 292 310 292 283 272 c 128,-1,70
 256 252 256 252 256 222 c 0,71,72
 256 154 256 154 328 154 c 0,73,74
 392 154 392 154 392 228 c 0,66,67
EndSplineSet
EndChar

StartChar: tm_sa
Encoding: 3000 3000 81
Width: 1868
GlyphClass: 2
Flags: W
LayerCount: 2
Fore
SplineSet
1838 388 m 256,0,1
 1838 236 1838 236 1717 121 c 128,-1,2
 1596 6 1596 6 1438 6 c 0,3,4
 1314 6 1314 6 1216 78 c 0,5,6
 1124 144 1124 144 1092 240 c 0,7,8
 1082 270 1082 270 1075 374 c 128,-1,9
 1068 478 1068 478 1054 522 c 0,10,11
 1032 592 1032 592 982 592 c 0,12,13
 938 592 938 592 938 524 c 2,14,-1
 938 0 l 1,15,-1
 682 0 l 1,16,-1
 682 348 l 2,17,18
 682 450 682 450 606 522 c 128,-1,19
 530 594 530 594 436 594 c 0,20,21
 340 594 340 594 268 526 c 0,22,23
 186 450 186 450 186 330 c 0,24,25
 186 298 186 298 192 262 c 1,26,27
 196 350 196 350 260 411 c 128,-1,28
 324 472 324 472 410 472 c 256,29,30
 496 472 496 472 561 406 c 128,-1,31
 626 340 626 340 626 250 c 256,32,33
 626 160 626 160 552 90 c 128,-1,34
 478 20 478 20 386 20 c 0,35,36
 256 20 256 20 154 98 c 0,37,38
 30 194 30 194 30 372 c 0,39,40
 30 552 30 552 160 666 c 0,41,42
 284 774 284 774 458 774 c 0,43,44
 578 774 578 774 676 728 c 1,45,46
 724 700 724 700 770 672 c 1,47,48
 806 702 806 702 842 732 c 1,49,50
 914 778 914 778 1012 778 c 0,51,52
 1120 778 1120 778 1206 706 c 0,53,54
 1284 642 1284 642 1308 556 c 0,55,56
 1318 522 1318 522 1326 436 c 0,57,58
 1334 342 1334 342 1338 322 c 0,59,60
 1348 276 1348 276 1390 243 c 128,-1,61
 1432 210 1432 210 1482 210 c 0,62,63
 1550 210 1550 210 1606 258 c 0,64,65
 1678 318 1678 318 1678 430 c 0,66,67
 1678 520 1678 520 1612 579 c 128,-1,68
 1546 638 1546 638 1456 638 c 0,69,70
 1418 638 1418 638 1382 628 c 1,71,-1
 1376 772 l 1,72,73
 1410 778 1410 778 1444 778 c 0,74,75
 1614 778 1614 778 1730 654 c 0,76,77
 1838 540 1838 540 1838 388 c 256,0,1
430 216 m 0,78,79
 430 286 430 286 366 286 c 0,80,81
 336 286 336 286 316 265 c 128,-1,82
 296 244 296 244 296 216 c 0,83,84
 296 148 296 148 366 148 c 0,85,86
 430 148 430 148 430 216 c 0,78,79
EndSplineSet
EndChar

StartChar: tm_ha
Encoding: 3001 3001 82
Width: 2122
GlyphClass: 2
Flags: W
LayerCount: 2
Fore
SplineSet
2092 280 m 0,0,1
 2092 46 2092 46 1928 -80 c 0,2,3
 1782 -190 1782 -190 1552 -190 c 2,4,-1
 162 -190 l 1,5,-1
 162 -44 l 1,6,-1
 1560 -44 l 2,7,8
 1680 -44 1680 -44 1772 62 c 0,9,10
 1858 160 1858 160 1858 274 c 0,11,12
 1858 390 1858 390 1780 490 c 0,13,14
 1706 580 1706 580 1640 580 c 0,15,16
 1588 580 1588 580 1588 532 c 2,17,-1
 1588 0 l 1,18,-1
 1306 0 l 1,19,-1
 1306 532 l 2,20,21
 1306 612 1306 612 1294 632 c 0,22,23
 1288 640 1288 640 1260 640 c 0,24,25
 1188 640 1188 640 1188 534 c 2,26,-1
 1188 0 l 1,27,-1
 632 0 l 1,28,-1
 632 136 l 1,29,30
 682 192 682 192 696 232 c 0,31,32
 706 266 706 266 706 350 c 0,33,34
 706 436 706 436 654 514 c 0,35,36
 586 614 586 614 466 614 c 0,37,38
 340 614 340 614 260 524 c 0,39,40
 196 452 196 452 194 376 c 1,41,42
 286 478 286 478 412 478 c 0,43,44
 502 478 502 478 571 406 c 128,-1,45
 640 334 640 334 640 238 c 0,46,47
 640 138 640 138 576 76 c 0,48,49
 506 6 506 6 382 6 c 0,50,51
 246 6 246 6 138 116 c 128,-1,52
 30 226 30 226 30 384 c 0,53,54
 30 556 30 556 174 666 c 0,55,56
 308 770 308 770 494 770 c 0,57,58
 688 770 688 770 820 670 c 0,59,60
 964 558 964 558 964 372 c 0,61,62
 964 290 964 290 930 216 c 0,63,64
 900 156 900 156 882 148 c 1,65,-1
 1036 148 l 1,66,-1
 1036 574 l 2,67,68
 1036 654 1036 654 1099 710 c 128,-1,69
 1162 766 1162 766 1250 766 c 0,70,71
 1324 766 1324 766 1378 730 c 0,72,73
 1422 700 1422 700 1434 666 c 1,74,75
 1464 696 1464 696 1494 726 c 1,76,77
 1548 764 1548 764 1642 764 c 0,78,79
 1812 764 1812 764 1942 646 c 0,80,81
 2092 510 2092 510 2092 280 c 0,0,1
432 208 m 0,82,83
 432 270 432 270 368 270 c 0,84,85
 298 270 298 270 298 208 c 0,86,87
 298 148 298 148 370 148 c 0,88,89
 432 148 432 148 432 208 c 0,82,83
EndSplineSet
EndChar

StartChar: tm_aakaar
Encoding: 3006 3006 83
Width: 904
GlyphClass: 2
Flags: W
LayerCount: 2
Fore
SplineSet
888 620 m 1,0,-1
 690 620 l 1,1,-1
 690 -4 l 1,2,-1
 464 -4 l 1,3,-1
 464 622 l 1,4,-1
 284 622 l 1,5,-1
 284 0 l 1,6,-1
 68 0 l 1,7,-1
 68 768 l 1,8,-1
 888 768 l 1,9,-1
 888 620 l 1,0,-1
EndSplineSet
EndChar

StartChar: tm_ikaar
Encoding: 3007 3007 84
Width: 836
GlyphClass: 2
Flags: W
LayerCount: 2
Fore
SplineSet
1194 406 m 1,0,-1
 1026 406 l 1,1,-1
 1026 806 l 2,2,3
 1026 872 1026 872 994 914 c 0,4,5
 954 966 954 966 878 966 c 0,6,7
 796 966 796 966 758 907 c 128,-1,8
 720 848 720 848 730 770 c 1,9,-1
 564 768 l 2,10,11
 564 764 564 764 552 803 c 128,-1,12
 540 842 540 842 540 898 c 0,13,14
 540 1024 540 1024 618 1122 c 0,15,16
 716 1244 716 1244 888 1244 c 0,17,18
 1034 1244 1034 1244 1118 1146 c 0,19,20
 1194 1056 1194 1056 1194 918 c 2,21,-1
 1194 406 l 1,0,-1
EndSplineSet
EndChar

StartChar: tm_iikaar
Encoding: 3008 3008 85
Width: 890
GlyphClass: 4
Flags: W
LayerCount: 2
Fore
SplineSet
1000 1172 m 0,0,1
 1000 1096 1000 1096 938 1018 c 0,2,3
 854 912 854 912 710 912 c 0,4,5
 618 912 618 912 539 991 c 128,-1,6
 460 1070 460 1070 460 1164 c 0,7,8
 460 1184 460 1184 464 1202 c 1,9,10
 422 1182 422 1182 422 1022 c 0,11,12
 422 770 422 770 887 763 c 2,13,-1
 388 768 l 1,14,15
 280 850 280 850 280 1052 c 0,16,17
 280 1204 280 1204 390 1330 c 0,18,19
 514 1472 514 1472 706 1472 c 0,20,21
 844 1472 844 1472 928 1370 c 0,22,23
 1000 1284 1000 1284 1000 1172 c 0,0,1
756 1228 m 0,24,25
 756 1256 756 1256 735 1279 c 128,-1,26
 714 1302 714 1302 686 1302 c 0,27,28
 654 1302 654 1302 630 1281 c 128,-1,29
 606 1260 606 1260 606 1230 c 0,30,31
 606 1204 606 1204 627 1184 c 128,-1,32
 648 1164 648 1164 676 1164 c 0,33,34
 756 1164 756 1164 756 1228 c 0,24,25
EndSplineSet
EndChar

StartChar: tm_ekaar
Encoding: 3014 3014 88
Width: 1156
GlyphClass: 2
Flags: W
LayerCount: 2
Fore
SplineSet
1086 -4 m 1,0,-1
 838 -4 l 1,1,-1
 838 488 l 2,2,3
 838 648 838 648 778 746 c 0,4,5
 700 874 700 874 532 874 c 0,6,7
 422 874 422 874 336 811 c 128,-1,8
 250 748 250 748 212 650 c 1,9,10
 294 706 294 706 398 706 c 0,11,12
 544 706 544 706 651 601 c 128,-1,13
 758 496 758 496 758 352 c 0,14,15
 758 214 758 214 659 114 c 128,-1,16
 560 14 560 14 422 14 c 0,17,18
 266 14 266 14 156 124 c 0,19,20
 30 250 30 250 30 478 c 0,21,22
 30 742 30 742 190 898 c 0,23,24
 338 1044 338 1044 564 1044 c 0,25,26
 786 1044 786 1044 934 910 c 0,27,28
 1086 770 1086 770 1086 546 c 2,29,-1
 1086 -4 l 1,0,-1
526 362 m 0,30,31
 526 424 526 424 481 471 c 128,-1,32
 436 518 436 518 376 518 c 0,33,34
 318 518 318 518 282 472 c 128,-1,35
 246 426 246 426 246 368 c 0,36,37
 246 308 246 308 285 263 c 128,-1,38
 324 218 324 218 382 218 c 0,39,40
 438 218 438 218 482 261 c 128,-1,41
 526 304 526 304 526 362 c 0,30,31
EndSplineSet
EndChar

StartChar: tm_eekaar
Encoding: 3015 3015 89
Width: 1008
GlyphClass: 2
Flags: W
LayerCount: 2
Fore
SplineSet
976 272 m 0,0,1
 976 -6 976 -6 568 -6 c 0,2,3
 386 -6 386 -6 226 126 c 0,4,5
 32 288 32 288 32 560 c 0,6,7
 32 796 32 796 196 947 c 128,-1,8
 360 1098 360 1098 626 1098 c 0,9,10
 774 1098 774 1098 858 1032 c 128,-1,11
 942 966 942 966 942 850 c 0,12,13
 942 736 942 736 858 656 c 0,14,15
 780 584 780 584 688 584 c 0,16,17
 578 584 578 584 508 661 c 128,-1,18
 438 738 438 738 438 840 c 0,19,20
 438 864 438 864 442 886 c 1,21,22
 376 872 376 872 292 782 c 0,23,24
 186 668 186 668 186 536 c 0,25,26
 186 410 186 410 248 308 c 0,27,28
 318 194 318 194 440 168 c 1,29,30
 432 204 432 204 432 264 c 0,31,32
 432 382 432 382 505 463 c 128,-1,33
 578 544 578 544 688 544 c 0,34,35
 806 544 806 544 891 465 c 128,-1,36
 976 386 976 386 976 272 c 0,0,1
712 838 m 0,37,38
 712 912 712 912 630 912 c 0,39,40
 598 912 598 912 575 887 c 128,-1,41
 552 862 552 862 552 832 c 0,42,43
 552 762 552 762 634 762 c 0,44,45
 712 762 712 762 712 838 c 0,37,38
726 228 m 0,46,47
 726 262 726 262 697 290 c 128,-1,48
 668 318 668 318 636 318 c 0,49,50
 606 318 606 318 587 293 c 128,-1,51
 568 268 568 268 568 234 c 0,52,53
 568 204 568 204 588 180 c 128,-1,54
 608 156 608 156 636 156 c 0,55,56
 726 156 726 156 726 228 c 0,46,47
EndSplineSet
EndChar

StartChar: tm_aikaar
Encoding: 3016 3016 90
Width: 1736
GlyphClass: 2
Flags: W
LayerCount: 2
Fore
SplineSet
1706 410 m 0,0,1
 1706 226 1706 226 1554 110 c 0,2,3
 1410 2 1410 2 1194 -2 c 0,4,5
 1136 -6 1136 -6 1110 6 c 1,6,-1
 1124 122 l 1,7,8
 1064 88 1064 88 1006 54 c 0,9,10
 942 18 942 18 880 18 c 0,11,12
 730 18 730 18 626 124 c 1,13,14
 542 -2 542 -2 406 -2 c 0,15,16
 254 -2 254 -2 142 101 c 128,-1,17
 30 204 30 204 30 352 c 0,18,19
 30 548 30 548 154 662 c 0,20,21
 270 766 270 766 454 766 c 2,22,-1
 1294 766 l 2,23,24
 1464 766 1464 766 1580 676 c 0,25,26
 1706 576 1706 576 1706 410 c 0,0,1
638 618 m 1,27,-1
 474 618 l 2,28,29
 326 618 326 618 248 522 c 0,30,31
 184 444 184 444 184 338 c 0,32,33
 184 300 184 300 194 270 c 1,34,35
 258 466 258 466 420 466 c 0,36,37
 480 466 480 466 538 428 c 1,38,39
 550 518 550 518 638 618 c 1,27,-1
1412 412 m 0,40,41
 1412 486 1412 486 1372 544 c 0,42,43
 1318 620 1318 620 1216 620 c 0,44,45
 1174 620 1174 620 1128 608 c 1,46,47
 1216 506 1216 506 1216 376 c 0,48,49
 1216 242 1216 242 1138 140 c 1,50,51
 1152 138 1152 138 1166 138 c 0,52,53
 1264 138 1264 138 1340 230 c 0,54,55
 1412 316 1412 316 1412 412 c 0,40,41
968 340 m 0,56,57
 968 396 968 396 928 438 c 128,-1,58
 888 480 888 480 838 480 c 0,59,60
 790 480 790 480 752 427 c 128,-1,61
 714 374 714 374 714 340 c 0,62,63
 714 290 714 290 751 254 c 128,-1,64
 788 218 788 218 838 218 c 0,65,66
 892 218 892 218 930 253 c 128,-1,67
 968 288 968 288 968 340 c 0,56,57
472 198 m 256,68,69
 472 228 472 228 447 250 c 128,-1,70
 422 272 422 272 390 272 c 0,71,72
 318 272 318 272 318 206 c 0,73,74
 318 178 318 178 343 154 c 128,-1,75
 368 130 368 130 394 130 c 256,76,77
 420 130 420 130 446 149 c 128,-1,78
 472 168 472 168 472 198 c 256,68,69
EndSplineSet
EndChar

StartChar: tm_halant
Encoding: 3021 3021 94
Width: 339
GlyphClass: 4
Flags: W
LayerCount: 2
Fore
SplineSet
223 1149 m 0,0,1
 157 1149 157 1149 109.5 1196.5 c 128,-1,2
 62 1244 62 1244 62 1310 c 0,3,4
 62 1378 62 1378 109.5 1424.5 c 128,-1,5
 157 1471 157 1471 223 1471 c 0,6,7
 290 1471 290 1471 337 1424.5 c 128,-1,8
 384 1378 384 1378 384 1310 c 0,9,10
 384 1244 384 1244 337 1196.5 c 128,-1,11
 290 1149 290 1149 223 1149 c 0,0,1
EndSplineSet
EndChar

StartChar: tm_two
Encoding: 3048 3048 97
Width: 1425
GlyphClass: 2
Flags: W
LayerCount: 2
Fore
SplineSet
1244 70 m 1,0,-1
 1226 0 l 1,1,-1
 586 0 l 2,2,3
 429 0 429 0 429 106 c 0,4,5
 429 153 429 153 478 181.5 c 128,-1,6
 527 210 527 210 586 210 c 2,7,-1
 779 210 l 2,8,9
 867 210 867 210 928 271.5 c 128,-1,10
 989 333 989 333 989 420 c 0,11,12
 989 500 989 500 945 560.5 c 128,-1,13
 901 621 901 621 831 621 c 0,14,15
 793 621 793 621 744 595 c 1,16,17
 814 555 814 555 814 437 c 0,18,19
 814 382 814 382 772.5 344.5 c 128,-1,20
 731 307 731 307 675 307 c 0,21,22
 618 307 618 307 580 351 c 128,-1,23
 542 395 542 395 542 455 c 0,24,25
 542 565 542 565 646.5 632.5 c 128,-1,26
 751 700 751 700 884 700 c 0,27,28
 987 700 987 700 1058 629 c 128,-1,29
 1129 558 1129 558 1129 455 c 0,30,31
 1129 321 1129 321 1025.5 230.5 c 128,-1,32
 922 140 922 140 779 140 c 2,33,-1
 595 140 l 2,34,35
 551 140 551 140 551 106 c 0,36,37
 551 70 551 70 604 70 c 2,38,-1
 1244 70 l 1,0,-1
675 560 m 1,39,40
 621 516 621 516 621 473 c 0,41,42
 621 386 621 386 666 386 c 0,43,44
 709 386 709 386 709 473 c 0,45,46
 709 518 709 518 675 560 c 1,39,40
EndSplineSet
EndChar

StartChar: tm_three
Encoding: 3049 3049 98
Width: 1424
GlyphClass: 2
Flags: W
LayerCount: 2
Fore
SplineSet
1270 70 m 1,0,-1
 1252 0 l 1,1,-1
 640 0 l 1,2,-1
 657 70 l 1,3,-1
 780 70 l 2,4,5
 874 70 874 70 941 130.5 c 128,-1,6
 1008 191 1008 191 1008 280 c 0,7,8
 1008 317 1008 317 982.5 342.5 c 128,-1,9
 957 368 957 368 920 368 c 0,10,11
 890 368 890 368 865 341 c 128,-1,12
 840 314 840 314 833 280 c 2,13,-1
 815 193 l 1,14,-1
 675 193 l 1,15,-1
 764 630 l 1,16,-1
 571 630 l 1,17,-1
 444 0 l 1,18,-1
 378 0 l 1,19,-1
 517 700 l 1,20,-1
 1095 700 l 1,21,-1
 1077 630 l 1,22,-1
 902 630 l 1,23,-1
 859 403 l 1,24,25
 918 455 918 455 990 455 c 0,26,27
 1057 455 1057 455 1102.5 403.5 c 128,-1,28
 1148 352 1148 352 1148 280 c 0,29,30
 1148 209 1148 209 1090 151 c 128,-1,31
 1032 93 1032 93 947 70 c 1,32,-1
 1270 70 l 1,0,-1
EndSplineSet
EndChar

StartChar: tm_four
Encoding: 3050 3050 99
Width: 1427
GlyphClass: 2
Flags: W
LayerCount: 2
Fore
SplineSet
915 316 m 1,0,-1
 644 316 l 2,1,2
 601 316 601 316 570.5 291 c 128,-1,3
 540 266 540 266 540 228 c 0,4,5
 540 158 540 158 609.5 114 c 128,-1,6
 679 70 679 70 766 70 c 0,7,8
 811 70 811 70 844 99.5 c 128,-1,9
 877 129 877 129 887 175 c 2,10,-1
 915 316 l 1,0,-1
979 630 m 1,11,-1
 784 630 l 1,12,-1
 735 386 l 1,13,-1
 930 386 l 1,14,-1
 979 630 l 1,11,-1
1042 245 m 2,15,16
 1017 125 1017 125 940 62.5 c 128,-1,17
 863 0 863 0 766 0 c 0,18,19
 651 0 651 0 559.5 64 c 128,-1,20
 468 128 468 128 468 228 c 0,21,22
 468 294 468 294 520.5 340 c 128,-1,23
 573 386 573 386 644 386 c 2,24,-1
 669 386 l 1,25,-1
 731 700 l 1,26,-1
 1344 700 l 1,27,-1
 1329 630 l 1,28,-1
 1118 630 l 1,29,-1
 1068 386 l 1,30,-1
 1232 386 l 1,31,-1
 1248 464 l 1,32,-1
 1309 464 l 1,33,-1
 1279 316 l 1,34,-1
 1055 316 l 1,35,-1
 1042 245 l 2,15,16
EndSplineSet
EndChar

StartChar: tm_five
Encoding: 3051 3051 100
Width: 1424
GlyphClass: 2
Flags: W
LayerCount: 2
Fore
SplineSet
1412 517 m 1,0,-1
 1359 526 l 1,1,2
 1369 563 1369 563 1369 598 c 0,3,4
 1369 723 1369 723 1253.5 825.5 c 128,-1,5
 1138 928 1138 928 965 928 c 0,6,7
 728 928 728 928 575.5 716 c 128,-1,8
 423 504 423 504 423 228 c 0,9,10
 423 -43 423 -43 515 -179.5 c 128,-1,11
 607 -316 607 -316 790 -316 c 0,12,13
 979 -316 979 -316 1103.5 -163.5 c 128,-1,14
 1228 -11 1228 -11 1228 193 c 0,15,16
 1228 257 1228 257 1200 304.5 c 128,-1,17
 1172 352 1172 352 1126 352 c 0,18,19
 1099 352 1099 352 1072.5 336.5 c 128,-1,20
 1046 321 1046 321 1039 298 c 2,21,-1
 980 0 l 1,22,-1
 840 0 l 1,23,-1
 965 630 l 1,24,-1
 759 630 l 1,25,-1
 634 0 l 1,26,-1
 566 0 l 1,27,-1
 706 700 l 1,28,-1
 1237 700 l 1,29,-1
 1219 630 l 1,30,-1
 1105 630 l 1,31,-1
 1057 386 l 1,32,33
 1101 437 1101 437 1171 437 c 0,34,35
 1261 437 1261 437 1314.5 368.5 c 128,-1,36
 1368 300 1368 300 1368 193 c 0,37,38
 1368 -47 1368 -47 1202.5 -216 c 128,-1,39
 1037 -385 1037 -385 799 -385 c 0,40,41
 589 -385 589 -385 471.5 -223 c 128,-1,42
 354 -61 354 -61 354 193 c 0,43,44
 354 513 354 513 519 764 c 128,-1,45
 684 1015 684 1015 948 1015 c 0,46,47
 1152 1015 1152 1015 1288.5 889.5 c 128,-1,48
 1425 764 1425 764 1425 613 c 0,49,50
 1425 566 1425 566 1412 517 c 1,0,-1
EndSplineSet
EndChar

StartChar: tm_six
Encoding: 3052 3052 101
Width: 1424
GlyphClass: 2
Flags: W
LayerCount: 2
Fore
SplineSet
784 316 m 1,0,-1
 513 316 l 2,1,2
 469 316 469 316 438 291 c 128,-1,3
 407 266 407 266 407 228 c 0,4,5
 407 158 407 158 477 114 c 128,-1,6
 547 70 547 70 635 70 c 0,7,8
 680 70 680 70 713 99.5 c 128,-1,9
 746 129 746 129 756 175 c 2,10,-1
 784 316 l 1,0,-1
846 630 m 1,11,-1
 653 630 l 1,12,-1
 603 386 l 1,13,-1
 798 386 l 1,14,-1
 846 630 l 1,11,-1
910 245 m 2,15,16
 884 125 884 125 808 62.5 c 128,-1,17
 732 0 732 0 635 0 c 0,18,19
 518 0 518 0 428 64 c 128,-1,20
 338 128 338 128 338 228 c 0,21,22
 338 294 338 294 389.5 340 c 128,-1,23
 441 386 441 386 513 386 c 2,24,-1
 537 386 l 1,25,-1
 600 700 l 1,26,-1
 1229 700 l 1,27,-1
 1213 630 l 1,28,-1
 988 630 l 1,29,-1
 938 386 l 1,30,-1
 1422 386 l 1,31,-1
 1410 316 l 1,32,-1
 1353 316 l 1,33,-1
 1291 0 l 1,34,-1
 1151 0 l 1,35,-1
 1213 316 l 1,36,-1
 1116 316 l 1,37,-1
 1055 0 l 1,38,-1
 967 0 l 1,39,-1
 1028 316 l 1,40,-1
 924 316 l 1,41,-1
 910 245 l 2,15,16
EndSplineSet
EndChar

StartChar: tm_seven
Encoding: 3053 3053 102
Width: 1425
GlyphClass: 2
Flags: W
LayerCount: 2
Fore
SplineSet
643 88 m 1,0,1
 706 88 706 88 753 128 c 128,-1,2
 800 168 800 168 800 228 c 0,3,4
 800 269 800 269 781 301 c 128,-1,5
 762 333 762 333 729 333 c 0,6,7
 684 333 684 333 654.5 296.5 c 128,-1,8
 625 260 625 260 625 210 c 0,9,10
 625 135 625 135 643 88 c 1,0,1
1042 0 m 1,11,-1
 1167 630 l 1,12,-1
 852 630 l 2,13,14
 704 630 704 630 594.5 540.5 c 128,-1,15
 485 451 485 451 485 316 c 0,16,17
 485 247 485 247 507 194.5 c 128,-1,18
 529 142 529 142 572 106 c 1,19,20
 555 135 555 135 555 228 c 256,21,22
 555 321 555 321 614.5 388 c 128,-1,23
 674 455 674 455 765 455 c 0,24,25
 837 455 837 455 884 398 c 128,-1,26
 931 341 931 341 931 263 c 0,27,28
 931 155 931 155 863 77.5 c 128,-1,29
 795 0 795 0 695 0 c 0,30,31
 576 0 576 0 495.5 94 c 128,-1,32
 415 188 415 188 415 316 c 0,33,34
 415 481 415 481 545.5 590.5 c 128,-1,35
 676 700 676 700 852 700 c 2,36,-1
 1430 700 l 1,37,-1
 1412 630 l 1,38,-1
 1307 630 l 1,39,-1
 1181 0 l 1,40,-1
 1042 0 l 1,11,-1
EndSplineSet
EndChar

StartChar: tm_eight
Encoding: 3054 3054 103
Width: 1427
GlyphClass: 2
Flags: W
LayerCount: 2
Fore
SplineSet
849 629 m 1,0,1
 745 611 745 611 670 548.5 c 128,-1,2
 595 486 595 486 595 402 c 0,3,4
 595 338 595 338 638.5 291 c 128,-1,5
 682 244 682 244 744 244 c 0,6,7
 817 244 817 244 864 307.5 c 128,-1,8
 911 371 911 371 911 454 c 0,9,10
 911 580 911 580 849 629 c 1,0,1
1024 140 m 1,11,-1
 411 140 l 2,12,13
 381 140 381 140 357 125 c 128,-1,14
 333 110 333 110 333 87 c 0,15,16
 333 43 333 43 412 -13.5 c 128,-1,17
 491 -70 491 -70 639 -70 c 0,18,19
 743 -70 743 -70 839.5 -18 c 128,-1,20
 936 34 936 34 1024 140 c 1,11,-1
1414 -245 m 1,21,-1
 1269 -245 l 1,22,-1
 1348 140 l 1,23,-1
 1164 140 l 1,24,25
 1051 4 1051 4 915 -63.5 c 128,-1,26
 779 -131 779 -131 621 -131 c 0,27,28
 421 -131 421 -131 311.5 -52.5 c 128,-1,29
 202 26 202 26 202 123 c 0,30,31
 202 160 202 160 233 184.5 c 128,-1,32
 264 209 264 209 307 209 c 2,33,-1
 666 209 l 1,34,35
 604 231 604 231 565 284.5 c 128,-1,36
 526 338 526 338 526 402 c 0,37,38
 526 534 526 534 652 617 c 128,-1,39
 778 700 778 700 937 700 c 0,40,41
 1069 700 1069 700 1169 620.5 c 128,-1,42
 1269 541 1269 541 1269 420 c 0,43,44
 1269 306 1269 306 1213 209 c 1,45,-1
 1364 209 l 1,46,-1
 1463 700 l 1,47,-1
 1603 700 l 1,48,-1
 1414 -245 l 1,21,-1
989 620 m 1,49,50
 1042 530 1042 530 1042 411 c 0,51,52
 1042 267 1042 267 919 209 c 1,53,-1
 1077 209 l 1,54,55
 1146 308 1146 308 1146 402 c 0,56,57
 1146 486 1146 486 1103 553 c 128,-1,58
 1060 620 1060 620 989 620 c 1,49,50
EndSplineSet
EndChar

StartChar: tm_nine
Encoding: 3055 3055 104
Width: 1427
GlyphClass: 2
Flags: W
LayerCount: 2
Fore
SplineSet
692 316 m 1,0,-1
 422 316 l 2,1,2
 379 316 379 316 348 291 c 128,-1,3
 317 266 317 266 317 228 c 0,4,5
 317 158 317 158 387 114 c 128,-1,6
 457 70 457 70 544 70 c 0,7,8
 589 70 589 70 622 99.5 c 128,-1,9
 655 129 655 129 665 175 c 2,10,-1
 692 316 l 1,0,-1
756 630 m 1,11,-1
 562 630 l 1,12,-1
 513 386 l 1,13,-1
 707 386 l 1,14,-1
 756 630 l 1,11,-1
1157 175 m 0,15,16
 1157 259 1157 259 1052 298 c 1,17,18
 982 240 982 240 982 158 c 0,19,20
 982 121 982 121 1007.5 95.5 c 128,-1,21
 1033 70 1033 70 1068 70 c 0,22,23
 1107 70 1107 70 1132 101.5 c 128,-1,24
 1157 133 1157 133 1157 175 c 0,15,16
1297 0 m 1,25,26
 1375 93 1375 93 1375 193 c 0,27,28
 1375 263 1375 263 1332.5 315.5 c 128,-1,29
 1290 368 1290 368 1226 368 c 0,30,31
 1163 368 1163 368 1113 342 c 1,32,33
 1167 322 1167 322 1201 276.5 c 128,-1,34
 1235 231 1235 231 1235 175 c 0,35,36
 1235 104 1235 104 1187 52 c 128,-1,37
 1139 0 1139 0 1068 0 c 0,38,39
 1005 0 1005 0 958.5 46.5 c 128,-1,40
 912 93 912 93 912 158 c 0,41,42
 912 257 912 257 982 316 c 1,43,-1
 833 316 l 1,44,-1
 819 245 l 2,45,46
 795 125 795 125 718.5 62.5 c 128,-1,47
 642 0 642 0 544 0 c 0,48,49
 428 0 428 0 337 64 c 128,-1,50
 246 128 246 128 246 228 c 0,51,52
 246 294 246 294 299 340 c 128,-1,53
 352 386 352 386 422 386 c 2,54,-1
 446 386 l 1,55,-1
 508 700 l 1,56,-1
 1122 700 l 1,57,-1
 1104 630 l 1,58,-1
 896 630 l 1,59,-1
 847 386 l 1,60,-1
 947 386 l 2,61,62
 1014 386 1014 386 1052 368 c 1,63,64
 1111 420 1111 420 1226 420 c 0,65,66
 1327 420 1327 420 1399.5 354.5 c 128,-1,67
 1472 289 1472 289 1472 193 c 0,68,69
 1472 109 1472 109 1410 0 c 1,70,-1
 1297 0 l 1,25,26
EndSplineSet
EndChar

StartChar: tm_ten
Encoding: 3056 3056 105
Width: 1260
GlyphClass: 2
Flags: W
LayerCount: 2
Fore
SplineSet
597 149 m 1,0,1
 558 74 558 74 508 37 c 128,-1,2
 458 0 458 0 395 0 c 0,3,4
 302 0 302 0 242 64 c 128,-1,5
 182 128 182 128 182 200 c 0,6,7
 182 224 182 224 186 244 c 2,8,-1
 279 700 l 1,9,-1
 419 700 l 1,10,-1
 325 244 l 2,11,12
 320 223 320 223 320 205 c 0,13,14
 320 155 320 155 346.5 112.5 c 128,-1,15
 373 70 373 70 413 70 c 0,16,17
 472 70 472 70 525 146 c 128,-1,18
 578 222 578 222 606 359 c 2,19,-1
 675 700 l 1,20,-1
 815 700 l 1,21,-1
 746 351 l 2,22,23
 728 262 728 262 728 204 c 0,24,25
 728 150 728 150 760.5 110 c 128,-1,26
 793 70 793 70 841 70 c 0,27,28
 957 70 957 70 1026 204 c 128,-1,29
 1095 338 1095 338 1095 500 c 0,30,31
 1095 691 1095 691 995.5 840 c 128,-1,32
 896 989 896 989 737 989 c 1,33,-1
 755 1042 l 1,34,35
 960 1042 960 1042 1097.5 880.5 c 128,-1,36
 1235 719 1235 719 1235 500 c 0,37,38
 1235 300 1235 300 1118.5 150 c 128,-1,39
 1002 0 1002 0 824 0 c 0,40,41
 739 0 739 0 673.5 40.5 c 128,-1,42
 608 81 608 81 597 149 c 1,0,1
EndSplineSet
EndChar

StartChar: tm_hundred
Encoding: 3057 3057 106
Width: 1166
GlyphClass: 2
Flags: W
LayerCount: 2
Fore
SplineSet
1284 700 m 1,0,-1
 1267 629 l 1,1,-1
 1117 629 l 1,2,-1
 991 0 l 1,3,-1
 851 0 l 1,4,-1
 977 629 l 1,5,-1
 770 629 l 1,6,-1
 644 0 l 1,7,-1
 504 0 l 1,8,-1
 599 472 l 2,9,10
 606 507 606 507 606 534 c 0,11,12
 606 579 606 579 589 613 c 128,-1,13
 572 647 572 647 540 647 c 0,14,15
 483 647 483 647 440 595.5 c 128,-1,16
 397 544 397 544 382 472 c 2,17,-1
 285 0 l 1,18,-1
 146 0 l 1,19,-1
 242 472 l 2,20,21
 263 577 263 577 336.5 647 c 128,-1,22
 410 717 410 717 503 717 c 0,23,24
 567 717 567 717 614 679.5 c 128,-1,25
 661 642 661 642 661 585 c 1,26,-1
 685 700 l 1,27,-1
 1284 700 l 1,0,-1
EndSplineSet
EndChar

StartChar: tm_thousand
Encoding: 3058 3058 107
Width: 1256
GlyphClass: 2
Flags: W
LayerCount: 2
Fore
SplineSet
551 316 m 1,0,-1
 280 316 l 2,1,2
 237 316 237 316 206 291 c 128,-1,3
 175 266 175 266 175 228 c 0,4,5
 175 158 175 158 245.5 114 c 128,-1,6
 316 70 316 70 402 70 c 0,7,8
 447 70 447 70 480 99.5 c 128,-1,9
 513 129 513 129 523 175 c 2,10,-1
 551 316 l 1,0,-1
615 630 m 1,11,-1
 420 630 l 1,12,-1
 371 386 l 1,13,-1
 565 386 l 1,14,-1
 615 630 l 1,11,-1
677 245 m 2,15,16
 653 125 653 125 576 62.5 c 128,-1,17
 499 0 499 0 402 0 c 0,18,19
 285 0 285 0 195 64 c 128,-1,20
 105 128 105 128 105 228 c 0,21,22
 105 294 105 294 156.5 340 c 128,-1,23
 208 386 208 386 280 386 c 2,24,-1
 304 386 l 1,25,-1
 367 700 l 1,26,-1
 997 700 l 1,27,-1
 983 630 l 1,28,-1
 755 630 l 1,29,-1
 705 386 l 1,30,-1
 1120 386 l 1,31,-1
 1105 316 l 1,32,-1
 971 316 l 1,33,-1
 945 175 l 1,34,35
 990 228 990 228 1067 228 c 0,36,37
 1134 228 1134 228 1179.5 176 c 128,-1,38
 1225 124 1225 124 1225 53 c 0,39,40
 1225 -78 1225 -78 1108 -161 c 128,-1,41
 991 -244 991 -244 840 -244 c 0,42,43
 740 -244 740 -244 542 -205 c 0,44,45
 346 -167 346 -167 244 -167 c 0,46,47
 181 -167 181 -167 134 -206.5 c 128,-1,48
 87 -246 87 -246 87 -307 c 0,49,50
 87 -384 87 -384 158 -411 c 1,51,-1
 149 -445 l 1,52,53
 82 -433 82 -433 36.5 -387 c 128,-1,54
 -9 -341 -9 -341 -9 -280 c 0,55,56
 -9 -205 -9 -205 70.5 -159.5 c 128,-1,57
 150 -114 150 -114 244 -114 c 0,58,59
 346 -114 346 -114 542 -153 c 0,60,61
 740 -192 740 -192 840 -192 c 0,62,63
 938 -192 938 -192 1011.5 -135 c 128,-1,64
 1085 -78 1085 -78 1085 9 c 0,65,66
 1085 61 1085 61 1061 100.5 c 128,-1,67
 1037 140 1037 140 997 140 c 256,68,69
 957 140 957 140 927 88 c 1,70,-1
 910 0 l 1,71,-1
 769 0 l 1,72,-1
 831 316 l 1,73,-1
 691 316 l 1,74,-1
 677 245 l 2,15,16
EndSplineSet
EndChar

StartChar: zerowidthnonjoiner
Encoding: 8204 8204 108
Width: 0
GlyphClass: 2
Flags: W
LayerCount: 2
Fore
SplineSet
315 1225 m 1,0,-1
 -34 -516 l 1,1,-1
 -103 -516 l 1,2,-1
 244 1225 l 1,3,-1
 315 1225 l 1,0,-1
EndSplineSet
EndChar

StartChar: zerowidthjoiner
Encoding: 8205 8205 109
Width: 0
GlyphClass: 2
Flags: W
LayerCount: 2
Fore
SplineSet
415 997 m 1,0,-1
 363 953 l 1,1,-1
 270 1073 l 1,2,-1
 -24 -441 l 1,3,-1
 -87 -441 l 1,4,-1
 206 1073 l 1,5,-1
 65 953 l 1,6,-1
 32 997 l 1,7,-1
 210 1145 l 1,8,-1
 89 1292 l 1,9,-1
 140 1334 l 1,10,-1
 260 1185 l 1,11,-1
 437 1334 l 1,12,-1
 472 1292 l 1,13,-1
 294 1145 l 1,14,-1
 415 997 l 1,0,-1
EndSplineSet
EndChar

StartChar: u2013
Encoding: 8211 8211 110
Width: 722
GlyphClass: 2
Flags: W
LayerCount: 2
Fore
SplineSet
733 319 m 1,0,-1
 -12 319 l 1,1,-1
 -12 370 l 1,2,-1
 733 370 l 1,3,-1
 733 319 l 1,0,-1
EndSplineSet
EndChar

StartChar: u2014
Encoding: 8212 8212 111
Width: 1284
GlyphClass: 2
Flags: W
LayerCount: 2
Fore
SplineSet
1296 318 m 1,0,-1
 -13 319 l 1,1,-1
 -13 371 l 1,2,-1
 1296 370 l 1,3,-1
 1296 318 l 1,0,-1
EndSplineSet
EndChar

StartChar: u2018
Encoding: 8216 8216 112
Width: 388
GlyphClass: 2
Flags: W
LayerCount: 2
Fore
SplineSet
358 814 m 1,0,1
 302 870 302 870 238 870 c 0,2,3
 206 870 206 870 186 854 c 1,4,5
 248 854 248 854 295 811 c 128,-1,6
 342 768 342 768 342 706 c 256,7,8
 342 644 342 644 295 600 c 128,-1,9
 248 556 248 556 186 556 c 256,10,11
 124 556 124 556 77 607 c 128,-1,12
 30 658 30 658 30 726 c 0,13,14
 30 792 30 792 78 848 c 0,15,16
 134 912 134 912 214 912 c 0,17,18
 332 912 332 912 358 814 c 1,0,1
EndSplineSet
EndChar

StartChar: u2019
Encoding: 8217 8217 113
Width: 378
GlyphClass: 2
Flags: W
LayerCount: 2
Fore
SplineSet
348 742 m 0,0,1
 348 676 348 676 300 620 c 0,2,3
 244 556 244 556 164 556 c 0,4,5
 46 556 46 556 20 654 c 1,6,7
 76 598 76 598 140 598 c 0,8,9
 172 598 172 598 192 614 c 1,10,11
 130 614 130 614 83 657 c 128,-1,12
 36 700 36 700 36 762 c 256,13,14
 36 824 36 824 83 868 c 128,-1,15
 130 912 130 912 192 912 c 256,16,17
 254 912 254 912 301 861 c 128,-1,18
 348 810 348 810 348 742 c 0,0,1
EndSplineSet
EndChar

StartChar: u201C
Encoding: 8220 8220 114
Width: 520
GlyphClass: 2
Flags: W
LayerCount: 2
Fore
SplineSet
375 1214 m 1,0,1
 319 1270 319 1270 255 1270 c 0,2,3
 223 1270 223 1270 203 1254 c 1,4,5
 265 1254 265 1254 312 1211 c 128,-1,6
 359 1168 359 1168 359 1106 c 256,7,8
 359 1044 359 1044 312 1000 c 128,-1,9
 265 956 265 956 203 956 c 256,10,11
 141 956 141 956 94 1007 c 128,-1,12
 47 1058 47 1058 47 1126 c 0,13,14
 47 1192 47 1192 95 1248 c 0,15,16
 151 1312 151 1312 231 1312 c 0,17,18
 349 1312 349 1312 375 1214 c 1,0,1
735 1214 m 1,19,20
 679 1270 679 1270 615 1270 c 0,21,22
 583 1270 583 1270 563 1254 c 1,23,24
 625 1254 625 1254 672 1211 c 128,-1,25
 719 1168 719 1168 719 1106 c 256,26,27
 719 1044 719 1044 672 1000 c 128,-1,28
 625 956 625 956 563 956 c 256,29,30
 501 956 501 956 454 1007 c 128,-1,31
 407 1058 407 1058 407 1126 c 0,32,33
 407 1192 407 1192 455 1248 c 0,34,35
 511 1312 511 1312 591 1312 c 0,36,37
 709 1312 709 1312 735 1214 c 1,19,20
EndSplineSet
EndChar

StartChar: u201D
Encoding: 8221 8221 115
Width: 767
GlyphClass: 2
Flags: W
LayerCount: 2
Fore
SplineSet
328 1142 m 0,0,1
 328 1076 328 1076 280 1020 c 0,2,3
 224 956 224 956 144 956 c 0,4,5
 26 956 26 956 0 1054 c 1,6,7
 56 998 56 998 120 998 c 0,8,9
 152 998 152 998 172 1014 c 1,10,11
 110 1014 110 1014 63 1057 c 128,-1,12
 16 1100 16 1100 16 1162 c 256,13,14
 16 1224 16 1224 63 1268 c 128,-1,15
 110 1312 110 1312 172 1312 c 256,16,17
 234 1312 234 1312 281 1261 c 128,-1,18
 328 1210 328 1210 328 1142 c 0,0,1
698 1142 m 0,19,20
 698 1076 698 1076 650 1020 c 0,21,22
 594 956 594 956 514 956 c 0,23,24
 396 956 396 956 370 1054 c 1,25,26
 426 998 426 998 490 998 c 0,27,28
 522 998 522 998 542 1014 c 1,29,30
 480 1014 480 1014 433 1057 c 128,-1,31
 386 1100 386 1100 386 1162 c 256,32,33
 386 1224 386 1224 433 1268 c 128,-1,34
 480 1312 480 1312 542 1312 c 256,35,36
 604 1312 604 1312 651 1261 c 128,-1,37
 698 1210 698 1210 698 1142 c 0,19,20
EndSplineSet
EndChar

StartChar: u2026
Encoding: 8230 8230 116
Width: 1283
GlyphClass: 2
Flags: W
LayerCount: 2
Fore
SplineSet
265 136 m 0,0,1
 298 136 298 136 320.5 114 c 128,-1,2
 343 92 343 92 343 58 c 0,3,4
 343 26 343 26 320.5 3 c 128,-1,5
 298 -20 298 -20 265 -20 c 0,6,7
 233 -20 233 -20 210 3 c 128,-1,8
 187 26 187 26 187 58 c 0,9,10
 187 92 187 92 210 114 c 128,-1,11
 233 136 233 136 265 136 c 0,0,1
638 136 m 256,12,13
 670 136 670 136 693 114 c 128,-1,14
 716 92 716 92 716 58 c 0,15,16
 716 26 716 26 692.5 3 c 128,-1,17
 669 -20 669 -20 638 -20 c 0,18,19
 606 -20 606 -20 583 3 c 128,-1,20
 560 26 560 26 560 58 c 0,21,22
 560 92 560 92 583 114 c 128,-1,23
 606 136 606 136 638 136 c 256,12,13
1010 136 m 0,24,25
 1043 136 1043 136 1066 114 c 128,-1,26
 1089 92 1089 92 1089 58 c 0,27,28
 1089 26 1089 26 1065.5 3 c 128,-1,29
 1042 -20 1042 -20 1010 -20 c 256,30,31
 978 -20 978 -20 955.5 3 c 128,-1,32
 933 26 933 26 933 58 c 0,33,34
 933 92 933 92 955.5 114 c 128,-1,35
 978 136 978 136 1010 136 c 0,24,25
EndSplineSet
EndChar

StartChar: u2212
Encoding: 8722 8722 117
Width: 974
GlyphClass: 2
Flags: W
LayerCount: 2
Fore
SplineSet
133 450 m 1,0,-1
 133 508 l 1,1,-1
 894 508 l 1,2,-1
 894 450 l 1,3,-1
 133 450 l 1,0,-1
EndSplineSet
EndChar

StartChar: u25CC
Encoding: 9676 9676 118
Width: 1167
GlyphClass: 2
Flags: W
LayerCount: 2
Fore
SplineSet
654 665 m 0,0,1
 626 665 626 665 612 679 c 128,-1,2
 598 693 598 693 598 724 c 0,3,4
 598 746 598 746 615 762.5 c 128,-1,5
 632 779 632 779 654 779 c 0,6,7
 683 779 683 779 697.5 765 c 128,-1,8
 712 751 712 751 712 724 c 0,9,10
 712 693 712 693 697.5 679 c 128,-1,11
 683 665 683 665 654 665 c 0,0,1
840 616 m 0,12,13
 811 616 811 616 796.5 630.5 c 128,-1,14
 782 645 782 645 782 674 c 0,15,16
 782 701 782 701 796.5 715 c 128,-1,17
 811 729 811 729 840 729 c 0,18,19
 862 729 862 729 879 713 c 128,-1,20
 896 697 896 697 896 674 c 0,21,22
 896 645 896 645 882 630.5 c 128,-1,23
 868 616 868 616 840 616 c 0,12,13
470 616 m 0,24,25
 442 616 442 616 428 630.5 c 128,-1,26
 414 645 414 645 414 674 c 0,27,28
 414 697 414 697 431 713 c 128,-1,29
 448 729 448 729 470 729 c 0,30,31
 494 729 494 729 510 713 c 128,-1,32
 526 697 526 697 526 674 c 0,33,34
 526 645 526 645 512.5 630.5 c 128,-1,35
 499 616 499 616 470 616 c 0,24,25
973 482 m 0,36,37
 951 482 951 482 933.5 498 c 128,-1,38
 916 514 916 514 916 538 c 0,39,40
 916 567 916 567 930.5 581 c 128,-1,41
 945 595 945 595 973 595 c 256,42,43
 1001 595 1001 595 1014.5 581 c 128,-1,44
 1028 567 1028 567 1028 538 c 0,45,46
 1028 514 1028 514 1012 498 c 128,-1,47
 996 482 996 482 973 482 c 0,36,37
336 482 m 0,48,49
 307 482 307 482 293 495.5 c 128,-1,50
 279 509 279 509 279 538 c 256,51,52
 279 567 279 567 293 581 c 128,-1,53
 307 595 307 595 336 595 c 0,54,55
 364 595 364 595 378 581 c 128,-1,56
 392 567 392 567 392 538 c 0,57,58
 392 514 392 514 375 498 c 128,-1,59
 358 482 358 482 336 482 c 0,48,49
1024 298 m 0,60,61
 994 298 994 298 979.5 311.5 c 128,-1,62
 965 325 965 325 965 354 c 0,63,64
 965 382 965 382 979.5 396 c 128,-1,65
 994 410 994 410 1024 410 c 0,66,67
 1046 410 1046 410 1063 393 c 128,-1,68
 1080 376 1080 376 1080 354 c 0,69,70
 1080 331 1080 331 1063 314.5 c 128,-1,71
 1046 298 1046 298 1024 298 c 0,60,61
287 298 m 0,72,73
 257 298 257 298 243 311.5 c 128,-1,74
 229 325 229 325 229 354 c 0,75,76
 229 382 229 382 243 396 c 128,-1,77
 257 410 257 410 287 410 c 0,78,79
 310 410 310 410 326.5 393 c 128,-1,80
 343 376 343 376 343 354 c 0,81,82
 343 331 343 331 326.5 314.5 c 128,-1,83
 310 298 310 298 287 298 c 0,72,73
973 112 m 256,84,85
 945 112 945 112 930.5 126.5 c 128,-1,86
 916 141 916 141 916 169 c 0,87,88
 916 193 916 193 933.5 209.5 c 128,-1,89
 951 226 951 226 973 226 c 0,90,91
 996 226 996 226 1012 209.5 c 128,-1,92
 1028 193 1028 193 1028 169 c 0,93,94
 1028 141 1028 141 1014.5 126.5 c 128,-1,95
 1001 112 1001 112 973 112 c 256,84,85
336 112 m 0,96,97
 307 112 307 112 293 126.5 c 128,-1,98
 279 141 279 141 279 169 c 0,99,100
 279 198 279 198 293 212 c 128,-1,101
 307 226 307 226 336 226 c 0,102,103
 358 226 358 226 375 209.5 c 128,-1,104
 392 193 392 193 392 169 c 0,105,106
 392 141 392 141 378 126.5 c 128,-1,107
 364 112 364 112 336 112 c 0,96,97
840 -22 m 0,108,109
 811 -22 811 -22 796.5 -8 c 128,-1,110
 782 6 782 6 782 34 c 0,111,112
 782 63 782 63 796.5 78 c 128,-1,113
 811 93 811 93 840 93 c 0,114,115
 863 93 863 93 879.5 75 c 128,-1,116
 896 57 896 57 896 34 c 256,117,118
 896 11 896 11 879 -5.5 c 128,-1,119
 862 -22 862 -22 840 -22 c 0,108,109
470 -22 m 0,120,121
 448 -22 448 -22 431 -5.5 c 128,-1,122
 414 11 414 11 414 34 c 256,123,124
 414 57 414 57 430.5 75 c 128,-1,125
 447 93 447 93 470 93 c 0,126,127
 495 93 495 93 510.5 75 c 128,-1,128
 526 57 526 57 526 34 c 256,129,130
 526 11 526 11 510 -5.5 c 128,-1,131
 494 -22 494 -22 470 -22 c 0,120,121
654 -72 m 0,132,133
 632 -72 632 -72 615 -55 c 128,-1,134
 598 -38 598 -38 598 -16 c 0,135,136
 598 14 598 14 612 28.5 c 128,-1,137
 626 43 626 43 654 43 c 0,138,139
 683 43 683 43 697.5 28.5 c 128,-1,140
 712 14 712 14 712 -16 c 0,141,142
 712 -44 712 -44 697.5 -58 c 128,-1,143
 683 -72 683 -72 654 -72 c 0,132,133
EndSplineSet
EndChar

StartChar: tm_k_ikaar
Encoding: 65539 -1 119
Width: 1208
GlyphClass: 2
Flags: W
LayerCount: 2
Fore
SplineSet
1194 406 m 1,0,-1
 1026 406 l 1,1,-1
 1026 806 l 2,2,3
 1026 872 1026 872 994 914 c 0,4,5
 954 966 954 966 878 966 c 0,6,7
 796 966 796 966 758 907 c 128,-1,8
 720 848 720 848 730 770 c 1,9,-1
 900 770 l 1,10,-1
 900 630 l 1,11,-1
 676 630 l 1,12,-1
 676 538 l 1,13,14
 708 544 708 544 740 544 c 0,15,16
 856 544 856 544 932 471 c 128,-1,17
 1008 398 1008 398 1008 284 c 0,18,19
 1008 150 1008 150 922 68 c 0,20,21
 844 -8 844 -8 732 -8 c 0,22,23
 652 -8 652 -8 606 14 c 0,24,25
 592 20 592 20 546 56 c 1,26,27
 500 36 500 36 454 16 c 1,28,29
 382 -8 382 -8 298 -8 c 0,30,31
 192 -8 192 -8 114 68 c 0,32,33
 30 148 30 148 30 268 c 0,34,35
 30 370 30 370 86 450 c 1,36,37
 118 488 118 488 152 524 c 1,38,-1
 152 768 l 1,39,-1
 564 768 l 1,40,41
 564 764 564 764 552 803 c 128,-1,42
 540 842 540 842 540 898 c 0,43,44
 540 1024 540 1024 618 1122 c 0,45,46
 716 1244 716 1244 888 1244 c 0,47,48
 1034 1244 1034 1244 1118 1146 c 0,49,50
 1194 1056 1194 1056 1194 918 c 2,51,-1
 1194 406 l 1,0,-1
432 544 m 1,52,-1
 432 632 l 1,53,-1
 336 632 l 1,54,-1
 336 544 l 1,55,-1
 432 544 l 1,52,-1
778 256 m 0,56,57
 778 380 778 380 676 386 c 1,58,-1
 676 238 l 2,59,60
 676 216 676 216 658 178 c 128,-1,61
 640 140 640 140 640 138 c 1,62,63
 692 138 692 138 735 172 c 128,-1,64
 778 206 778 206 778 256 c 0,56,57
432 236 m 2,65,-1
 432 382 l 1,66,-1
 276 382 l 2,67,68
 244 382 244 382 212 346 c 0,69,70
 176 304 176 304 176 254 c 0,71,72
 176 202 176 202 213 167 c 128,-1,73
 250 132 250 132 294 132 c 0,74,75
 350 132 350 132 391 161 c 128,-1,76
 432 190 432 190 432 236 c 2,65,-1
EndSplineSet
Ligature2: "'psts' Post Base Substitutions lookup 8 subtable" tm_ka tm_ikaar
EndChar

StartChar: tm_ng_ikaar
Encoding: 65540 -1 120
Width: 1826
GlyphClass: 2
Flags: W
LayerCount: 2
Fore
SplineSet
1790 0 m 1,0,-1
 1626 0 l 1,1,-1
 1626 710 l 2,2,3
 1626 790 1626 790 1590 848 c 0,4,5
 1550 914 1550 914 1488 914 c 0,6,7
 1366 914 1366 914 1296 850 c 0,8,9
 1234 796 1234 796 1234 726 c 0,10,11
 1234 658 1234 658 1290 628 c 1,12,-1
 1290 768 l 1,13,-1
 1520 766 l 1,14,-1
 1520 0 l 1,15,-1
 782 0 l 1,16,-1
 782 154 l 1,17,18
 830 146 830 146 869 177 c 128,-1,19
 908 208 908 208 908 254 c 0,20,21
 908 348 908 348 808 348 c 0,22,23
 764 348 764 348 736 319 c 128,-1,24
 708 290 708 290 708 254 c 2,25,-1
 708 0 l 1,26,-1
 474 0 l 1,27,-1
 474 622 l 1,28,-1
 288 622 l 1,29,-1
 288 0 l 1,30,-1
 70 0 l 1,31,-1
 70 768 l 1,32,-1
 902 768 l 1,33,-1
 902 620 l 1,34,-1
 708 620 l 1,35,-1
 708 498 l 1,36,37
 732 514 732 514 758 528 c 0,38,39
 804 550 804 550 890 550 c 0,40,41
 992 550 992 550 1056 481 c 128,-1,42
 1120 412 1120 412 1120 314 c 0,43,44
 1120 230 1120 230 1098 192 c 1,45,46
 1076 170 1076 170 1056 146 c 1,47,-1
 1290 146 l 1,48,-1
 1290 440 l 1,49,50
 1248 464 1248 464 1208 488 c 0,51,52
 1130 538 1130 538 1086 604 c 0,53,54
 1028 694 1028 694 1028 820 c 0,55,56
 1028 968 1028 968 1145 1084 c 128,-1,57
 1262 1200 1262 1200 1428 1200 c 0,58,59
 1616 1200 1616 1200 1708 1086 c 0,60,61
 1790 988 1790 988 1790 822 c 2,62,-1
 1790 0 l 1,0,-1
EndSplineSet
Ligature2: "'psts' Post Base Substitutions lookup 8 subtable" tm_nga tm_ikaar
EndChar

StartChar: tm_c_ikaar
Encoding: 65541 -1 121
Width: 1194
GlyphClass: 2
Flags: W
LayerCount: 2
Fore
SplineSet
1124 0 m 1,0,-1
 964 0 l 1,1,-1
 964 706 l 2,2,3
 964 900 964 900 808 900 c 0,4,5
 750 900 750 900 720 870 c 128,-1,6
 690 840 690 840 672 768 c 1,7,-1
 900 768 l 1,8,-1
 900 604 l 1,9,-1
 674 604 l 1,10,-1
 674 522 l 1,11,-1
 900 522 l 1,12,-1
 900 370 l 1,13,-1
 668 370 l 1,14,-1
 668 238 l 2,15,16
 668 156 668 156 590 68 c 0,17,18
 498 -36 498 -36 372 -36 c 0,19,20
 228 -36 228 -36 134 34 c 0,21,22
 30 112 30 112 30 244 c 0,23,24
 30 396 30 396 170 500 c 1,25,-1
 170 768 l 1,26,-1
 494 768 l 1,27,28
 482 800 482 800 482 840 c 0,29,30
 482 960 482 960 562 1056 c 0,31,32
 656 1170 656 1170 814 1170 c 0,33,34
 1016 1170 1016 1170 1080 1014 c 0,35,36
 1124 906 1124 906 1124 614 c 2,37,-1
 1124 0 l 1,0,-1
420 522 m 1,38,-1
 420 614 l 1,39,-1
 320 614 l 1,40,-1
 320 522 l 1,41,-1
 420 522 l 1,38,-1
412 238 m 2,42,-1
 412 376 l 1,43,-1
 274 376 l 2,44,45
 238 376 238 376 212 338 c 128,-1,46
 186 300 186 300 186 250 c 0,47,48
 186 202 186 202 221 171 c 128,-1,49
 256 140 256 140 302 140 c 0,50,51
 412 140 412 140 412 238 c 2,42,-1
EndSplineSet
Ligature2: "'psts' Post Base Substitutions lookup 8 subtable" tm_ca tm_ikaar
EndChar

StartChar: tm_j_ikaar
Encoding: 65542 -1 122
Width: 1618
GlyphClass: 2
Flags: W
LayerCount: 2
Fore
SplineSet
1548 0 m 1,0,-1
 1388 0 l 1,1,-1
 1388 788 l 2,2,3
 1388 972 1388 972 1252 968 c 0,4,5
 1134 964 1134 964 1110 834 c 1,6,7
 1176 810 1176 810 1226 732 c 128,-1,8
 1276 654 1276 654 1276 564 c 0,9,10
 1276 466 1276 466 1231 376 c 128,-1,11
 1186 286 1186 286 1120 260 c 1,12,13
 1184 254 1184 254 1244 188 c 0,14,15
 1312 114 1312 114 1312 26 c 0,16,17
 1312 -78 1312 -78 1239 -152 c 128,-1,18
 1166 -226 1166 -226 1060 -226 c 2,19,-1
 682 -226 l 1,20,-1
 682 -86 l 1,21,-1
 954 -86 l 2,22,23
 1000 -86 1000 -86 1032 -44 c 0,24,25
 1060 -8 1060 -8 1060 32 c 0,26,27
 1060 80 1060 80 1030 117 c 128,-1,28
 1000 154 1000 154 958 154 c 2,29,-1
 856 154 l 2,30,31
 812 154 812 154 744 106 c 0,32,33
 686 62 686 62 654 18 c 1,34,35
 626 -32 626 -32 598 -80 c 0,36,37
 550 -158 550 -158 496 -200 c 0,38,39
 420 -258 420 -258 322 -258 c 0,40,41
 210 -258 210 -258 128 -184 c 0,42,43
 36 -102 36 -102 36 28 c 0,44,45
 36 168 36 168 174 272 c 1,46,47
 114 308 114 308 72 387 c 128,-1,48
 30 466 30 466 30 560 c 0,49,50
 30 698 30 698 130 785 c 128,-1,51
 230 872 230 872 378 872 c 0,52,53
 608 872 608 872 668 770 c 1,54,55
 690 818 690 818 758 851 c 128,-1,56
 826 884 826 884 890 884 c 0,57,58
 914 884 914 884 932 880 c 1,59,60
 928 1014 928 1014 1002 1114 c 0,61,62
 1090 1234 1090 1234 1254 1234 c 0,63,64
 1378 1234 1378 1234 1458 1156 c 0,65,66
 1548 1068 1548 1068 1548 920 c 2,67,-1
 1548 0 l 1,0,-1
562 540 m 1,68,-1
 562 594 l 1,69,70
 538 652 538 652 484 692 c 128,-1,71
 430 732 430 732 380 732 c 0,72,73
 304 732 304 732 244 672 c 0,74,75
 176 602 176 602 188 496 c 1,76,77
 240 628 240 628 372 628 c 0,78,79
 502 628 502 628 562 540 c 1,68,-1
998 492 m 0,80,81
 998 682 998 682 848 682 c 0,82,83
 830 682 830 682 808 678 c 1,84,-1
 808 306 l 1,85,-1
 552 306 l 1,86,-1
 552 336 l 1,87,-1
 472 274 l 1,88,-1
 784 274 l 2,89,90
 998 274 998 274 998 492 c 0,80,81
396 428 m 0,91,92
 396 452 396 452 377 469 c 128,-1,93
 358 486 358 486 336 486 c 0,94,95
 280 486 280 486 280 434 c 0,96,97
 280 370 280 370 338 370 c 256,98,99
 396 370 396 370 396 428 c 0,91,92
562 142 m 1,100,-1
 338 142 l 2,101,102
 296 142 296 142 272 94 c 0,103,104
 254 54 254 54 254 14 c 0,105,106
 254 -34 254 -34 284 -70 c 128,-1,107
 314 -106 314 -106 348 -106 c 0,108,109
 420 -106 420 -106 474 6 c 0,110,111
 534 130 534 130 562 142 c 1,100,-1
EndSplineSet
Ligature2: "'psts' Post Base Substitutions lookup 8 subtable" tm_ja tm_ikaar
EndChar

StartChar: tm_ny_ikaar
Encoding: 65543 -1 123
Width: 1873
GlyphClass: 2
Flags: W
LayerCount: 2
Fore
SplineSet
1834 0 m 1,0,-1
 1674 0 l 1,1,-1
 1674 706 l 2,2,3
 1674 900 1674 900 1518 900 c 0,4,5
 1460 900 1460 900 1430 870 c 128,-1,6
 1400 840 1400 840 1382 768 c 1,7,-1
 1438 768 l 1,8,-1
 1438 612 l 1,9,-1
 1200 612 l 1,10,-1
 1200 516 l 1,11,12
 1228 528 1228 528 1270 528 c 0,13,14
 1404 528 1404 528 1520 434 c 0,15,16
 1658 322 1658 322 1658 132 c 0,17,18
 1658 -132 1658 -132 1360 -270 c 0,19,20
 1110 -386 1110 -386 736 -386 c 0,21,22
 270 -386 270 -386 -40 -82 c 1,23,-1
 42 46 l 1,24,25
 122 -42 122 -42 260 -116 c 0,26,27
 472 -230 472 -230 706 -230 c 0,28,29
 974 -230 974 -230 1174 -142 c 0,30,31
 1392 -46 1392 -46 1392 106 c 0,32,33
 1392 190 1392 190 1336 258 c 0,34,35
 1288 320 1288 320 1240 320 c 0,36,37
 1202 320 1202 320 1202 270 c 2,38,-1
 1202 0 l 1,39,-1
 974 0 l 1,40,-1
 974 616 l 1,41,-1
 556 616 l 2,42,43
 462 616 462 616 404 548 c 0,44,45
 352 490 352 490 352 418 c 0,46,47
 352 398 352 398 358 380 c 1,48,49
 376 438 376 438 440 481 c 128,-1,50
 504 524 504 524 578 524 c 0,51,52
 662 524 662 524 740 452 c 0,53,54
 828 374 828 374 828 266 c 0,55,56
 828 152 828 152 749 82 c 128,-1,57
 670 12 670 12 542 12 c 0,58,59
 392 12 392 12 286 130 c 128,-1,60
 180 248 180 248 180 404 c 0,61,62
 180 556 180 556 270 658 c 0,63,64
 366 768 366 768 520 768 c 2,65,-1
 1204 768 l 1,66,67
 1192 800 1192 800 1192 840 c 0,68,69
 1192 960 1192 960 1272 1056 c 0,70,71
 1366 1170 1366 1170 1524 1170 c 0,72,73
 1726 1170 1726 1170 1790 1014 c 0,74,75
 1834 906 1834 906 1834 614 c 2,76,-1
 1834 0 l 1,0,-1
614 258 m 0,77,78
 614 356 614 356 526 356 c 0,79,80
 482 356 482 356 452 325 c 128,-1,81
 422 294 422 294 422 252 c 0,82,83
 422 214 422 214 448 188 c 128,-1,84
 474 162 474 162 512 162 c 0,85,86
 614 162 614 162 614 258 c 0,77,78
EndSplineSet
Ligature2: "'psts' Post Base Substitutions lookup 8 subtable" tm_nya tm_ikaar
EndChar

StartChar: tm_tt_ikaar
Encoding: 65544 -1 124
Width: 1048
GlyphClass: 2
Flags: W
LayerCount: 2
Fore
SplineSet
1034 0 m 1,0,-1
 706 0 l 1,1,-1
 588 -222 l 1,2,-1
 422 -222 l 1,3,-1
 534 0 l 1,4,-1
 70 0 l 1,5,-1
 70 768 l 1,6,-1
 290 768 l 1,7,-1
 290 148 l 1,8,-1
 610 148 l 1,9,-1
 640 202 l 1,10,11
 530 202 530 202 451 280 c 128,-1,12
 372 358 372 358 372 466 c 256,13,14
 372 574 372 574 458 655 c 128,-1,15
 544 736 544 736 642 736 c 0,16,17
 758 736 758 736 840 663 c 128,-1,18
 922 590 922 590 922 478 c 0,19,20
 922 394 922 394 868 284 c 0,21,22
 830 214 830 214 790 142 c 1,23,-1
 1034 142 l 1,24,-1
 1034 0 l 1,0,-1
782 440 m 0,25,26
 782 466 782 466 758 489 c 128,-1,27
 734 512 734 512 706 512 c 0,28,29
 636 512 636 512 636 440 c 256,30,31
 636 368 636 368 706 368 c 0,32,33
 736 368 736 368 759 389 c 128,-1,34
 782 410 782 410 782 440 c 0,25,26
EndSplineSet
Ligature2: "'psts' Post Base Substitutions lookup 8 subtable" tm_tta tm_ikaar
EndChar

StartChar: tm_nn_ikaar
Encoding: 65545 -1 125
Width: 2680
GlyphClass: 2
Flags: W
LayerCount: 2
Fore
SplineSet
2610 0 m 1,0,-1
 2446 0 l 1,1,-1
 2446 740 l 2,2,3
 2446 832 2446 832 2401 878 c 128,-1,4
 2356 924 2356 924 2290 924 c 0,5,6
 2218 924 2218 924 2180 880 c 128,-1,7
 2142 836 2142 836 2142 768 c 1,8,-1
 2358 768 l 1,9,-1
 2358 618 l 1,10,-1
 2114 618 l 1,11,-1
 2114 0 l 1,12,-1
 1896 0 l 1,13,-1
 1896 618 l 1,14,-1
 1756 618 l 1,15,16
 1844 500 1844 500 1844 380 c 0,17,18
 1844 218 1844 218 1722 104 c 0,19,20
 1610 0 1610 0 1480 0 c 0,21,22
 1364 0 1364 0 1274 46 c 0,23,24
 1206 82 1206 82 1182 124 c 1,25,26
 1070 4 1070 4 906 4 c 0,27,28
 732 4 732 4 650 120 c 1,29,30
 588 16 588 16 420 16 c 0,31,32
 254 16 254 16 146 110 c 0,33,34
 30 210 30 210 30 380 c 0,35,36
 30 540 30 540 139 654 c 128,-1,37
 248 768 248 768 406 768 c 2,38,-1
 1960 768 l 1,39,40
 1946 808 1946 808 1946 856 c 0,41,42
 1946 988 1946 988 2036 1090 c 0,43,44
 2136 1204 2136 1204 2298 1204 c 0,45,46
 2442 1204 2442 1204 2530 1102 c 0,47,48
 2610 1008 2610 1008 2610 870 c 2,49,-1
 2610 0 l 1,0,-1
650 606 m 1,50,-1
 424 606 l 2,51,52
 312 606 312 606 246 534 c 0,53,54
 188 470 188 470 188 386 c 0,55,56
 188 348 188 348 202 318 c 1,57,58
 222 392 222 392 282 437 c 128,-1,59
 342 482 342 482 424 482 c 0,60,61
 494 482 494 482 574 448 c 1,62,-1
 650 606 l 1,50,-1
1596 374 m 0,63,64
 1596 442 1596 442 1557 493 c 128,-1,65
 1518 544 1518 544 1452 544 c 0,66,67
 1378 544 1378 544 1337 496 c 128,-1,68
 1296 448 1296 448 1296 380 c 0,69,70
 1296 318 1296 318 1350 276 c 0,71,72
 1396 238 1396 238 1452 238 c 256,73,74
 1508 238 1508 238 1552 279 c 128,-1,75
 1596 320 1596 320 1596 374 c 0,63,64
998 362 m 0,76,77
 998 422 998 422 955 470 c 128,-1,78
 912 518 912 518 852 518 c 0,79,80
 698 518 698 518 698 358 c 0,81,82
 698 294 698 294 738 254 c 128,-1,83
 778 214 778 214 848 214 c 0,84,85
 908 214 908 214 953 262 c 128,-1,86
 998 310 998 310 998 362 c 0,76,77
460 230 m 0,87,88
 460 296 460 296 384 296 c 0,89,90
 356 296 356 296 332 273 c 128,-1,91
 308 250 308 250 308 220 c 256,92,93
 308 190 308 190 329 170 c 128,-1,94
 350 150 350 150 378 150 c 0,95,96
 460 150 460 150 460 230 c 0,87,88
EndSplineSet
Ligature2: "'psts' Post Base Substitutions lookup 8 subtable" tm_nna tm_ikaar
EndChar

StartChar: tm_t_ikaar
Encoding: 65546 -1 126
Width: 1176
GlyphClass: 2
Flags: W
LayerCount: 2
Fore
SplineSet
1146 430 m 1,0,-1
 980 430 l 1,1,-1
 980 826 l 2,2,3
 980 886 980 886 941 930 c 128,-1,4
 902 974 902 974 836 974 c 256,5,6
 770 974 770 974 729 928 c 128,-1,7
 688 882 688 882 688 824 c 0,8,9
 688 794 688 794 702 768 c 1,10,-1
 844 768 l 1,11,-1
 844 636 l 1,12,-1
 638 636 l 1,13,-1
 638 542 l 1,14,-1
 708 542 l 2,15,16
 838 542 838 542 944 444 c 0,17,18
 1056 340 1056 340 1056 194 c 0,19,20
 1056 28 1056 28 920 -72 c 0,21,22
 778 -174 778 -174 530 -174 c 2,23,-1
 4 -174 l 1,24,-1
 4 -18 l 1,25,-1
 494 -20 l 2,26,27
 676 -20 676 -20 756 66 c 0,28,29
 814 126 814 126 814 222 c 0,30,31
 814 276 814 276 773 332 c 128,-1,32
 732 388 732 388 702 388 c 2,33,-1
 632 388 l 1,34,-1
 632 264 l 2,35,36
 632 154 632 154 544 76 c 0,37,38
 450 -8 450 -8 306 -8 c 0,39,40
 182 -8 182 -8 102 92 c 0,41,42
 30 180 30 180 30 288 c 0,43,44
 30 446 30 446 172 536 c 1,45,-1
 172 768 l 1,46,-1
 522 768 l 1,47,48
 496 828 496 828 496 902 c 0,49,50
 496 1054 496 1054 595 1153 c 128,-1,51
 694 1252 694 1252 838 1252 c 256,52,53
 982 1252 982 1252 1068 1160 c 0,54,55
 1146 1072 1146 1072 1146 938 c 2,56,-1
 1146 430 l 1,0,-1
420 558 m 1,57,-1
 420 642 l 1,58,-1
 318 642 l 1,59,-1
 318 558 l 1,60,-1
 420 558 l 1,57,-1
420 246 m 2,61,-1
 420 396 l 1,62,-1
 288 396 l 2,63,64
 254 396 254 396 220 365 c 128,-1,65
 186 334 186 334 186 288 c 0,66,67
 186 234 186 234 217 193 c 128,-1,68
 248 152 248 152 296 152 c 256,69,70
 344 152 344 152 382 181 c 128,-1,71
 420 210 420 210 420 246 c 2,61,-1
EndSplineSet
Ligature2: "'psts' Post Base Substitutions lookup 8 subtable" tm_ta tm_ikaar
EndChar

StartChar: tm_n_ikaar
Encoding: 65547 -1 127
Width: 1188
GlyphClass: 2
Flags: W
LayerCount: 2
Fore
SplineSet
1158 434 m 1,0,-1
 988 434 l 1,1,-1
 988 812 l 2,2,3
 988 870 988 870 945 915 c 128,-1,4
 902 960 902 960 840 960 c 0,5,6
 772 960 772 960 729 898 c 128,-1,7
 686 836 686 836 698 768 c 1,8,-1
 874 768 l 1,9,-1
 874 612 l 1,10,-1
 656 612 l 1,11,-1
 656 498 l 1,12,13
 698 512 698 512 744 512 c 0,14,15
 884 512 884 512 1000 397 c 128,-1,16
 1116 282 1116 282 1116 136 c 0,17,18
 1116 -62 1116 -62 962 -162 c 0,19,20
 832 -246 832 -246 622 -246 c 2,21,-1
 70 -246 l 1,22,-1
 70 -106 l 1,23,-1
 578 -106 l 2,24,25
 886 -106 886 -106 886 118 c 0,26,27
 886 206 886 206 827 274 c 128,-1,28
 768 342 768 342 702 342 c 0,29,30
 680 342 680 342 662 332 c 1,31,-1
 662 2 l 1,32,-1
 426 2 l 1,33,-1
 426 610 l 1,34,-1
 252 610 l 1,35,-1
 252 0 l 1,36,-1
 70 0 l 1,37,-1
 70 768 l 1,38,-1
 526 768 l 1,39,40
 504 836 504 836 504 900 c 0,41,42
 504 1044 504 1044 604 1138 c 128,-1,43
 704 1232 704 1232 850 1232 c 0,44,45
 994 1232 994 1232 1080 1134 c 0,46,47
 1158 1042 1158 1042 1158 906 c 2,48,-1
 1158 434 l 1,0,-1
EndSplineSet
Ligature2: "'psts' Post Base Substitutions lookup 8 subtable" tm_na tm_ikaar
EndChar

StartChar: tm_nnn_ikaar
Encoding: 65548 -1 128
Width: 2090
GlyphClass: 2
Flags: W
LayerCount: 2
Fore
SplineSet
2020 -4 m 1,0,-1
 1856 -4 l 1,1,-1
 1856 720 l 2,2,3
 1856 920 1856 920 1706 920 c 0,4,5
 1636 920 1636 920 1598 875 c 128,-1,6
 1560 830 1560 830 1560 768 c 1,7,-1
 1788 768 l 1,8,-1
 1788 620 l 1,9,-1
 1542 620 l 1,10,-1
 1542 -4 l 1,11,-1
 1294 -4 l 1,12,-1
 1294 626 l 1,13,-1
 1128 626 l 1,14,15
 1228 512 1228 512 1228 386 c 0,16,17
 1228 200 1228 200 1092 102 c 0,18,19
 990 28 990 28 874 28 c 0,20,21
 736 28 736 28 626 132 c 1,22,23
 576 64 576 64 529 40 c 128,-1,24
 482 16 482 16 402 16 c 0,25,26
 256 16 256 16 143 120 c 128,-1,27
 30 224 30 224 30 372 c 0,28,29
 30 570 30 570 166 680 c 0,30,31
 276 768 276 768 410 768 c 2,32,-1
 1366 768 l 1,33,34
 1354 792 1354 792 1354 832 c 0,35,36
 1354 956 1354 956 1440 1066 c 0,37,38
 1546 1198 1546 1198 1720 1198 c 0,39,40
 1830 1198 1830 1198 1914 1130 c 0,41,42
 2020 1044 2020 1044 2020 882 c 2,43,-1
 2020 -4 l 1,0,-1
644 634 m 1,44,45
 618 632 618 632 496 632 c 0,46,47
 354 632 354 632 268 556 c 0,48,49
 190 486 190 486 190 380 c 0,50,51
 190 334 190 334 206 290 c 1,52,53
 220 372 220 372 282 425 c 128,-1,54
 344 478 344 478 424 478 c 0,55,56
 500 478 500 478 548 438 c 1,57,58
 544 484 544 484 594 559 c 128,-1,59
 644 634 644 634 644 634 c 1,44,45
968 350 m 0,60,61
 968 404 968 404 935 445 c 128,-1,62
 902 486 902 486 850 486 c 0,63,64
 794 486 794 486 760 444 c 128,-1,65
 726 402 726 402 726 344 c 0,66,67
 726 290 726 290 761 258 c 128,-1,68
 796 226 796 226 850 226 c 0,69,70
 898 226 898 226 933 264 c 128,-1,71
 968 302 968 302 968 350 c 0,60,61
476 218 m 0,72,73
 476 242 476 242 452 266 c 128,-1,74
 428 290 428 290 402 290 c 0,75,76
 324 290 324 290 324 224 c 0,77,78
 324 146 324 146 406 146 c 0,79,80
 436 146 436 146 456 168 c 128,-1,81
 476 190 476 190 476 218 c 0,72,73
EndSplineSet
Ligature2: "'psts' Post Base Substitutions lookup 8 subtable" tm_nnna tm_ikaar
EndChar

StartChar: tm_p_ikaar
Encoding: 65549 -1 129
Width: 1180
GlyphClass: 2
Flags: W
LayerCount: 2
Fore
SplineSet
1110 0 m 1,0,-1
 946 0 l 1,1,-1
 946 710 l 2,2,3
 946 790 946 790 910 848 c 0,4,5
 870 914 870 914 808 914 c 0,6,7
 686 914 686 914 616 850 c 0,8,9
 554 796 554 796 554 726 c 256,10,11
 554 656 554 656 614 626 c 1,12,-1
 614 768 l 1,13,-1
 862 768 l 1,14,-1
 862 0 l 1,15,-1
 70 0 l 1,16,-1
 70 768 l 1,17,-1
 252 768 l 1,18,-1
 252 142 l 1,19,-1
 626 142 l 1,20,-1
 626 432 l 1,21,22
 576 460 576 460 528 488 c 0,23,24
 450 538 450 538 406 604 c 0,25,26
 348 694 348 694 348 820 c 0,27,28
 348 968 348 968 465 1084 c 128,-1,29
 582 1200 582 1200 748 1200 c 0,30,31
 936 1200 936 1200 1028 1086 c 0,32,33
 1110 988 1110 988 1110 822 c 2,34,-1
 1110 0 l 1,0,-1
EndSplineSet
Ligature2: "'psts' Post Base Substitutions lookup 8 subtable" tm_pa tm_ikaar
EndChar

StartChar: tm_m_ikaar
Encoding: 65550 -1 130
Width: 1440
GlyphClass: 2
Flags: W
LayerCount: 2
Fore
SplineSet
1370 0 m 1,0,-1
 1208 0 l 1,1,-1
 1208 724 l 2,2,3
 1208 922 1208 922 1058 922 c 0,4,5
 974 922 974 922 938 856 c 0,6,7
 912 808 912 808 914 748 c 1,8,9
 1150 626 1150 626 1150 406 c 0,10,11
 1150 216 1150 216 1019 108 c 128,-1,12
 888 0 888 0 682 0 c 2,13,-1
 70 0 l 1,14,-1
 70 768 l 1,15,-1
 302 768 l 1,16,-1
 302 168 l 1,17,-1
 450 168 l 1,18,-1
 450 438 l 2,19,20
 450 552 450 552 482 606 c 0,21,22
 542 710 542 710 740 760 c 1,23,24
 724 806 724 806 724 856 c 0,25,26
 724 988 724 988 822 1089 c 128,-1,27
 920 1190 920 1190 1068 1190 c 0,28,29
 1208 1190 1208 1190 1292 1096 c 0,30,31
 1370 1006 1370 1006 1370 874 c 2,32,-1
 1370 0 l 1,0,-1
972 346 m 256,33,34
 972 412 972 412 934 461 c 128,-1,35
 896 510 896 510 832 510 c 0,36,37
 738 510 738 510 706 450 c 1,38,-1
 706 170 l 1,39,-1
 836 170 l 2,40,41
 892 170 892 170 932 225 c 128,-1,42
 972 280 972 280 972 346 c 256,33,34
EndSplineSet
Ligature2: "'psts' Post Base Substitutions lookup 8 subtable" tm_ma tm_ikaar
EndChar

StartChar: tm_y_ikaar
Encoding: 65551 -1 131
Width: 1596
GlyphClass: 2
Flags: W
LayerCount: 2
Fore
SplineSet
1526 0 m 1,0,-1
 1358 0 l 1,1,-1
 1358 634 l 2,2,3
 1358 898 1358 898 1220 898 c 0,4,5
 1108 898 1108 898 1041 847 c 128,-1,6
 974 796 974 796 974 704 c 0,7,8
 974 608 974 608 1010 586 c 1,9,-1
 1010 768 l 1,10,-1
 1250 768 l 1,11,-1
 1250 0 l 1,12,-1
 408 0 l 1,13,-1
 408 176 l 1,14,-1
 234 50 l 1,15,-1
 234 0 l 1,16,-1
 70 0 l 1,17,-1
 70 768 l 1,18,-1
 234 768 l 1,19,-1
 234 216 l 1,20,-1
 408 358 l 1,21,-1
 408 768 l 1,22,-1
 630 768 l 1,23,-1
 630 138 l 1,24,-1
 1010 138 l 1,25,-1
 1010 402 l 1,26,27
 940 418 940 418 866 496 c 0,28,29
 762 606 762 606 762 762 c 0,30,31
 762 954 762 954 884 1062 c 0,32,33
 1000 1162 1000 1162 1190 1162 c 0,34,35
 1376 1162 1376 1162 1451 1038 c 128,-1,36
 1526 914 1526 914 1526 614 c 2,37,-1
 1526 0 l 1,0,-1
EndSplineSet
Ligature2: "'psts' Post Base Substitutions lookup 8 subtable" tm_ya tm_ikaar
EndChar

StartChar: tm_r_ikaar
Encoding: 65552 -1 132
Width: 1196
GlyphClass: 2
Flags: W
LayerCount: 2
Fore
SplineSet
896 620 m 1,0,-1
 888 620 l 1,1,-1
 888 618 l 1,2,-1
 696 618 l 1,3,-1
 694 -264 l 1,4,-1
 -22 -264 l 1,5,-1
 -22 -132 l 1,6,-1
 468 -132 l 1,7,-1
 468 618 l 1,8,-1
 288 618 l 1,9,-1
 288 0 l 1,10,-1
 70 0 l 1,11,-1
 70 768 l 1,12,-1
 492 768 l 1,13,14
 482 794 482 794 482 838 c 0,15,16
 482 964 482 964 554 1062 c 0,17,18
 648 1188 648 1188 824 1188 c 0,19,20
 936 1188 936 1188 1020 1116 c 0,21,22
 1126 1024 1126 1024 1126 848 c 2,23,-1
 1126 0 l 1,24,-1
 964 0 l 1,25,-1
 964 710 l 2,26,27
 964 826 964 826 922 872 c 0,28,29
 888 910 888 910 814 910 c 0,30,31
 738 910 738 910 700 852 c 0,32,33
 672 812 672 812 672 768 c 1,34,-1
 896 768 l 1,35,-1
 896 620 l 1,0,-1
EndSplineSet
Ligature2: "'psts' Post Base Substitutions lookup 8 subtable" tm_ra tm_ikaar
EndChar

StartChar: tm_rr_ikaar
Encoding: 65553 -1 133
Width: 1382
GlyphClass: 2
Flags: W
LayerCount: 2
Fore
SplineSet
1312 0 m 1,0,-1
 1152 0 l 1,1,-1
 1152 728 l 2,2,3
 1152 778 1152 778 1118 816 c 128,-1,4
 1084 854 1084 854 1030 854 c 0,5,6
 878 854 878 854 878 718 c 0,7,8
 878 682 878 682 890 656 c 1,9,10
 1006 578 1006 578 1058 492 c 0,11,12
 1118 394 1118 394 1118 252 c 0,13,14
 1118 42 1118 42 953 -103 c 128,-1,15
 788 -248 788 -248 546 -248 c 2,16,-1
 12 -248 l 1,17,-1
 12 -118 l 1,18,-1
 558 -118 l 2,19,20
 712 -118 712 -118 810 4 c 0,21,22
 894 110 894 110 894 238 c 0,23,24
 894 370 894 370 802 472 c 0,25,26
 714 568 714 568 594 586 c 1,27,-1
 594 0 l 1,28,-1
 374 0 l 1,29,-1
 374 488 l 2,30,31
 374 606 374 606 266 606 c 0,32,33
 234 606 234 606 210 572 c 128,-1,34
 186 538 186 538 186 502 c 2,35,-1
 186 0 l 1,36,-1
 30 0 l 1,37,-1
 30 418 l 2,38,39
 30 554 30 554 82 646 c 0,40,41
 150 766 150 766 292 766 c 0,42,43
 408 766 408 766 510 672 c 1,44,45
 598 724 598 724 704 718 c 1,46,47
 692 732 692 732 692 784 c 0,48,49
 692 902 692 902 758 994 c 0,50,51
 846 1118 846 1118 1024 1118 c 0,52,53
 1124 1118 1124 1118 1204 1058 c 0,54,55
 1312 980 1312 980 1312 830 c 2,56,-1
 1312 0 l 1,0,-1
EndSplineSet
Ligature2: "'psts' Post Base Substitutions lookup 8 subtable" tm_rra tm_ikaar
EndChar

StartChar: tm_l_ikaar
Encoding: 65554 -1 134
Width: 1688
GlyphClass: 2
Flags: W
LayerCount: 2
Fore
SplineSet
1618 0 m 1,0,-1
 1458 0 l 1,1,-1
 1458 688 l 2,2,3
 1458 894 1458 894 1300 894 c 0,4,5
 1246 894 1246 894 1205 851 c 128,-1,6
 1164 808 1164 808 1164 752 c 0,7,8
 1164 726 1164 726 1228 678 c 0,9,10
 1312 612 1312 612 1344 572 c 0,11,12
 1408 494 1408 494 1408 400 c 0,13,14
 1408 218 1408 218 1300 108 c 0,15,16
 1188 -8 1188 -8 990 -8 c 0,17,18
 866 -8 866 -8 778 68 c 0,19,20
 682 150 682 150 682 284 c 0,21,22
 682 562 682 562 456 562 c 0,23,24
 362 562 362 562 291 491 c 128,-1,25
 220 420 220 420 220 344 c 1,26,27
 276 432 276 432 388 432 c 0,28,29
 482 432 482 432 539 368 c 128,-1,30
 596 304 596 304 596 198 c 0,31,32
 596 106 596 106 514 52 c 0,33,34
 440 2 440 2 328 2 c 0,35,36
 210 2 210 2 124 88 c 0,37,38
 30 182 30 182 30 330 c 0,39,40
 30 500 30 500 182 636 c 128,-1,41
 334 772 334 772 518 772 c 0,42,43
 686 772 686 772 806 664 c 0,44,45
 912 570 912 570 952 426 c 1,46,47
 960 342 960 342 968 260 c 1,48,49
 992 148 992 148 1098 148 c 0,50,51
 1168 148 1168 148 1212 230 c 0,52,53
 1248 294 1248 294 1248 360 c 0,54,55
 1248 474 1248 474 1178 538 c 1,56,57
 1114 588 1114 588 1050 636 c 1,58,59
 980 700 980 700 980 816 c 0,60,61
 980 962 980 962 1071 1060 c 128,-1,62
 1162 1158 1162 1158 1300 1158 c 0,63,64
 1482 1158 1482 1158 1550 1044 c 128,-1,65
 1618 930 1618 930 1618 628 c 2,66,-1
 1618 0 l 1,0,-1
404 164 m 0,67,68
 404 236 404 236 334 236 c 0,69,70
 306 236 306 236 286 216 c 128,-1,71
 266 196 266 196 266 168 c 0,72,73
 266 104 266 104 338 104 c 0,74,75
 360 104 360 104 382 122 c 128,-1,76
 404 140 404 140 404 164 c 0,67,68
EndSplineSet
Ligature2: "'psts' Post Base Substitutions lookup 8 subtable" tm_la tm_ikaar
EndChar

StartChar: tm_ll_ikaar
Encoding: 65555 -1 135
Width: 1958
GlyphClass: 2
Flags: W
LayerCount: 2
Fore
SplineSet
1888 0 m 1,0,-1
 1718 0 l 1,1,-1
 1718 708 l 2,2,3
 1718 912 1718 912 1560 912 c 0,4,5
 1444 912 1444 912 1430 768 c 1,6,-1
 1658 768 l 1,7,-1
 1658 608 l 1,8,-1
 1372 608 l 1,9,-1
 1372 0 l 1,10,-1
 1120 0 l 1,11,-1
 1120 604 l 1,12,-1
 946 604 l 1,13,-1
 946 0 l 1,14,-1
 702 0 l 1,15,-1
 702 400 l 2,16,17
 702 508 702 508 628 574 c 0,18,19
 560 634 560 634 466 632 c 0,20,21
 344 630 344 630 268 530 c 0,22,23
 202 446 202 446 202 358 c 0,24,25
 202 330 202 330 210 314 c 1,26,27
 232 380 232 380 291 424 c 128,-1,28
 350 468 350 468 422 468 c 0,29,30
 520 468 520 468 582 398 c 128,-1,31
 644 328 644 328 644 230 c 0,32,33
 644 110 644 110 556 50 c 0,34,35
 484 0 484 0 378 0 c 0,36,37
 242 0 242 0 136 114 c 128,-1,38
 30 228 30 228 30 382 c 0,39,40
 30 558 30 558 166 668 c 0,41,42
 294 772 294 772 470 772 c 0,43,44
 700 772 700 772 820 668 c 1,45,-1
 828 768 l 1,46,-1
 1244 768 l 1,47,48
 1238 810 1238 810 1238 848 c 0,49,50
 1238 1002 1238 1002 1326 1095 c 128,-1,51
 1414 1188 1414 1188 1554 1188 c 0,52,53
 1734 1188 1734 1188 1808 1072 c 0,54,55
 1888 946 1888 946 1888 616 c 2,56,-1
 1888 0 l 1,0,-1
448 200 m 0,57,58
 448 230 448 230 426 253 c 128,-1,59
 404 276 404 276 378 276 c 0,60,61
 304 276 304 276 304 200 c 0,62,63
 304 170 304 170 324 147 c 128,-1,64
 344 124 344 124 366 124 c 0,65,66
 398 124 398 124 423 149 c 128,-1,67
 448 174 448 174 448 200 c 0,57,58
EndSplineSet
Ligature2: "'psts' Post Base Substitutions lookup 8 subtable" tm_lla tm_ikaar
EndChar

StartChar: tm_lll_ikaar
Encoding: 65556 -1 136
Width: 1458
GlyphClass: 2
Flags: W
LayerCount: 2
Fore
SplineSet
1388 0 m 1,0,-1
 1218 0 l 1,1,-1
 1218 730 l 2,2,3
 1218 914 1218 914 1060 914 c 0,4,5
 1002 914 1002 914 965 871 c 128,-1,6
 928 828 928 828 924 768 c 1,7,8
 1026 744 1026 744 1098 640 c 128,-1,9
 1170 536 1170 536 1170 404 c 0,10,11
 1170 198 1170 198 1024 94 c 0,12,13
 908 12 908 12 736 12 c 1,14,15
 738 -20 738 -20 796 -70 c 0,16,17
 842 -110 842 -110 884 -134 c 1,18,-1
 802 -318 l 1,19,20
 756 -306 756 -306 722 -294 c 0,21,22
 656 -272 656 -272 626 -246 c 1,23,24
 460 -398 460 -398 254 -398 c 0,25,26
 160 -398 160 -398 64 -364 c 1,27,-1
 64 -222 l 1,28,29
 190 -270 190 -270 290 -270 c 0,30,31
 446 -270 446 -270 532 -154 c 1,32,33
 494 -118 494 -118 466 0 c 1,34,-1
 70 0 l 1,35,-1
 70 768 l 1,36,-1
 316 768 l 1,37,-1
 316 176 l 1,38,-1
 452 176 l 1,39,-1
 452 426 l 2,40,41
 452 572 452 572 508 650 c 0,42,43
 572 738 572 738 732 782 c 1,44,45
 718 942 718 942 800 1056 c 0,46,47
 892 1186 892 1186 1070 1186 c 0,48,49
 1252 1186 1252 1186 1320 1065 c 128,-1,50
 1388 944 1388 944 1388 630 c 2,51,-1
 1388 0 l 1,0,-1
988 374 m 0,52,53
 988 444 988 444 942 488 c 0,54,55
 902 526 902 526 852 526 c 0,56,57
 716 526 716 526 716 426 c 2,58,-1
 716 186 l 1,59,-1
 820 186 l 2,60,61
 902 186 902 186 948 244 c 0,62,63
 988 294 988 294 988 374 c 0,52,53
EndSplineSet
Ligature2: "'psts' Post Base Substitutions lookup 8 subtable" tm_llla tm_ikaar
EndChar

StartChar: tm_v_ikaar
Encoding: 65557 -1 137
Width: 1672
GlyphClass: 2
Flags: W
LayerCount: 2
Fore
SplineSet
1602 0 m 1,0,-1
 1450 0 l 1,1,-1
 1450 638 l 2,2,3
 1450 736 1450 736 1392 790 c 0,4,5
 1342 840 1342 840 1266 840 c 0,6,7
 1162 840 1162 840 1104 766 c 0,8,9
 1054 706 1054 706 1054 626 c 0,10,11
 1054 554 1054 554 1106 522 c 1,12,-1
 1106 708 l 1,13,-1
 1358 708 l 1,14,-1
 1358 0 l 1,15,-1
 604 0 l 1,16,-1
 604 120 l 1,17,18
 722 216 722 216 722 342 c 0,19,20
 722 456 722 456 644 535 c 128,-1,21
 566 614 566 614 446 614 c 0,22,23
 328 614 328 614 251 529 c 128,-1,24
 174 444 174 444 174 334 c 0,25,26
 174 304 174 304 180 276 c 1,27,28
 196 362 196 362 261 416 c 128,-1,29
 326 470 326 470 402 470 c 0,30,31
 484 470 484 470 550 407 c 128,-1,32
 616 344 616 344 616 270 c 0,33,34
 616 166 616 166 536 96 c 128,-1,35
 456 26 456 26 338 26 c 0,36,37
 216 26 216 26 123 133 c 128,-1,38
 30 240 30 240 30 378 c 0,39,40
 30 560 30 560 154 666 c 128,-1,41
 278 772 278 772 474 772 c 0,42,43
 650 772 650 772 786 678 c 0,44,45
 942 572 942 572 942 402 c 0,46,47
 942 244 942 244 834 136 c 1,48,-1
 1114 136 l 1,49,-1
 1114 362 l 1,50,51
 1056 362 1056 362 984 438 c 0,52,53
 884 542 884 542 884 712 c 0,54,55
 884 850 884 850 964 952 c 0,56,57
 1070 1090 1070 1090 1280 1090 c 256,58,59
 1490 1090 1490 1090 1556 930 c 0,60,61
 1602 812 1602 812 1602 458 c 2,62,-1
 1602 0 l 1,0,-1
396 186 m 0,63,64
 396 248 396 248 350 248 c 0,65,66
 286 248 286 248 286 196 c 0,67,68
 286 136 286 136 344 136 c 0,69,70
 396 136 396 136 396 186 c 0,63,64
EndSplineSet
Ligature2: "'psts' Post Base Substitutions lookup 8 subtable" tm_va tm_ikaar
EndChar

StartChar: tm_ss_ikaar
Encoding: 65558 -1 138
Width: 2012
GlyphClass: 2
Flags: W
LayerCount: 2
Fore
SplineSet
1942 0 m 1,0,-1
 1784 0 l 1,1,-1
 1784 678 l 2,2,3
 1784 872 1784 872 1642 872 c 0,4,5
 1570 872 1570 872 1530 818 c 0,6,7
 1494 774 1494 774 1494 718 c 0,8,9
 1494 702 1494 702 1498 690 c 1,10,11
 1614 562 1614 562 1614 468 c 0,12,13
 1614 430 1614 430 1560 310 c 128,-1,14
 1506 190 1506 190 1472 144 c 1,15,-1
 1730 144 l 1,16,-1
 1730 0 l 1,17,-1
 1394 0 l 1,18,-1
 1294 -218 l 1,19,-1
 1134 -218 l 1,20,-1
 1236 0 l 1,21,-1
 646 0 l 1,22,-1
 646 122 l 1,23,24
 720 182 720 182 720 342 c 0,25,26
 720 460 720 460 639 545 c 128,-1,27
 558 630 558 630 460 630 c 256,28,29
 362 630 362 630 280 564 c 0,30,31
 184 488 184 488 174 364 c 1,32,33
 260 484 260 484 364 484 c 0,34,35
 458 484 458 484 543 418 c 128,-1,36
 628 352 628 352 628 264 c 0,37,38
 628 148 628 148 555 77 c 128,-1,39
 482 6 482 6 358 6 c 0,40,41
 220 6 220 6 125 112 c 128,-1,42
 30 218 30 218 30 364 c 0,43,44
 30 548 30 548 170 662 c 0,45,46
 302 766 302 766 490 766 c 0,47,48
 676 766 676 766 824 652 c 128,-1,49
 972 538 972 538 972 380 c 0,50,51
 972 310 972 310 944 246 c 0,52,53
 942 240 942 240 892 146 c 1,54,-1
 1310 146 l 1,55,56
 1320 162 1320 162 1338 202 c 1,57,58
 1238 198 1238 198 1162 271 c 128,-1,59
 1086 344 1086 344 1086 456 c 0,60,61
 1086 560 1086 560 1176 644 c 0,62,63
 1242 708 1242 708 1320 730 c 1,64,65
 1310 746 1310 746 1310 788 c 0,66,67
 1310 906 1310 906 1374 1008 c 0,68,69
 1460 1142 1460 1142 1616 1142 c 0,70,71
 1810 1142 1810 1142 1886 1004 c 0,72,73
 1942 900 1942 900 1942 684 c 2,74,-1
 1942 0 l 1,0,-1
1470 430 m 0,75,76
 1470 500 1470 500 1408 500 c 0,77,78
 1334 500 1334 500 1334 430 c 0,79,80
 1334 402 1334 402 1356 380 c 128,-1,81
 1378 358 1378 358 1408 358 c 0,82,83
 1470 358 1470 358 1470 430 c 0,75,76
404 226 m 0,84,85
 404 294 404 294 342 294 c 0,86,87
 262 294 262 294 262 222 c 0,88,89
 262 196 262 196 286 176 c 128,-1,90
 310 156 310 156 336 156 c 0,91,92
 404 156 404 156 404 226 c 0,84,85
EndSplineSet
Ligature2: "'psts' Post Base Substitutions lookup 8 subtable" tm_ssa tm_ikaar
EndChar

StartChar: tm_s_ikaar
Encoding: 65559 -1 139
Width: 2142
GlyphClass: 2
Flags: W
LayerCount: 2
Fore
SplineSet
2072 0 m 1,0,-1
 1906 0 l 1,1,-1
 1906 706 l 2,2,3
 1906 912 1906 912 1760 912 c 0,4,5
 1704 912 1704 912 1661 873 c 128,-1,6
 1618 834 1618 834 1618 776 c 0,7,8
 1618 754 1618 754 1680 714 c 0,9,10
 1760 664 1760 664 1798 610 c 0,11,12
 1860 520 1860 520 1860 380 c 0,13,14
 1860 228 1860 228 1743 111 c 128,-1,15
 1626 -6 1626 -6 1464 -6 c 0,16,17
 1318 -6 1318 -6 1208 80 c 0,18,19
 1088 172 1088 172 1088 316 c 0,20,21
 1088 590 1088 590 994 590 c 0,22,23
 946 590 946 590 946 542 c 2,24,-1
 946 0 l 1,25,-1
 690 0 l 1,26,-1
 690 350 l 2,27,28
 690 446 690 446 615 518 c 128,-1,29
 540 590 540 590 444 590 c 0,30,31
 340 590 340 590 263 509 c 128,-1,32
 186 428 186 428 186 326 c 0,33,34
 186 300 186 300 192 274 c 1,35,36
 206 350 206 350 270 409 c 128,-1,37
 334 468 334 468 416 468 c 0,38,39
 506 468 506 468 569 402 c 128,-1,40
 632 336 632 336 632 246 c 0,41,42
 632 144 632 144 558 77 c 128,-1,43
 484 10 484 10 374 10 c 0,44,45
 214 10 214 10 118 120 c 0,46,47
 30 220 30 220 30 374 c 0,48,49
 30 548 30 548 164 664 c 0,50,51
 292 772 292 772 474 772 c 0,52,53
 636 772 636 772 782 674 c 1,54,55
 884 778 884 778 1024 778 c 0,56,57
 1194 778 1194 778 1280 642 c 0,58,59
 1352 530 1352 530 1352 350 c 0,60,61
 1352 206 1352 206 1498 206 c 0,62,63
 1590 206 1590 206 1646 270 c 128,-1,64
 1702 334 1702 334 1702 426 c 0,65,66
 1702 516 1702 516 1628 574 c 1,67,68
 1562 618 1562 618 1494 664 c 0,69,70
 1420 716 1420 716 1420 788 c 0,71,72
 1420 986 1420 986 1522 1092 c 0,73,74
 1614 1188 1614 1188 1766 1188 c 0,75,76
 1886 1188 1886 1188 1964 1116 c 0,77,78
 2072 1016 2072 1016 2072 802 c 2,79,-1
 2072 0 l 1,0,-1
438 210 m 256,80,81
 438 238 438 238 419 259 c 128,-1,82
 400 280 400 280 372 280 c 0,83,84
 300 280 300 280 300 210 c 0,85,86
 300 138 300 138 372 138 c 0,87,88
 398 138 398 138 418 160 c 128,-1,89
 438 182 438 182 438 210 c 256,80,81
EndSplineSet
Ligature2: "'psts' Post Base Substitutions lookup 8 subtable" tm_sa tm_ikaar
EndChar

StartChar: tm_h_ikaar
Encoding: 65560 -1 140
Width: 2350
GlyphClass: 2
Flags: W
LayerCount: 2
Fore
SplineSet
2280 0 m 1,0,-1
 2126 0 l 1,1,-1
 2126 680 l 2,2,3
 2126 782 2126 782 2076 834 c 0,4,5
 2036 880 2036 880 1972 880 c 0,6,7
 1906 880 1906 880 1868 828 c 0,8,9
 1836 786 1836 786 1836 726 c 0,10,11
 1836 700 1836 700 1844 680 c 1,12,13
 1942 626 1942 626 2002 520 c 128,-1,14
 2062 414 2062 414 2062 306 c 0,15,16
 2062 66 2062 66 1898 -64 c 0,17,18
 1754 -176 1754 -176 1528 -176 c 2,19,-1
 160 -176 l 1,20,-1
 160 -38 l 1,21,-1
 1496 -38 l 2,22,23
 1632 -38 1632 -38 1722 38 c 0,24,25
 1826 128 1826 128 1826 294 c 0,26,27
 1826 406 1826 406 1748 494 c 0,28,29
 1678 570 1678 570 1618 570 c 0,30,31
 1588 570 1588 570 1556 550 c 1,32,-1
 1556 0 l 1,33,-1
 1286 0 l 1,34,-1
 1286 536 l 2,35,36
 1286 586 1286 586 1284 594 c 0,37,38
 1274 632 1274 632 1234 632 c 0,39,40
 1210 632 1210 632 1187 610 c 128,-1,41
 1164 588 1164 588 1164 564 c 2,42,-1
 1164 0 l 1,43,-1
 620 0 l 1,44,-1
 620 140 l 1,45,46
 694 202 694 202 694 322 c 256,47,48
 694 442 694 442 631 524 c 128,-1,49
 568 606 568 606 472 606 c 0,50,51
 342 606 342 606 264 528 c 0,52,53
 194 460 194 460 186 356 c 1,54,55
 236 416 236 416 270 438 c 0,56,57
 320 470 320 470 388 470 c 0,58,59
 498 470 498 470 566 396 c 0,60,61
 630 330 630 330 630 238 c 0,62,63
 630 10 630 10 358 10 c 0,64,65
 230 10 230 10 130 120 c 128,-1,66
 30 230 30 230 30 372 c 0,67,68
 30 554 30 554 180 668 c 0,69,70
 316 772 316 772 496 772 c 0,71,72
 686 772 686 772 816 664 c 0,73,74
 950 550 950 550 950 368 c 0,75,76
 950 300 950 300 922 245 c 128,-1,77
 894 190 894 190 866 140 c 1,78,-1
 1024 140 l 1,79,-1
 1024 492 l 2,80,81
 1024 766 1024 766 1224 766 c 0,82,83
 1336 766 1336 766 1416 664 c 1,84,85
 1492 748 1492 748 1610 748 c 0,86,87
 1634 748 1634 748 1658 744 c 1,88,89
 1656 768 1656 768 1656 792 c 0,90,91
 1656 930 1656 930 1726 1028 c 0,92,93
 1810 1148 1810 1148 1972 1148 c 0,94,95
 2186 1148 2186 1148 2246 962 c 0,96,97
 2280 850 2280 850 2280 476 c 2,98,-1
 2280 0 l 1,0,-1
428 210 m 0,99,100
 428 230 428 230 406 248 c 128,-1,101
 384 266 384 266 360 266 c 0,102,103
 334 266 334 266 313 247 c 128,-1,104
 292 228 292 228 292 204 c 0,105,106
 292 142 292 142 360 142 c 0,107,108
 388 142 388 142 408 163 c 128,-1,109
 428 184 428 184 428 210 c 0,99,100
EndSplineSet
Ligature2: "'psts' Post Base Substitutions lookup 8 subtable" tm_ha tm_ikaar
EndChar

StartChar: tm_k_iikaar
Encoding: 65561 -1 141
Width: 1028
GlyphClass: 2
Flags: W
LayerCount: 2
Fore
SplineSet
1000 1172 m 0,0,1
 1000 1096 1000 1096 938 1018 c 0,2,3
 854 912 854 912 710 912 c 0,4,5
 618 912 618 912 539 991 c 128,-1,6
 460 1070 460 1070 460 1164 c 0,7,8
 460 1184 460 1184 464 1202 c 1,9,10
 422 1182 422 1182 422 1022 c 0,11,12
 422 770 422 770 888 770 c 1,13,-1
 888 638 l 1,14,-1
 668 638 l 1,15,-1
 668 546 l 1,16,-1
 744 546 l 2,17,18
 848 546 848 546 921 473 c 128,-1,19
 994 400 994 400 994 296 c 0,20,21
 994 168 994 168 924 86 c 0,22,23
 848 -4 848 -4 710 -4 c 0,24,25
 610 -4 610 -4 538 66 c 1,26,27
 416 0 416 0 308 0 c 0,28,29
 202 0 202 0 120 68 c 0,30,31
 30 142 30 142 30 254 c 0,32,33
 30 436 30 436 150 526 c 1,34,-1
 150 768 l 1,35,-1
 388 768 l 1,36,37
 280 850 280 850 280 1052 c 0,38,39
 280 1204 280 1204 390 1330 c 0,40,41
 514 1472 514 1472 706 1472 c 0,42,43
 844 1472 844 1472 928 1370 c 0,44,45
 1000 1284 1000 1284 1000 1172 c 0,0,1
756 1228 m 0,46,47
 756 1256 756 1256 735 1279 c 128,-1,48
 714 1302 714 1302 686 1302 c 0,49,50
 654 1302 654 1302 630 1281 c 128,-1,51
 606 1260 606 1260 606 1230 c 0,52,53
 606 1204 606 1204 627 1184 c 128,-1,54
 648 1164 648 1164 676 1164 c 0,55,56
 756 1164 756 1164 756 1228 c 0,46,47
428 546 m 1,57,-1
 428 638 l 1,58,-1
 334 638 l 1,59,-1
 334 546 l 1,60,-1
 428 546 l 1,57,-1
768 266 m 0,61,62
 768 384 768 384 664 390 c 1,63,-1
 664 250 l 2,64,65
 664 228 664 228 647 189 c 128,-1,66
 630 150 630 150 632 148 c 0,67,68
 682 144 682 144 725 179 c 128,-1,69
 768 214 768 214 768 266 c 0,61,62
426 248 m 2,70,-1
 426 390 l 1,71,-1
 262 390 l 2,72,73
 234 390 234 390 204 352 c 128,-1,74
 174 314 174 314 174 266 c 256,75,76
 174 218 174 218 207 178 c 128,-1,77
 240 138 240 138 290 138 c 0,78,79
 426 138 426 138 426 248 c 2,70,-1
EndSplineSet
Ligature2: "'abvs' Above Base Substitutions lookup 6 subtable" tm_ka tm_iikaar
EndChar

StartChar: tm_ng_iikaar
Encoding: 65562 -1 142
Width: 1697
GlyphClass: 2
Flags: W
LayerCount: 2
Fore
SplineSet
1520 0 m 1,0,-1
 782 0 l 1,1,-1
 782 154 l 1,2,3
 830 146 830 146 869 177 c 128,-1,4
 908 208 908 208 908 254 c 0,5,6
 908 348 908 348 808 348 c 0,7,8
 764 348 764 348 736 319 c 128,-1,9
 708 290 708 290 708 254 c 2,10,-1
 708 0 l 1,11,-1
 474 0 l 1,12,-1
 474 622 l 1,13,-1
 288 622 l 1,14,-1
 288 0 l 1,15,-1
 70 0 l 1,16,-1
 70 768 l 1,17,-1
 902 768 l 1,18,-1
 902 620 l 1,19,-1
 708 620 l 1,20,-1
 708 498 l 1,21,22
 732 514 732 514 758 528 c 0,23,24
 804 550 804 550 890 550 c 0,25,26
 992 550 992 550 1056 481 c 128,-1,27
 1120 412 1120 412 1120 314 c 0,28,29
 1120 230 1120 230 1098 192 c 1,30,31
 1076 170 1076 170 1056 146 c 1,32,-1
 1290 146 l 1,33,-1
 1290 520 l 1,34,-1
 1280 510 l 1,35,36
 1160 524 1160 524 1056 616 c 0,37,38
 898 752 898 752 898 1004 c 0,39,40
 898 1162 898 1162 1006 1290 c 0,41,42
 1132 1436 1132 1436 1330 1436 c 0,43,44
 1472 1436 1472 1436 1557 1349 c 128,-1,45
 1642 1262 1642 1262 1642 1132 c 0,46,47
 1642 1012 1642 1012 1542 928 c 0,48,49
 1454 856 1454 856 1368 856 c 0,50,51
 1260 856 1260 856 1174 936 c 0,52,53
 1094 1010 1094 1010 1086 1098 c 1,54,55
 1056 1038 1056 1038 1056 964 c 0,56,57
 1056 828 1056 828 1154 732 c 0,58,59
 1234 654 1234 654 1274 666 c 1,60,-1
 1274 766 l 1,61,-1
 1520 767 l 1,62,-1
 1520 0 l 1,0,-1
1390 1184 m 0,63,64
 1390 1258 1390 1258 1318 1258 c 0,65,66
 1284 1258 1284 1258 1261 1238 c 128,-1,67
 1238 1218 1238 1218 1238 1190 c 0,68,69
 1238 1114 1238 1114 1316 1114 c 0,70,71
 1390 1114 1390 1114 1390 1184 c 0,63,64
EndSplineSet
Ligature2: "'abvs' Above Base Substitutions lookup 6 subtable" tm_nga tm_iikaar
EndChar

StartChar: tm_c_iikaar
Encoding: 65563 -1 143
Width: 860
GlyphClass: 2
Flags: W
LayerCount: 2
Fore
SplineSet
938 1140 m 0,0,1
 938 1040 938 1040 858 966 c 128,-1,2
 778 892 778 892 686 892 c 0,3,4
 590 892 590 892 513 963 c 128,-1,5
 436 1034 436 1034 436 1124 c 0,6,7
 436 1146 436 1146 442 1166 c 1,8,9
 400 1124 400 1124 400 1024 c 0,10,11
 400 764 400 764 732 764 c 0,12,13
 792 764 792 764 846 772 c 1,14,-1
 846 616 l 1,15,-1
 642 616 l 1,16,-1
 642 530 l 1,17,-1
 846 530 l 1,18,-1
 846 402 l 1,19,-1
 638 402 l 1,20,-1
 638 268 l 2,21,22
 638 196 638 196 582 114 c 0,23,24
 500 -4 500 -4 352 -4 c 0,25,26
 216 -4 216 -4 126 64 c 0,27,28
 26 138 26 138 26 266 c 0,29,30
 26 340 26 340 74 418 c 0,31,32
 116 488 116 488 158 506 c 1,33,-1
 158 766 l 1,34,-1
 358 766 l 1,35,36
 268 888 268 888 268 1028 c 0,37,38
 268 1146 268 1146 354 1260 c 0,39,40
 466 1414 466 1414 666 1414 c 0,41,42
 786 1414 786 1414 862 1336 c 128,-1,43
 938 1258 938 1258 938 1140 c 0,0,1
710 1188 m 0,44,45
 710 1256 710 1256 642 1256 c 0,46,47
 614 1256 614 1256 595 1236 c 128,-1,48
 576 1216 576 1216 576 1188 c 256,49,50
 576 1160 576 1160 598 1141 c 128,-1,51
 620 1122 620 1122 642 1122 c 0,52,53
 670 1122 670 1122 690 1141 c 128,-1,54
 710 1160 710 1160 710 1188 c 0,44,45
396 530 m 1,55,-1
 396 614 l 1,56,-1
 300 614 l 1,57,-1
 300 530 l 1,58,-1
 396 530 l 1,55,-1
390 264 m 2,59,-1
 390 392 l 1,60,-1
 274 392 l 2,61,62
 230 392 230 392 205 357 c 128,-1,63
 180 322 180 322 180 274 c 0,64,65
 180 228 180 228 213 197 c 128,-1,66
 246 166 246 166 292 166 c 0,67,68
 390 166 390 166 390 264 c 2,59,-1
EndSplineSet
Ligature2: "'abvs' Above Base Substitutions lookup 6 subtable" tm_ca tm_iikaar
EndChar

StartChar: tm_j_iikaar
Encoding: 65564 -1 144
Width: 1296
GlyphClass: 2
Flags: W
LayerCount: 2
Fore
SplineSet
1354 1156 m 0,0,1
 1354 1072 1354 1072 1288 996 c 0,2,3
 1216 912 1216 912 1116 912 c 0,4,5
 998 912 998 912 922 1000 c 0,6,7
 850 1080 850 1080 860 1166 c 1,8,9
 828 1122 828 1122 828 1052 c 0,10,11
 828 916 828 916 924 866 c 1,12,13
 1064 862 1064 862 1160 754 c 0,14,15
 1250 654 1250 654 1250 538 c 256,16,17
 1250 422 1250 422 1192 338 c 0,18,19
 1150 276 1150 276 1096 250 c 1,20,21
 1282 182 1282 182 1282 16 c 0,22,23
 1282 -104 1282 -104 1182 -168 c 0,24,25
 1100 -222 1100 -222 974 -222 c 2,26,-1
 668 -222 l 1,27,-1
 668 -82 l 1,28,-1
 914 -82 l 2,29,30
 966 -82 966 -82 999 -51 c 128,-1,31
 1032 -20 1032 -20 1032 24 c 0,32,33
 1032 70 1032 70 1004 107 c 128,-1,34
 976 144 976 144 938 144 c 2,35,-1
 828 144 l 2,36,37
 792 144 792 144 722 94 c 128,-1,38
 652 44 652 44 614 -16 c 0,39,40
 540 -136 540 -136 504 -170 c 0,41,42
 428 -246 428 -246 314 -246 c 0,43,44
 196 -246 196 -246 116 -170 c 128,-1,45
 36 -94 36 -94 36 14 c 0,46,47
 36 158 36 158 174 264 c 1,48,49
 132 278 132 278 88 336 c 0,50,51
 26 418 26 418 26 536 c 0,52,53
 26 680 26 680 138 780 c 0,54,55
 242 876 242 876 376 876 c 0,56,57
 476 876 476 876 562 824 c 0,58,59
 622 788 622 788 650 748 c 1,60,-1
 756 822 l 1,61,62
 740 856 740 856 724 888 c 0,63,64
 700 952 700 952 700 1044 c 0,65,66
 700 1202 700 1202 809 1317 c 128,-1,67
 918 1432 918 1432 1078 1432 c 0,68,69
 1194 1432 1194 1432 1274 1351 c 128,-1,70
 1354 1270 1354 1270 1354 1156 c 0,0,1
1128 1210 m 0,71,72
 1128 1232 1128 1232 1107 1252 c 128,-1,73
 1086 1272 1086 1272 1068 1272 c 0,74,75
 1040 1272 1040 1272 1015 1254 c 128,-1,76
 990 1236 990 1236 990 1214 c 0,77,78
 990 1144 990 1144 1068 1144 c 0,79,80
 1094 1144 1094 1144 1111 1164 c 128,-1,81
 1128 1184 1128 1184 1128 1210 c 0,71,72
542 518 m 1,82,-1
 542 566 l 1,83,84
 526 614 526 614 484 652 c 0,85,86
 432 698 432 698 368 698 c 0,87,88
 296 698 296 698 237 640 c 128,-1,89
 178 582 178 582 178 506 c 0,90,91
 178 492 178 492 180 480 c 1,92,93
 236 600 236 600 362 600 c 256,94,95
 488 600 488 600 542 518 c 1,82,-1
974 478 m 0,96,97
 974 542 974 542 931 598 c 128,-1,98
 888 654 888 654 834 654 c 0,99,100
 810 654 810 654 788 640 c 1,101,-1
 788 292 l 1,102,-1
 536 292 l 1,103,-1
 536 318 l 1,104,-1
 460 260 l 1,105,-1
 762 260 l 2,106,107
 974 260 974 260 974 478 c 0,96,97
378 412 m 0,108,109
 378 464 378 464 326 464 c 0,110,111
 272 464 272 464 272 408 c 0,112,113
 272 388 272 388 293 373 c 128,-1,114
 314 358 314 358 326 358 c 0,115,116
 378 358 378 358 378 412 c 0,108,109
536 130 m 1,117,-1
 336 130 l 2,118,119
 246 130 246 130 246 16 c 0,120,121
 246 -34 246 -34 274 -69 c 128,-1,122
 302 -104 302 -104 344 -104 c 0,123,124
 402 -104 402 -104 458 -2 c 0,125,126
 528 124 528 124 536 130 c 1,117,-1
EndSplineSet
Ligature2: "'abvs' Above Base Substitutions lookup 6 subtable" tm_ja tm_iikaar
EndChar

StartChar: tm_ny_iikaar
Encoding: 65565 -1 145
Width: 1725
GlyphClass: 2
Flags: W
LayerCount: 2
Fore
SplineSet
1538 1140 m 0,0,1
 1538 1040 1538 1040 1458 966 c 128,-1,2
 1378 892 1378 892 1286 892 c 0,3,4
 1190 892 1190 892 1113 963 c 128,-1,5
 1036 1034 1036 1034 1036 1124 c 0,6,7
 1036 1146 1036 1146 1042 1166 c 1,8,9
 1000 1124 1000 1124 1000 1024 c 0,10,11
 1000 796 1000 796 1254 768 c 1,12,-1
 1438 768 l 1,13,-1
 1438 612 l 1,14,-1
 1200 612 l 1,15,-1
 1200 516 l 1,16,17
 1228 528 1228 528 1270 528 c 0,18,19
 1404 528 1404 528 1520 434 c 0,20,21
 1658 322 1658 322 1658 132 c 0,22,23
 1658 -132 1658 -132 1360 -270 c 0,24,25
 1110 -386 1110 -386 736 -386 c 0,26,27
 270 -386 270 -386 -40 -82 c 1,28,-1
 42 46 l 1,29,30
 122 -42 122 -42 260 -116 c 0,31,32
 472 -230 472 -230 706 -230 c 0,33,34
 974 -230 974 -230 1174 -142 c 0,35,36
 1392 -46 1392 -46 1392 106 c 0,37,38
 1392 190 1392 190 1336 258 c 0,39,40
 1288 320 1288 320 1240 320 c 0,41,42
 1202 320 1202 320 1202 270 c 2,43,-1
 1202 0 l 1,44,-1
 974 0 l 1,45,-1
 974 616 l 1,46,-1
 556 616 l 2,47,48
 462 616 462 616 404 548 c 0,49,50
 352 490 352 490 352 418 c 0,51,52
 352 398 352 398 358 380 c 1,53,54
 376 438 376 438 440 481 c 128,-1,55
 504 524 504 524 578 524 c 0,56,57
 662 524 662 524 740 452 c 0,58,59
 828 374 828 374 828 266 c 0,60,61
 828 152 828 152 749 82 c 128,-1,62
 670 12 670 12 542 12 c 0,63,64
 392 12 392 12 286 130 c 128,-1,65
 180 248 180 248 180 404 c 0,66,67
 180 556 180 556 270 658 c 0,68,69
 366 768 366 768 520 768 c 2,70,-1
 956 768 l 1,71,72
 868 889 868 889 868 1028 c 0,73,74
 868 1146 868 1146 954 1260 c 0,75,76
 1066 1414 1066 1414 1266 1414 c 0,77,78
 1386 1414 1386 1414 1462 1336 c 128,-1,79
 1538 1258 1538 1258 1538 1140 c 0,0,1
614 258 m 0,80,81
 614 356 614 356 526 356 c 0,82,83
 482 356 482 356 452 325 c 128,-1,84
 422 294 422 294 422 252 c 0,85,86
 422 214 422 214 448 188 c 128,-1,87
 474 162 474 162 512 162 c 0,88,89
 614 162 614 162 614 258 c 0,80,81
1310 1188 m 0,90,91
 1310 1256 1310 1256 1242 1256 c 0,92,93
 1214 1256 1214 1256 1195 1236 c 128,-1,94
 1176 1216 1176 1216 1176 1188 c 256,95,96
 1176 1160 1176 1160 1198 1141 c 128,-1,97
 1220 1122 1220 1122 1242 1122 c 0,98,99
 1270 1122 1270 1122 1290 1141 c 128,-1,100
 1310 1160 1310 1160 1310 1188 c 0,90,91
EndSplineSet
Ligature2: "'abvs' Above Base Substitutions lookup 6 subtable" tm_nya tm_iikaar
EndChar

StartChar: tm_tt_iikaar
Encoding: 65566 -1 146
Width: 1100
GlyphClass: 2
Flags: W
LayerCount: 2
Fore
SplineSet
1086 550 m 0,0,1
 1086 426 1086 426 986 348 c 0,2,3
 906 284 906 284 832 284 c 0,4,5
 726 284 726 284 646 346 c 0,6,7
 542 424 542 424 550 568 c 0,8,9
 550 574 550 574 534 527 c 128,-1,10
 518 480 518 480 518 416 c 0,11,12
 518 130 518 130 912 130 c 0,13,14
 976 130 976 130 1032 138 c 1,15,-1
 1032 -4 l 1,16,-1
 70 -2 l 1,17,-1
 70 766 l 1,18,-1
 288 766 l 1,19,-1
 288 138 l 1,20,-1
 478 138 l 1,21,22
 372 254 372 254 372 416 c 0,23,24
 372 564 372 564 468 688 c 0,25,26
 590 846 590 846 802 846 c 0,27,28
 914 846 914 846 1000 762 c 128,-1,29
 1086 678 1086 678 1086 550 c 0,0,1
844 604 m 0,30,31
 844 632 844 632 824 653 c 128,-1,32
 804 674 804 674 780 674 c 0,33,34
 750 674 750 674 723 652 c 128,-1,35
 696 630 696 630 696 600 c 0,36,37
 696 572 696 572 722 552 c 128,-1,38
 748 532 748 532 780 532 c 0,39,40
 844 532 844 532 844 604 c 0,30,31
EndSplineSet
Ligature2: "'abvs' Above Base Substitutions lookup 5 subtable" tm_tta tm_iikaar
EndChar

StartChar: tm_nn_iikaar
Encoding: 65567 -1 147
Width: 2348
GlyphClass: 2
Flags: W
LayerCount: 2
Fore
SplineSet
2434 1164 m 0,0,1
 2434 1040 2434 1040 2336 958 c 0,2,3
 2252 888 2252 888 2164 888 c 0,4,5
 2048 888 2048 888 1972 965 c 128,-1,6
 1896 1042 1896 1042 1896 1144 c 0,7,8
 1896 1160 1896 1160 1898 1176 c 1,9,10
 1856 1122 1856 1122 1856 1022 c 0,11,12
 1856 764 1856 764 2186 764 c 0,13,14
 2262 764 2262 764 2332 778 c 1,15,-1
 2336 610 l 1,16,-1
 2096 608 l 1,17,-1
 2096 0 l 1,18,-1
 1880 0 l 1,19,-1
 1880 608 l 1,20,-1
 1742 608 l 1,21,22
 1826 494 1826 494 1826 378 c 0,23,24
 1826 226 1826 226 1720 111 c 128,-1,25
 1614 -4 1614 -4 1466 -4 c 0,26,27
 1280 -4 1280 -4 1172 124 c 1,28,29
 1144 86 1144 86 1078 48 c 0,30,31
 998 2 998 2 928 2 c 0,32,33
 736 2 736 2 646 120 c 1,34,35
 628 72 628 72 562 45 c 128,-1,36
 496 18 496 18 420 18 c 0,37,38
 256 18 256 18 148 110 c 0,39,40
 30 210 30 210 30 378 c 0,41,42
 30 536 30 536 140 651 c 128,-1,43
 250 766 250 766 408 766 c 2,44,-1
 1802 766 l 1,45,46
 1776 786 1776 786 1752 846 c 0,47,48
 1718 928 1718 928 1718 1028 c 0,49,50
 1718 1176 1718 1176 1818 1302 c 0,51,52
 1938 1452 1938 1452 2138 1452 c 0,53,54
 2276 1452 2276 1452 2362 1354 c 0,55,56
 2434 1270 2434 1270 2434 1164 c 0,0,1
2192 1210 m 0,57,58
 2192 1282 2192 1282 2116 1282 c 0,59,60
 2044 1282 2044 1282 2044 1210 c 0,61,62
 2044 1136 2044 1136 2116 1136 c 0,63,64
 2192 1136 2192 1136 2192 1210 c 0,57,58
652 604 m 1,65,-1
 414 604 l 2,66,67
 334 604 334 604 264 542 c 0,68,69
 188 478 188 478 188 392 c 0,70,71
 188 354 188 354 206 318 c 1,72,73
 226 394 226 394 285 439 c 128,-1,74
 344 484 344 484 424 484 c 0,75,76
 478 484 478 484 566 444 c 1,77,-1
 652 604 l 1,65,-1
1588 384 m 0,78,79
 1588 446 1588 446 1542 494 c 128,-1,80
 1496 542 1496 542 1442 542 c 0,81,82
 1370 542 1370 542 1327 493 c 128,-1,83
 1284 444 1284 444 1284 378 c 0,84,85
 1284 318 1284 318 1336 275 c 128,-1,86
 1388 232 1388 232 1442 232 c 0,87,88
 1504 232 1504 232 1546 273 c 128,-1,89
 1588 314 1588 314 1588 384 c 0,78,79
992 356 m 0,90,91
 992 420 992 420 950 467 c 128,-1,92
 908 514 908 514 846 514 c 0,93,94
 698 514 698 514 698 350 c 0,95,96
 698 212 698 212 844 212 c 0,97,98
 908 212 908 212 950 258 c 128,-1,99
 992 304 992 304 992 356 c 0,90,91
462 230 m 0,100,101
 462 256 462 256 436 276 c 128,-1,102
 410 296 410 296 384 296 c 0,103,104
 360 296 360 296 333 275 c 128,-1,105
 306 254 306 254 306 224 c 256,106,107
 306 194 306 194 327 173 c 128,-1,108
 348 152 348 152 378 152 c 0,109,110
 462 152 462 152 462 230 c 0,100,101
EndSplineSet
Ligature2: "'abvs' Above Base Substitutions lookup 6 subtable" tm_nna tm_iikaar
EndChar

StartChar: tm_t_iikaar
Encoding: 65568 -1 148
Width: 1088
GlyphClass: 2
Flags: W
LayerCount: 2
Fore
SplineSet
1058 220 m 0,0,1
 1058 2 1058 2 933 -85 c 128,-1,2
 808 -172 808 -172 514 -172 c 2,3,-1
 0 -172 l 1,4,-1
 0 -18 l 1,5,-1
 546 -18 l 2,6,7
 658 -18 658 -18 742 60 c 0,8,9
 820 134 820 134 820 220 c 0,10,11
 820 276 820 276 774 337 c 128,-1,12
 728 398 728 398 670 398 c 0,13,14
 652 398 652 398 634 390 c 1,15,-1
 634 224 l 2,16,17
 634 166 634 166 556 90 c 0,18,19
 458 -2 458 -2 324 -2 c 0,20,21
 184 -2 184 -2 102 88 c 0,22,23
 30 170 30 170 30 288 c 0,24,25
 30 376 30 376 72 440 c 0,26,27
 98 482 98 482 166 536 c 1,28,-1
 166 768 l 1,29,-1
 356 768 l 1,30,31
 330 812 330 812 302 856 c 1,32,33
 262 936 262 936 262 1056 c 0,34,35
 262 1212 262 1212 380 1338 c 0,36,37
 506 1472 506 1472 682 1472 c 0,38,39
 786 1472 786 1472 872 1412 c 0,40,41
 982 1332 982 1332 982 1182 c 0,42,43
 982 1074 982 1074 902 992 c 128,-1,44
 822 910 822 910 726 910 c 0,45,46
 626 910 626 910 548 968 c 0,47,48
 440 1046 440 1046 444 1200 c 0,49,50
 444 1202 444 1202 423 1154 c 128,-1,51
 402 1106 402 1106 402 1044 c 0,52,53
 402 882 402 882 540 812 c 0,54,55
 632 764 632 764 772 764 c 0,56,57
 812 764 812 764 844 768 c 1,58,-1
 844 638 l 1,59,-1
 638 638 l 1,60,-1
 638 548 l 1,61,-1
 710 548 l 2,62,63
 840 548 840 548 949 449 c 128,-1,64
 1058 350 1058 350 1058 220 c 0,0,1
740 1228 m 256,65,66
 740 1258 740 1258 719 1279 c 128,-1,67
 698 1300 698 1300 668 1300 c 0,68,69
 590 1300 590 1300 590 1228 c 0,70,71
 590 1198 590 1198 614 1177 c 128,-1,72
 638 1156 638 1156 668 1156 c 256,73,74
 698 1156 698 1156 719 1177 c 128,-1,75
 740 1198 740 1198 740 1228 c 256,65,66
414 560 m 1,76,-1
 414 644 l 1,77,-1
 314 644 l 1,78,-1
 314 560 l 1,79,-1
 414 560 l 1,76,-1
410 248 m 2,80,-1
 410 396 l 1,81,-1
 268 396 l 2,82,83
 242 396 242 396 216 370 c 0,84,85
 182 334 182 334 182 272 c 0,86,87
 182 222 182 222 216 190 c 128,-1,88
 250 158 250 158 296 158 c 0,89,90
 346 158 346 158 378 183 c 128,-1,91
 410 208 410 208 410 248 c 2,80,-1
EndSplineSet
Ligature2: "'abvs' Above Base Substitutions lookup 6 subtable" tm_ta tm_iikaar
EndChar

StartChar: tm_n_iikaar
Encoding: 65569 -1 149
Width: 1164
GlyphClass: 2
Flags: W
LayerCount: 2
Fore
SplineSet
1132 128 m 0,0,1
 1132 -260 1132 -260 618 -260 c 2,2,-1
 64 -260 l 1,3,-1
 64 -124 l 1,4,-1
 584 -124 l 2,5,6
 900 -124 900 -124 900 110 c 0,7,8
 900 206 900 206 842 268 c 128,-1,9
 784 330 784 330 702 330 c 0,10,11
 686 330 686 330 672 328 c 1,12,-1
 672 0 l 1,13,-1
 434 0 l 1,14,-1
 434 608 l 1,15,-1
 256 608 l 1,16,-1
 256 0 l 1,17,-1
 70 0 l 1,18,-1
 70 766 l 1,19,-1
 380 766 l 1,20,21
 280 850 280 850 280 1070 c 0,22,23
 280 1198 280 1198 380 1318 c 0,24,25
 502 1468 502 1468 702 1468 c 0,26,27
 802 1468 802 1468 884 1416 c 0,28,29
 1002 1338 1002 1338 1002 1172 c 0,30,31
 1002 1040 1002 1040 892 962 c 0,32,33
 810 902 810 902 732 902 c 0,34,35
 626 902 626 902 542 982 c 0,36,37
 450 1070 450 1070 458 1194 c 1,38,39
 422 1148 422 1148 422 1032 c 0,40,41
 422 748 422 748 888 758 c 1,42,-1
 888 604 l 1,43,-1
 668 604 l 1,44,-1
 668 500 l 1,45,-1
 762 500 l 2,46,47
 890 500 890 500 1002 404 c 0,48,49
 1132 294 1132 294 1132 128 c 0,0,1
760 1224 m 256,50,51
 760 1254 760 1254 736 1275 c 128,-1,52
 712 1296 712 1296 678 1296 c 0,53,54
 654 1296 654 1296 630 1274 c 128,-1,55
 606 1252 606 1252 606 1224 c 0,56,57
 606 1198 606 1198 630 1175 c 128,-1,58
 654 1152 654 1152 680 1152 c 0,59,60
 710 1152 710 1152 735 1173 c 128,-1,61
 760 1194 760 1194 760 1224 c 256,50,51
EndSplineSet
Ligature2: "'abvs' Above Base Substitutions lookup 6 subtable" tm_na tm_iikaar
EndChar

StartChar: tm_nnn_iikaar
Encoding: 65570 -1 150
Width: 1784
GlyphClass: 2
Flags: W
LayerCount: 2
Fore
SplineSet
1868 1174 m 0,0,1
 1868 1064 1868 1064 1788 987 c 128,-1,2
 1708 910 1708 910 1604 910 c 0,3,4
 1492 910 1492 910 1414 986 c 0,5,6
 1328 1068 1328 1068 1342 1186 c 1,7,8
 1300 1122 1300 1122 1300 1050 c 0,9,10
 1300 938 1300 938 1362 858 c 0,11,12
 1432 768 1432 768 1552 768 c 2,13,-1
 1768 768 l 1,14,-1
 1768 618 l 1,15,-1
 1528 618 l 1,16,-1
 1528 -6 l 1,17,-1
 1280 -6 l 1,18,-1
 1280 618 l 1,19,-1
 1116 618 l 1,20,21
 1216 514 1216 514 1216 382 c 0,22,23
 1216 212 1216 212 1088 110 c 0,24,25
 984 28 984 28 864 28 c 0,26,27
 796 28 796 28 722 60 c 128,-1,28
 648 92 648 92 618 134 c 1,29,30
 544 16 544 16 410 16 c 0,31,32
 242 16 242 16 135 120 c 128,-1,33
 28 224 28 224 28 376 c 0,34,35
 28 562 28 562 150 666 c 0,36,37
 266 768 266 768 464 768 c 2,38,-1
 1250 768 l 1,39,40
 1156 894 1156 894 1156 1052 c 0,41,42
 1156 1190 1156 1190 1252 1314 c 0,43,44
 1370 1468 1370 1468 1562 1468 c 0,45,46
 1710 1468 1710 1468 1792 1380 c 0,47,48
 1868 1298 1868 1298 1868 1174 c 0,0,1
1626 1224 m 0,49,50
 1626 1254 1626 1254 1605 1274 c 128,-1,51
 1584 1294 1584 1294 1556 1294 c 0,52,53
 1486 1294 1486 1294 1486 1224 c 0,54,55
 1486 1156 1486 1156 1556 1156 c 0,56,57
 1584 1156 1584 1156 1605 1176 c 128,-1,58
 1626 1196 1626 1196 1626 1224 c 0,49,50
634 628 m 1,59,60
 610 626 610 626 488 626 c 0,61,62
 352 626 352 626 267 548 c 128,-1,63
 182 470 182 470 182 362 c 0,64,65
 182 322 182 322 196 282 c 1,66,67
 210 366 210 366 274 421 c 128,-1,68
 338 476 338 476 416 476 c 256,69,70
 494 476 494 476 536 434 c 1,71,72
 534 474 534 474 578 544 c 0,73,74
 606 586 606 586 634 628 c 1,59,60
960 340 m 0,75,76
 960 396 960 396 926 440 c 128,-1,77
 892 484 892 484 840 484 c 0,78,79
 790 484 790 484 750 443 c 128,-1,80
 710 402 710 402 710 346 c 0,81,82
 710 292 710 292 748 257 c 128,-1,83
 786 222 786 222 840 222 c 0,84,85
 892 222 892 222 928 266 c 0,86,87
 960 302 960 302 960 340 c 0,75,76
468 212 m 0,88,89
 468 240 468 240 443 260 c 128,-1,90
 418 280 418 280 392 280 c 0,91,92
 316 280 316 280 316 218 c 0,93,94
 316 142 316 142 398 142 c 0,95,96
 428 142 428 142 448 165 c 128,-1,97
 468 188 468 188 468 212 c 0,88,89
EndSplineSet
Ligature2: "'abvs' Above Base Substitutions lookup 6 subtable" tm_nnna tm_iikaar
EndChar

StartChar: tm_p_iikaar
Encoding: 65571 -1 151
Width: 948
GlyphClass: 2
Flags: W
LayerCount: 2
Fore
SplineSet
992 1132 m 0,0,1
 992 1012 992 1012 892 928 c 0,2,3
 804 856 804 856 718 856 c 0,4,5
 610 856 610 856 524 936 c 0,6,7
 444 1010 444 1010 436 1098 c 1,8,9
 406 1038 406 1038 406 964 c 0,10,11
 406 828 406 828 504 732 c 0,12,13
 584 654 584 654 624 666 c 1,14,-1
 624 766 l 1,15,-1
 878 766 l 1,16,-1
 878 -4 l 1,17,-1
 68 -4 l 1,18,-1
 68 768 l 1,19,-1
 248 768 l 1,20,-1
 248 124 l 1,21,-1
 630 124 l 1,22,-1
 630 510 l 1,23,24
 510 524 510 524 406 616 c 0,25,26
 248 752 248 752 248 1004 c 0,27,28
 248 1162 248 1162 356 1290 c 0,29,30
 482 1436 482 1436 680 1436 c 0,31,32
 822 1436 822 1436 907 1349 c 128,-1,33
 992 1262 992 1262 992 1132 c 0,0,1
740 1184 m 0,34,35
 740 1258 740 1258 668 1258 c 0,36,37
 634 1258 634 1258 611 1238 c 128,-1,38
 588 1218 588 1218 588 1190 c 0,39,40
 588 1114 588 1114 666 1114 c 0,41,42
 740 1114 740 1114 740 1184 c 0,34,35
EndSplineSet
Ligature2: "'abvs' Above Base Substitutions lookup 6 subtable" tm_pa tm_iikaar
EndChar

StartChar: tm_m_iikaar
Encoding: 65572 -1 152
Width: 1192
GlyphClass: 2
Flags: W
LayerCount: 2
Fore
SplineSet
1236 1144 m 0,0,1
 1236 1008 1236 1008 1126 932 c 0,2,3
 1044 876 1044 876 966 876 c 0,4,5
 864 876 864 876 784 954 c 128,-1,6
 704 1032 704 1032 704 1126 c 0,7,8
 704 1140 704 1140 706 1154 c 1,9,10
 668 1128 668 1128 668 1014 c 0,11,12
 668 904 668 904 724 838 c 0,13,14
 766 790 766 790 844 762 c 0,15,16
 898 746 898 746 952 728 c 1,17,18
 1160 638 1160 638 1160 426 c 0,19,20
 1160 298 1160 298 1100 194 c 128,-1,21
 1040 90 1040 90 948 44 c 0,22,23
 880 10 880 10 750 2 c 0,24,25
 690 -2 690 -2 488 -2 c 2,26,-1
 68 -2 l 1,27,-1
 68 766 l 1,28,-1
 304 766 l 1,29,-1
 304 166 l 1,30,-1
 458 166 l 1,31,-1
 458 510 l 2,32,33
 458 646 458 646 628 730 c 1,34,35
 584 790 584 790 572 814 c 0,36,37
 528 898 528 898 528 1006 c 0,38,39
 528 1176 528 1176 640 1304 c 0,40,41
 760 1440 760 1440 942 1440 c 0,42,43
 1082 1440 1082 1440 1164 1344 c 0,44,45
 1236 1260 1236 1260 1236 1144 c 0,0,1
996 1194 m 0,46,47
 996 1222 996 1222 975 1244 c 128,-1,48
 954 1266 954 1266 924 1266 c 256,49,50
 894 1266 894 1266 873 1244 c 128,-1,51
 852 1222 852 1222 852 1194 c 0,52,53
 852 1124 852 1124 924 1124 c 256,54,55
 996 1124 996 1124 996 1194 c 0,46,47
988 346 m 0,56,57
 988 406 988 406 950 458 c 128,-1,58
 912 510 912 510 846 510 c 0,59,60
 742 510 742 510 712 450 c 1,61,-1
 712 172 l 1,62,-1
 842 172 l 2,63,64
 902 172 902 172 945 227 c 128,-1,65
 988 282 988 282 988 346 c 0,56,57
EndSplineSet
Ligature2: "'abvs' Above Base Substitutions lookup 6 subtable" tm_ma tm_iikaar
EndChar

StartChar: tm_y_iikaar
Encoding: 65573 -1 153
Width: 1340
GlyphClass: 2
Flags: W
LayerCount: 2
Fore
SplineSet
1376 1086 m 0,0,1
 1376 986 1376 986 1294 910 c 128,-1,2
 1212 834 1212 834 1102 834 c 0,3,4
 1032 834 1032 834 953 883 c 128,-1,5
 874 932 874 932 856 992 c 1,6,7
 852 968 852 968 852 946 c 0,8,9
 852 844 852 844 924 760 c 0,10,11
 978 696 978 696 1024 682 c 1,12,-1
 1024 766 l 1,13,-1
 1268 766 l 1,14,-1
 1268 -2 l 1,15,-1
 408 -2 l 1,16,-1
 408 180 l 1,17,-1
 242 48 l 1,18,-1
 242 0 l 1,19,-1
 70 0 l 1,20,-1
 70 766 l 1,21,-1
 242 766 l 1,22,-1
 242 226 l 1,23,-1
 408 356 l 1,24,-1
 408 768 l 1,25,-1
 640 768 l 1,26,-1
 640 130 l 1,27,-1
 1024 130 l 1,28,-1
 1024 504 l 1,29,30
 904 534 904 534 810 640 c 0,31,32
 690 772 690 772 690 962 c 0,33,34
 690 1148 690 1148 804 1271 c 128,-1,35
 918 1394 918 1394 1090 1394 c 0,36,37
 1228 1394 1228 1394 1306 1300 c 0,38,39
 1376 1216 1376 1216 1376 1086 c 0,0,1
1124 1140 m 0,40,41
 1124 1170 1124 1170 1104 1193 c 128,-1,42
 1084 1216 1084 1216 1054 1216 c 256,43,44
 1024 1216 1024 1216 999 1195 c 128,-1,45
 974 1174 974 1174 974 1146 c 0,46,47
 974 1116 974 1116 998 1094 c 128,-1,48
 1022 1072 1022 1072 1052 1072 c 0,49,50
 1124 1072 1124 1072 1124 1140 c 0,40,41
EndSplineSet
Ligature2: "'abvs' Above Base Substitutions lookup 6 subtable" tm_ya tm_iikaar
EndChar

StartChar: tm_r_iikaar
Encoding: 65574 -1 154
Width: 912
GlyphClass: 2
Flags: W
LayerCount: 2
Fore
SplineSet
1008 1162 m 0,0,1
 1008 1068 1008 1068 936 988 c 0,2,3
 858 898 858 898 744 898 c 0,4,5
 648 898 648 898 572 962 c 0,6,7
 478 1044 478 1044 478 1188 c 1,8,9
 466 1160 466 1160 454 1134 c 0,10,11
 438 1098 438 1098 438 1048 c 0,12,13
 438 803 438 803 696 768 c 1,14,-1
 884 768 l 2,15,16
 890 769 890 769 896 770 c 1,17,-1
 896 616 l 1,18,-1
 700 616 l 1,19,-1
 694 -264 l 1,20,-1
 -22 -264 l 1,21,-1
 -22 -132 l 1,22,-1
 468 -132 l 1,23,-1
 468 620 l 1,24,-1
 288 620 l 1,25,-1
 288 0 l 1,26,-1
 286 0 l 1,27,-1
 286 -4 l 1,28,-1
 72 -4 l 1,29,-1
 72 0 l 1,30,-1
 70 0 l 1,31,-1
 70 768 l 1,32,-1
 390 768 l 1,33,34
 358 816 358 816 328 864 c 1,35,36
 298 924 298 924 298 1008 c 0,37,38
 298 1190 298 1190 402 1318 c 0,39,40
 514 1454 514 1454 692 1454 c 0,41,42
 848 1454 848 1454 928 1374 c 128,-1,43
 1008 1294 1008 1294 1008 1162 c 0,0,1
772 1212 m 0,44,45
 772 1242 772 1242 752 1266 c 128,-1,46
 732 1290 732 1290 704 1290 c 0,47,48
 674 1290 674 1290 650 1268 c 128,-1,49
 626 1246 626 1246 626 1218 c 256,50,51
 626 1190 626 1190 649 1168 c 128,-1,52
 672 1146 672 1146 700 1146 c 0,53,54
 730 1146 730 1146 751 1165 c 128,-1,55
 772 1184 772 1184 772 1212 c 0,44,45
EndSplineSet
Ligature2: "'abvs' Above Base Substitutions lookup 5 subtable" tm_ra tm_iikaar
EndChar

StartChar: tm_rr_iikaar
Encoding: 65575 -1 155
Width: 1196
GlyphClass: 2
Flags: W
LayerCount: 2
Fore
SplineSet
1194 1108 m 0,0,1
 1194 998 1194 998 1113 919 c 128,-1,2
 1032 840 1032 840 944 840 c 0,3,4
 846 840 846 840 768 896 c 0,5,6
 664 970 664 970 666 1106 c 1,7,8
 634 1054 634 1054 634 966 c 0,9,10
 634 848 634 848 704 788 c 0,11,12
 734 758 734 758 858 702 c 0,13,14
 998 638 998 638 1066 560 c 0,15,16
 1164 446 1164 446 1164 266 c 0,17,18
 1164 38 1164 38 992 -112 c 0,19,20
 830 -250 830 -250 598 -254 c 2,21,-1
 6 -262 l 1,22,-1
 6 -128 l 1,23,-1
 658 -104 l 2,24,25
 754 -100 754 -100 842 4 c 0,26,27
 938 114 938 114 938 248 c 0,28,29
 938 386 938 386 836 492 c 0,30,31
 742 590 742 590 622 602 c 1,32,-1
 622 0 l 1,33,-1
 384 0 l 1,34,-1
 384 458 l 2,35,36
 384 624 384 624 290 624 c 0,37,38
 220 624 220 624 198 568 c 0,39,40
 190 542 190 542 190 474 c 2,41,-1
 190 -2 l 1,42,-1
 30 -2 l 1,43,-1
 30 410 l 2,44,45
 30 772 30 772 292 772 c 0,46,47
 452 772 452 772 516 696 c 1,48,-1
 590 696 l 1,49,50
 492 808 492 808 492 978 c 0,51,52
 492 1110 492 1110 586 1234 c 0,53,54
 704 1388 704 1388 906 1388 c 0,55,56
 1036 1388 1036 1388 1115 1307 c 128,-1,57
 1194 1226 1194 1226 1194 1108 c 0,0,1
956 1146 m 0,58,59
 956 1174 956 1174 936 1196 c 128,-1,60
 916 1218 916 1218 888 1218 c 256,61,62
 860 1218 860 1218 836 1199 c 128,-1,63
 812 1180 812 1180 812 1152 c 256,64,65
 812 1124 812 1124 833 1104 c 128,-1,66
 854 1084 854 1084 882 1084 c 0,67,68
 956 1084 956 1084 956 1146 c 0,58,59
EndSplineSet
Ligature2: "'abvs' Above Base Substitutions lookup 6 subtable" tm_rra tm_iikaar
EndChar

StartChar: tm_l_iikaar
Encoding: 65576 -1 156
Width: 1464
GlyphClass: 2
Flags: W
LayerCount: 2
Fore
SplineSet
1566 1094 m 0,0,1
 1566 990 1566 990 1500 914 c 0,2,3
 1424 822 1424 822 1290 822 c 0,4,5
 1216 822 1216 822 1156 860 c 0,6,7
 1064 920 1064 920 1044 1052 c 1,8,9
 1030 1038 1030 1038 1030 948 c 0,10,11
 1030 810 1030 810 1116 756 c 1,12,13
 1204 718 1204 718 1290 678 c 1,14,15
 1348 644 1348 644 1390 561 c 128,-1,16
 1432 478 1432 478 1432 396 c 0,17,18
 1432 228 1432 228 1336 124 c 0,19,20
 1218 -4 1218 -4 970 -4 c 0,21,22
 836 -4 836 -4 760 96 c 0,23,24
 696 180 696 180 696 296 c 0,25,26
 696 452 696 452 614 522 c 0,27,28
 556 572 556 572 472 572 c 0,29,30
 368 572 368 572 303 514 c 128,-1,31
 238 456 238 456 226 366 c 1,32,33
 288 438 288 438 396 438 c 0,34,35
 494 438 494 438 549 373 c 128,-1,36
 604 308 604 308 604 206 c 0,37,38
 604 110 604 110 527 55 c 128,-1,39
 450 0 450 0 306 0 c 0,40,41
 194 0 194 0 110 102 c 128,-1,42
 26 204 26 204 26 354 c 0,43,44
 26 508 26 508 168 638 c 0,45,46
 318 776 318 776 524 776 c 0,47,48
 712 776 712 776 848 644 c 0,49,50
 976 520 976 520 976 370 c 0,51,52
 976 148 976 148 1108 148 c 0,53,54
 1182 148 1182 148 1232 228 c 0,55,56
 1276 296 1276 296 1276 364 c 0,57,58
 1276 496 1276 496 1176 566 c 1,59,60
 1084 622 1084 622 990 680 c 1,61,62
 890 766 890 766 890 938 c 0,63,64
 890 1094 890 1094 988 1216 c 0,65,66
 1102 1358 1102 1358 1290 1358 c 0,67,68
 1408 1358 1408 1358 1492 1264 c 0,69,70
 1566 1182 1566 1182 1566 1094 c 0,0,1
1320 1116 m 0,71,72
 1320 1150 1320 1150 1299 1170 c 128,-1,73
 1278 1190 1278 1190 1256 1190 c 0,74,75
 1224 1190 1224 1190 1199 1169 c 128,-1,76
 1174 1148 1174 1148 1174 1118 c 0,77,78
 1174 1092 1174 1092 1195 1072 c 128,-1,79
 1216 1052 1216 1052 1244 1052 c 0,80,81
 1320 1052 1320 1052 1320 1116 c 0,71,72
404 176 m 0,82,83
 404 244 404 244 334 244 c 0,84,85
 306 244 306 244 286 222 c 128,-1,86
 266 200 266 200 266 170 c 0,87,88
 266 106 266 106 334 106 c 0,89,90
 364 106 364 106 384 127 c 128,-1,91
 404 148 404 148 404 176 c 0,82,83
EndSplineSet
Ligature2: "'abvs' Above Base Substitutions lookup 5 subtable" tm_la tm_iikaar
EndChar

StartChar: tm_ll_iikaar
Encoding: 65577 -1 157
Width: 1668
GlyphClass: 2
Flags: W
LayerCount: 2
Fore
SplineSet
1726 1190 m 0,0,1
 1726 1080 1726 1080 1642 1001 c 128,-1,2
 1558 922 1558 922 1466 922 c 0,3,4
 1346 922 1346 922 1264 1002 c 0,5,6
 1192 1074 1192 1074 1192 1158 c 0,7,8
 1192 1180 1192 1180 1198 1200 c 1,9,10
 1182 1184 1182 1184 1168 1144 c 0,11,12
 1150 1098 1150 1098 1150 1064 c 0,13,14
 1150 934 1150 934 1242 848 c 0,15,16
 1326 768 1326 768 1436 768 c 2,17,-1
 1654 768 l 1,18,-1
 1654 622 l 1,19,-1
 1382 622 l 1,20,-1
 1382 0 l 1,21,-1
 1128 0 l 1,22,-1
 1128 618 l 1,23,-1
 958 618 l 1,24,-1
 958 0 l 1,25,-1
 704 0 l 1,26,-1
 704 444 l 2,27,28
 704 534 704 534 616 594 c 0,29,30
 544 644 544 644 468 644 c 0,31,32
 340 644 340 644 262 538 c 0,33,34
 200 454 200 454 200 368 c 0,35,36
 200 334 200 334 212 326 c 1,37,38
 232 380 232 380 280 422 c 0,39,40
 342 476 342 476 426 476 c 0,41,42
 520 476 520 476 585 409 c 128,-1,43
 650 342 650 342 650 246 c 0,44,45
 650 2 650 2 376 2 c 0,46,47
 256 2 256 2 152 106 c 0,48,49
 30 224 30 224 30 402 c 0,50,51
 30 574 30 574 166 676 c 0,52,53
 288 768 288 768 454 768 c 0,54,55
 564 768 564 768 694 730 c 1,56,57
 760 706 760 706 826 682 c 1,58,-1
 826 768 l 1,59,-1
 1104 768 l 1,60,61
 1080 810 1080 810 1058 850 c 0,62,63
 1014 936 1014 936 1014 1046 c 0,64,65
 1014 1228 1014 1228 1138 1353 c 128,-1,66
 1262 1478 1262 1478 1440 1478 c 0,67,68
 1576 1478 1576 1478 1654 1392 c 0,69,70
 1726 1312 1726 1312 1726 1190 c 0,0,1
1482 1242 m 0,71,72
 1482 1306 1482 1306 1412 1306 c 0,73,74
 1382 1306 1382 1306 1361 1284 c 128,-1,75
 1340 1262 1340 1262 1340 1232 c 0,76,77
 1340 1166 1340 1166 1410 1166 c 0,78,79
 1482 1166 1482 1166 1482 1242 c 0,71,72
454 208 m 0,80,81
 454 240 454 240 432 262 c 128,-1,82
 410 284 410 284 378 284 c 0,83,84
 306 284 306 284 306 208 c 0,85,86
 306 180 306 180 325 156 c 128,-1,87
 344 132 344 132 368 132 c 0,88,89
 404 132 404 132 429 153 c 128,-1,90
 454 174 454 174 454 208 c 0,80,81
EndSplineSet
Ligature2: "'abvs' Above Base Substitutions lookup 6 subtable" tm_lla tm_iikaar
EndChar

StartChar: tm_lll_iikaar
Encoding: 65578 -1 158
Width: 1188
GlyphClass: 2
Flags: W
LayerCount: 2
Fore
SplineSet
1246 1148 m 0,0,1
 1246 1026 1246 1026 1152 946 c 0,2,3
 1070 876 1070 876 972 876 c 0,4,5
 876 876 876 876 796 950 c 0,6,7
 704 1036 704 1036 716 1162 c 1,8,9
 680 1102 680 1102 680 1010 c 0,10,11
 680 884 680 884 758 816 c 0,12,13
 786 794 786 794 926 726 c 0,14,15
 1156 614 1156 614 1156 396 c 0,16,17
 1156 188 1156 188 1020 86 c 0,18,19
 904 -2 904 -2 720 2 c 1,20,21
 724 -38 724 -38 786 -88 c 0,22,23
 826 -118 826 -118 868 -148 c 1,24,-1
 784 -324 l 2,25,26
 782 -326 782 -326 776 -326 c 0,27,28
 748 -326 748 -326 694 -306 c 0,29,30
 632 -282 632 -282 614 -256 c 1,31,32
 440 -406 440 -406 232 -406 c 0,33,34
 152 -406 152 -406 82 -378 c 1,35,-1
 82 -236 l 1,36,37
 170 -278 170 -278 264 -278 c 0,38,39
 354 -278 354 -278 428 -242 c 0,40,41
 496 -208 496 -208 522 -160 c 1,42,43
 500 -146 500 -146 476 -82 c 0,44,45
 456 -28 456 -28 456 -2 c 1,46,-1
 70 -2 l 1,47,-1
 70 768 l 1,48,-1
 304 768 l 1,49,-1
 304 168 l 1,50,-1
 456 168 l 1,51,-1
 456 510 l 2,52,53
 456 650 456 650 634 738 c 1,54,55
 540 834 540 834 540 1010 c 0,56,57
 540 1162 540 1162 642 1288 c 0,58,59
 760 1432 760 1432 954 1432 c 0,60,61
 1076 1432 1076 1432 1161 1353 c 128,-1,62
 1246 1274 1246 1274 1246 1148 c 0,0,1
1002 1192 m 0,63,64
 1002 1222 1002 1222 981 1244 c 128,-1,65
 960 1266 960 1266 932 1266 c 0,66,67
 908 1266 908 1266 884 1246 c 128,-1,68
 860 1226 860 1226 860 1200 c 0,69,70
 860 1124 860 1124 930 1124 c 0,71,72
 1002 1124 1002 1124 1002 1192 c 0,63,64
978 354 m 0,73,74
 978 422 978 422 936 466 c 128,-1,75
 894 510 894 510 836 510 c 256,76,77
 778 510 778 510 743 482 c 128,-1,78
 708 454 708 454 708 412 c 2,79,-1
 708 168 l 1,80,-1
 832 168 l 2,81,82
 898 168 898 168 940 228 c 0,83,84
 978 282 978 282 978 354 c 0,73,74
EndSplineSet
Ligature2: "'abvs' Above Base Substitutions lookup 6 subtable" tm_llla tm_iikaar
EndChar

StartChar: tm_v_iikaar
Encoding: 65579 -1 159
Width: 1464
GlyphClass: 2
Flags: W
LayerCount: 2
Fore
SplineSet
1474 1054 m 0,0,1
 1474 954 1474 954 1402 873 c 128,-1,2
 1330 792 1330 792 1244 792 c 0,3,4
 1148 792 1148 792 1072 841 c 128,-1,5
 996 890 996 890 986 962 c 1,6,7
 970 914 970 914 970 870 c 0,8,9
 970 712 970 712 1132 632 c 1,10,-1
 1132 766 l 1,11,-1
 1394 766 l 1,12,-1
 1394 -4 l 1,13,-1
 620 -4 l 1,14,-1
 620 118 l 1,15,16
 664 152 664 152 698 210 c 0,17,18
 738 280 738 280 738 348 c 0,19,20
 738 444 738 444 674 524 c 0,21,22
 596 624 596 624 460 624 c 0,23,24
 332 624 332 624 254 541 c 128,-1,25
 176 458 176 458 176 342 c 0,26,27
 176 312 176 312 182 282 c 1,28,29
 188 350 188 350 248 408 c 0,30,31
 316 474 316 474 412 474 c 256,32,33
 508 474 508 474 572 402 c 0,34,35
 628 340 628 340 628 272 c 0,36,37
 628 180 628 180 564 104 c 0,38,39
 494 20 494 20 394 20 c 0,40,41
 248 20 248 20 138 125 c 128,-1,42
 28 230 28 230 28 394 c 0,43,44
 28 550 28 550 140 656 c 0,45,46
 260 774 260 774 460 774 c 0,47,48
 692 774 692 774 836 660 c 0,49,50
 966 554 966 554 966 406 c 0,51,52
 966 226 966 226 848 134 c 1,53,-1
 1138 134 l 1,54,-1
 1138 474 l 1,55,56
 1048 484 1048 484 952 576 c 0,57,58
 822 704 822 704 822 904 c 0,59,60
 822 1094 822 1094 946 1210 c 0,61,62
 1056 1312 1056 1312 1210 1312 c 0,63,64
 1324 1312 1324 1312 1402 1224 c 0,65,66
 1474 1144 1474 1144 1474 1054 c 0,0,1
1242 1082 m 0,67,68
 1242 1110 1242 1110 1222 1129 c 128,-1,69
 1202 1148 1202 1148 1178 1148 c 0,70,71
 1102 1148 1102 1148 1102 1078 c 0,72,73
 1102 1018 1102 1018 1178 1018 c 0,74,75
 1206 1018 1206 1018 1224 1038 c 128,-1,76
 1242 1058 1242 1058 1242 1082 c 0,67,68
402 194 m 0,77,78
 402 252 402 252 358 252 c 0,79,80
 292 252 292 252 292 196 c 256,81,82
 292 140 292 140 356 140 c 0,83,84
 402 140 402 140 402 194 c 0,77,78
EndSplineSet
Ligature2: "'abvs' Above Base Substitutions lookup 6 subtable" tm_va tm_iikaar
EndChar

StartChar: tm_ss_iikaar
Encoding: 65580 -1 160
Width: 1804
GlyphClass: 2
Flags: W
LayerCount: 2
Fore
SplineSet
1870 1056 m 0,0,1
 1870 958 1870 958 1785 880 c 128,-1,2
 1700 802 1700 802 1600 802 c 0,3,4
 1494 802 1494 802 1414 874 c 0,5,6
 1324 958 1324 958 1334 1090 c 1,7,8
 1292 1032 1292 1032 1292 938 c 0,9,10
 1292 860 1292 860 1328 794 c 0,11,12
 1372 718 1372 718 1440 718 c 0,13,14
 1532 718 1532 718 1598 646 c 128,-1,15
 1664 574 1664 574 1664 478 c 0,16,17
 1664 398 1664 398 1596 282 c 0,18,19
 1556 214 1556 214 1516 146 c 1,20,-1
 1788 146 l 1,21,-1
 1788 -4 l 1,22,-1
 1440 -4 l 1,23,-1
 1334 -220 l 1,24,-1
 1174 -220 l 1,25,-1
 1280 -2 l 1,26,-1
 670 -2 l 1,27,-1
 670 126 l 1,28,29
 742 186 742 186 742 348 c 0,30,31
 742 484 742 484 656 568 c 0,32,33
 580 642 580 642 472 642 c 0,34,35
 372 642 372 642 284 576 c 0,36,37
 184 498 184 498 174 374 c 1,38,39
 240 494 240 494 376 494 c 0,40,41
 478 494 478 494 562 427 c 128,-1,42
 646 360 646 360 646 268 c 0,43,44
 646 148 646 148 571 78 c 128,-1,45
 496 8 496 8 368 8 c 0,46,47
 230 8 230 8 134 102 c 0,48,49
 28 204 28 204 28 374 c 0,50,51
 28 560 28 560 170 668 c 0,52,53
 298 764 298 764 492 764 c 0,54,55
 688 764 688 764 840 662 c 0,56,57
 1000 552 1000 552 1000 388 c 0,58,59
 1000 300 1000 300 964 224 c 0,60,61
 942 186 942 186 918 146 c 1,62,-1
 1352 146 l 1,63,64
 1362 164 1362 164 1380 204 c 1,65,66
 1264 206 1264 206 1190 288 c 0,67,68
 1120 364 1120 364 1120 466 c 0,69,70
 1120 542 1120 542 1174 614 c 0,71,72
 1212 666 1212 666 1238 676 c 0,73,74
 1238 678 1238 678 1218 706 c 0,75,76
 1192 742 1192 742 1176 782 c 0,77,78
 1154 844 1154 844 1154 920 c 0,79,80
 1154 1106 1154 1106 1270 1232 c 128,-1,81
 1386 1358 1386 1358 1582 1358 c 0,82,83
 1728 1358 1728 1358 1808 1254 c 0,84,85
 1870 1170 1870 1170 1870 1056 c 0,0,1
1628 1120 m 0,86,87
 1628 1148 1628 1148 1607 1169 c 128,-1,88
 1586 1190 1586 1190 1558 1190 c 0,89,90
 1528 1190 1528 1190 1502 1171 c 128,-1,91
 1476 1152 1476 1152 1476 1124 c 0,92,93
 1476 1092 1476 1092 1501 1071 c 128,-1,94
 1526 1050 1526 1050 1558 1054 c 0,95,96
 1586 1054 1586 1054 1607 1074 c 128,-1,97
 1628 1094 1628 1094 1628 1120 c 0,86,87
1522 436 m 0,98,99
 1522 466 1522 466 1500 488 c 128,-1,100
 1478 510 1478 510 1456 510 c 0,101,102
 1380 510 1380 510 1380 436 c 0,103,104
 1380 408 1380 408 1403 386 c 128,-1,105
 1426 364 1426 364 1456 364 c 0,106,107
 1478 364 1478 364 1500 387 c 128,-1,108
 1522 410 1522 410 1522 436 c 0,98,99
416 232 m 0,109,110
 416 300 416 300 352 300 c 0,111,112
 270 300 270 300 270 226 c 0,113,114
 270 198 270 198 294 177 c 128,-1,115
 318 156 318 156 346 156 c 0,116,117
 416 156 416 156 416 232 c 0,109,110
EndSplineSet
Ligature2: "'abvs' Above Base Substitutions lookup 6 subtable" tm_ssa tm_iikaar
EndChar

StartChar: tm_s_iikaar
Encoding: 65581 -1 161
Width: 1860
GlyphClass: 2
Flags: W
LayerCount: 2
Fore
SplineSet
1878 1126 m 0,0,1
 1878 1028 1878 1028 1814 946 c 0,2,3
 1740 850 1740 850 1618 850 c 0,4,5
 1514 850 1514 850 1443 913 c 128,-1,6
 1372 976 1372 976 1362 1072 c 1,7,8
 1346 1040 1346 1040 1346 996 c 0,9,10
 1346 932 1346 932 1376 862 c 0,11,12
 1404 800 1404 800 1428 782 c 1,13,14
 1440 784 1440 784 1456 784 c 0,15,16
 1574 784 1574 784 1686 696 c 0,17,18
 1828 584 1828 584 1828 396 c 0,19,20
 1828 220 1828 220 1706 106 c 0,21,22
 1592 0 1592 0 1434 0 c 0,23,24
 1296 0 1296 0 1185 94 c 128,-1,25
 1074 188 1074 188 1074 320 c 0,26,27
 1074 388 1074 388 1060 462 c 0,28,29
 1038 592 1038 592 986 592 c 0,30,31
 930 592 930 592 930 550 c 2,32,-1
 930 -4 l 1,33,-1
 680 -4 l 1,34,-1
 680 348 l 2,35,36
 680 448 680 448 608 522 c 128,-1,37
 536 596 536 596 426 596 c 0,38,39
 326 596 326 596 254 512 c 128,-1,40
 182 428 182 428 182 322 c 0,41,42
 182 294 182 294 188 268 c 1,43,44
 198 350 198 350 258 413 c 128,-1,45
 318 476 318 476 402 476 c 0,46,47
 496 476 496 476 559 411 c 128,-1,48
 622 346 622 346 622 244 c 0,49,50
 622 154 622 154 548 87 c 128,-1,51
 474 20 474 20 378 20 c 0,52,53
 250 20 250 20 148 106 c 0,54,55
 32 206 32 206 32 370 c 0,56,57
 32 568 32 568 176 680 c 0,58,59
 298 774 298 774 466 774 c 0,60,61
 576 774 576 774 674 730 c 0,62,63
 748 696 748 696 768 668 c 1,64,65
 802 696 802 696 836 724 c 1,66,67
 910 774 910 774 1010 774 c 0,68,69
 1134 774 1134 774 1220 694 c 0,70,71
 1328 594 1328 594 1328 401 c 128,-1,72
 1328 208 1328 208 1490 208 c 0,73,74
 1548 208 1548 208 1598 250 c 0,75,76
 1670 308 1670 308 1670 430 c 0,77,78
 1670 554 1670 554 1546 616 c 1,79,80
 1436 662 1436 662 1324 708 c 1,81,82
 1272 736 1272 736 1240 822 c 0,83,84
 1212 898 1212 898 1212 978 c 0,85,86
 1212 1148 1212 1148 1320 1273 c 128,-1,87
 1428 1398 1428 1398 1596 1398 c 0,88,89
 1712 1398 1712 1398 1798 1312 c 0,90,91
 1878 1228 1878 1228 1878 1126 c 0,0,1
1632 1152 m 0,92,93
 1632 1178 1632 1178 1610 1198 c 128,-1,94
 1588 1218 1588 1218 1560 1218 c 0,95,96
 1486 1218 1486 1218 1486 1148 c 0,97,98
 1486 1082 1486 1082 1560 1082 c 0,99,100
 1586 1082 1586 1082 1609 1103 c 128,-1,101
 1632 1124 1632 1124 1632 1152 c 0,92,93
432 222 m 0,102,103
 432 248 432 248 412 267 c 128,-1,104
 392 286 392 286 364 286 c 256,105,106
 336 286 336 286 316 266 c 128,-1,107
 296 246 296 246 296 222 c 0,108,109
 296 150 296 150 364 150 c 0,110,111
 390 150 390 150 411 172 c 128,-1,112
 432 194 432 194 432 222 c 0,102,103
EndSplineSet
Ligature2: "'abvs' Above Base Substitutions lookup 5 subtable" tm_sa tm_iikaar
EndChar

StartChar: tm_h_iikaar
Encoding: 65582 -1 162
Width: 2056
GlyphClass: 2
Flags: W
LayerCount: 2
Fore
SplineSet
2056 1086 m 0,0,1
 2056 994 2056 994 1981 913 c 128,-1,2
 1906 832 1906 832 1816 832 c 0,3,4
 1720 832 1720 832 1644 892 c 0,5,6
 1556 960 1556 960 1556 1066 c 0,7,8
 1556 1094 1556 1094 1562 1122 c 1,9,10
 1508 1062 1508 1062 1508 958 c 0,11,12
 1508 816 1508 816 1626 752 c 1,13,14
 1714 720 1714 720 1800 688 c 1,15,16
 1896 636 1896 636 1960 538 c 0,17,18
 2030 428 2030 428 2030 296 c 0,19,20
 2030 62 2030 62 1864 -60 c 0,21,22
 1718 -166 1718 -166 1492 -166 c 2,23,-1
 162 -166 l 1,24,-1
 162 -38 l 1,25,-1
 1466 -34 l 2,26,27
 1604 -34 1604 -34 1699 57 c 128,-1,28
 1794 148 1794 148 1794 296 c 0,29,30
 1794 410 1794 410 1718 498 c 0,31,32
 1650 576 1650 576 1584 576 c 0,33,34
 1546 576 1546 576 1536 542 c 1,35,-1
 1536 0 l 1,36,-1
 1272 0 l 1,37,-1
 1272 550 l 2,38,39
 1272 630 1272 630 1216 630 c 0,40,41
 1152 630 1152 630 1152 548 c 2,42,-1
 1152 0 l 1,43,-1
 612 0 l 1,44,-1
 612 142 l 1,45,46
 686 190 686 190 686 322 c 0,47,48
 686 410 686 410 632 496 c 0,49,50
 566 598 566 598 464 598 c 0,51,52
 244 598 244 598 180 356 c 1,53,54
 232 412 232 412 264 432 c 0,55,56
 314 464 314 464 380 464 c 0,57,58
 488 464 488 464 554 399 c 128,-1,59
 620 334 620 334 620 246 c 0,60,61
 620 2 620 2 354 2 c 0,62,63
 240 2 240 2 140 104 c 0,64,65
 30 216 30 216 30 370 c 0,66,67
 30 550 30 550 178 664 c 0,68,69
 310 768 310 768 486 768 c 0,70,71
 670 768 670 768 800 664 c 0,72,73
 940 552 940 552 940 376 c 0,74,75
 940 258 940 258 860 148 c 1,76,-1
 1006 148 l 1,77,-1
 1006 522 l 2,78,79
 1006 616 1006 616 1048 684 c 0,80,81
 1102 766 1102 766 1204 766 c 0,82,83
 1290 766 1290 766 1336 724 c 1,84,85
 1360 694 1360 694 1386 664 c 1,86,87
 1404 706 1404 706 1464 722 c 1,88,89
 1378 802 1378 802 1378 950 c 0,90,91
 1378 1112 1378 1112 1482 1230 c 0,92,93
 1596 1358 1596 1358 1778 1358 c 0,94,95
 1914 1358 1914 1358 1992 1264 c 0,96,97
 2056 1186 2056 1186 2056 1086 c 0,0,1
1828 1130 m 0,98,99
 1828 1156 1828 1156 1811 1177 c 128,-1,100
 1794 1198 1794 1198 1770 1198 c 0,101,102
 1736 1198 1736 1198 1713 1179 c 128,-1,103
 1690 1160 1690 1160 1690 1136 c 0,104,105
 1690 1108 1690 1108 1711 1088 c 128,-1,106
 1732 1068 1732 1068 1760 1068 c 0,107,108
 1828 1068 1828 1068 1828 1130 c 0,98,99
420 210 m 0,109,110
 420 232 420 232 400 249 c 128,-1,111
 380 266 380 266 358 266 c 0,112,113
 340 266 340 266 316 246 c 128,-1,114
 292 226 292 226 292 204 c 0,115,116
 292 146 292 146 358 146 c 0,117,118
 420 146 420 146 420 210 c 0,109,110
EndSplineSet
Ligature2: "'abvs' Above Base Substitutions lookup 6 subtable" tm_ha tm_iikaar
EndChar

StartChar: tm_k_ukaar
Encoding: 65583 -1 163
Width: 1440
GlyphClass: 2
Flags: W
LayerCount: 2
Fore
SplineSet
1408 136 m 0,0,1
 1408 -62 1408 -62 1224 -198 c 128,-1,2
 1040 -334 1040 -334 782 -334 c 0,3,4
 474 -334 474 -334 266 -194 c 0,5,6
 24 -32 24 -32 24 268 c 0,7,8
 24 512 24 512 234 684 c 1,9,-1
 312 576 l 1,10,11
 160 414 160 414 160 240 c 0,12,13
 160 48 160 48 300 -68 c 0,14,15
 448 -192 448 -192 708 -192 c 0,16,17
 874 -192 874 -192 1022 -95 c 128,-1,18
 1170 2 1170 2 1170 116 c 0,19,20
 1170 228 1170 228 1100 308 c 128,-1,21
 1030 388 1030 388 950 388 c 0,22,23
 936 388 936 388 924 386 c 1,24,25
 940 194 940 194 830 90 c 0,26,27
 738 0 738 0 586 0 c 0,28,29
 440 0 440 0 362 88 c 0,30,31
 292 164 292 164 292 278 c 0,32,33
 292 400 292 400 436 516 c 1,34,-1
 436 768 l 1,35,-1
 1142 768 l 1,36,-1
 1142 612 l 1,37,-1
 930 612 l 1,38,-1
 930 530 l 1,39,40
 956 526 956 526 1024 536 c 1,41,42
 1214 548 1214 548 1324 390 c 0,43,44
 1408 268 1408 268 1408 136 c 0,0,1
682 538 m 1,45,-1
 682 620 l 1,46,-1
 584 620 l 1,47,-1
 584 538 l 1,48,-1
 682 538 l 1,45,-1
664 252 m 2,49,-1
 664 394 l 1,50,-1
 546 394 l 2,51,52
 506 394 506 394 477 356 c 128,-1,53
 448 318 448 318 448 270 c 0,54,55
 448 164 448 164 558 164 c 0,56,57
 664 164 664 164 664 252 c 2,49,-1
EndSplineSet
Ligature2: "'psts' Post Base Substitutions lookup 7 subtable" tm_ka tm_ukaar
EndChar

StartChar: tm_ng_ukaar
Encoding: 65584 -1 164
Width: 1577
GlyphClass: 2
Flags: W
LayerCount: 2
Fore
SplineSet
1534 -140 m 1,0,-1
 1298 -140 l 1,1,-1
 1298 0 l 1,2,-1
 782 0 l 1,3,-1
 782 154 l 1,4,5
 830 146 830 146 869 177 c 128,-1,6
 908 208 908 208 908 254 c 0,7,8
 908 348 908 348 808 348 c 0,9,10
 764 348 764 348 736 319 c 128,-1,11
 708 290 708 290 708 254 c 2,12,-1
 708 0 l 1,13,-1
 474 0 l 1,14,-1
 474 622 l 1,15,-1
 288 622 l 1,16,-1
 288 0 l 1,17,-1
 70 0 l 1,18,-1
 70 768 l 1,19,-1
 902 768 l 1,20,-1
 902 620 l 1,21,-1
 708 620 l 1,22,-1
 708 498 l 1,23,24
 732 514 732 514 758 528 c 0,25,26
 804 550 804 550 890 550 c 0,27,28
 992 550 992 550 1056 481 c 128,-1,29
 1120 412 1120 412 1120 314 c 0,30,31
 1120 230 1120 230 1098 192 c 1,32,33
 1076 170 1076 170 1056 146 c 1,34,-1
 1288 146 l 1,35,-1
 1288 766 l 1,36,-1
 1290 766 l 1,37,-1
 1290 768 l 1,38,-1
 1520 768 l 1,39,-1
 1520 766 l 1,40,-1
 1534 766 l 1,41,-1
 1534 -140 l 1,0,-1
EndSplineSet
Ligature2: "'psts' Post Base Substitutions lookup 7 subtable" tm_nga tm_ukaar
EndChar

StartChar: tm_c_ukaar
Encoding: 65585 -1 165
Width: 1256
GlyphClass: 2
Flags: W
LayerCount: 2
Fore
SplineSet
1244 372 m 1,0,-1
 996 372 l 1,1,-1
 996 2 l 1,2,-1
 790 2 l 1,3,-1
 790 372 l 1,4,-1
 684 372 l 1,5,-1
 684 218 l 2,6,7
 684 134 684 134 602 52 c 0,8,9
 504 -42 504 -42 364 -42 c 0,10,11
 230 -42 230 -42 136 28 c 0,12,13
 32 106 32 106 32 232 c 0,14,15
 32 392 32 392 180 502 c 1,16,-1
 180 766 l 1,17,-1
 920 766 l 1,18,-1
 920 610 l 1,19,-1
 700 610 l 1,20,-1
 700 516 l 1,21,-1
 1244 516 l 1,22,-1
 1244 372 l 1,0,-1
434 526 m 1,23,-1
 434 620 l 1,24,-1
 334 620 l 1,25,-1
 334 526 l 1,26,-1
 434 526 l 1,23,-1
424 236 m 2,27,-1
 424 378 l 1,28,-1
 298 378 l 2,29,30
 256 378 256 378 223 335 c 128,-1,31
 190 292 190 292 190 248 c 0,32,33
 190 198 190 198 232 165 c 128,-1,34
 274 132 274 132 320 132 c 0,35,36
 356 132 356 132 390 162 c 128,-1,37
 424 192 424 192 424 236 c 2,27,-1
EndSplineSet
Ligature2: "'psts' Post Base Substitutions lookup 7 subtable" tm_ca tm_ukaar
EndChar

StartChar: glyph167
Encoding: 65586 -1 166
Width: 1012
GlyphClass: 2
Flags: W
LayerCount: 2
Fore
SplineSet
68 876 m 1,0,-1
 943 876 l 1,1,-1
 943 0 l 1,2,-1
 68 0 l 1,3,-1
 68 876 l 1,0,-1
873 70 m 1,4,-1
 873 804 l 1,5,-1
 138 804 l 1,6,-1
 138 70 l 1,7,-1
 873 70 l 1,4,-1
EndSplineSet
EndChar

StartChar: tm_ny_ukaar
Encoding: 65587 -1 167
Width: 1857
GlyphClass: 2
Flags: W
LayerCount: 2
Fore
SplineSet
1309 128 m 256,0,1
 1288 194 1288 194 1236 258 c 0,2,3
 1188 320 1188 320 1140 320 c 0,4,5
 1102 320 1102 320 1102 270 c 2,6,-1
 1102 0 l 1,7,-1
 874 0 l 1,8,-1
 874 616 l 1,9,-1
 456 616 l 2,10,11
 362 616 362 616 304 548 c 0,12,13
 252 490 252 490 252 418 c 0,14,15
 252 398 252 398 258 380 c 1,16,17
 276 438 276 438 340 481 c 128,-1,18
 404 524 404 524 478 524 c 0,19,20
 562 524 562 524 640 452 c 0,21,22
 728 374 728 374 728 266 c 0,23,24
 728 152 728 152 649 82 c 128,-1,25
 570 12 570 12 442 12 c 0,26,27
 292 12 292 12 186 130 c 128,-1,28
 80 248 80 248 80 404 c 0,29,30
 80 556 80 556 170 658 c 0,31,32
 266 768 266 768 420 768 c 2,33,-1
 1338 768 l 1,34,-1
 1338 612 l 1,35,-1
 1100 612 l 1,36,-1
 1100 516 l 1,37,38
 1128 528 1128 528 1170 528 c 0,39,40
 1304 528 1304 528 1420 434 c 0,41,42
 1558 322 1558 322 1558 132 c 2,43,-1
 1558 128 l 2,44,45
 1560 95 1560 95 1560 59 c 0,46,47
 1560 -35 1560 -35 1532 -95 c 1,48,-1
 1578 -95 l 1,49,-1
 1578 697 l 1,50,-1
 1800 697 l 1,51,-1
 1800 -235 l 1,52,-1
 1472 -235 l 1,53,54
 1292 -489 1292 -489 900 -489 c 0,55,56
 754 -489 754 -489 626 -415 c 0,57,58
 492 -335 492 -335 492 -231 c 0,59,60
 492 -107 492 -107 762 -107 c 2,61,-1
 1304 -107 l 1,62,63
 1330 -49 1330 -49 1330 3 c 0,64,65
 1330 62 1330 62 1309 128 c 256,0,1
514 258 m 0,66,67
 514 356 514 356 426 356 c 0,68,69
 382 356 382 356 352 325 c 128,-1,70
 322 294 322 294 322 252 c 0,71,72
 322 214 322 214 348 188 c 128,-1,73
 374 162 374 162 412 162 c 0,74,75
 514 162 514 162 514 258 c 0,66,67
1140 -251 m 1,76,-1
 674 -251 l 1,77,78
 766 -311 766 -311 876 -311 c 0,79,80
 1026 -311 1026 -311 1074 -289 c 1,81,82
 1108 -269 1108 -269 1140 -251 c 1,76,-1
EndSplineSet
Ligature2: "'psts' Post Base Substitutions lookup 7 subtable" tm_nya tm_ukaar
EndChar

StartChar: tm_tt_ukaar
Encoding: 65588 -1 168
Width: 1190
GlyphClass: 2
Flags: W
LayerCount: 2
Fore
SplineSet
1160 154 m 0,0,1
 1160 -32 1160 -32 974 -164 c 0,2,3
 808 -282 808 -282 628 -282 c 0,4,5
 404 -282 404 -282 222 -104 c 0,6,7
 30 84 30 84 30 348 c 0,8,9
 30 618 30 618 210 788 c 128,-1,10
 390 958 390 958 656 958 c 0,11,12
 762 958 762 958 894 910 c 1,13,-1
 894 792 l 1,14,15
 780 844 780 844 668 844 c 0,16,17
 460 844 460 844 314 682 c 0,18,19
 178 530 178 530 178 336 c 0,20,21
 178 136 178 136 320 -6 c 0,22,23
 448 -136 448 -136 594 -136 c 0,24,25
 708 -136 708 -136 792 -48 c 128,-1,26
 876 40 876 40 876 146 c 0,27,28
 876 232 876 232 834 300 c 0,29,30
 800 358 800 358 756 372 c 1,31,-1
 756 -2 l 1,32,-1
 520 -2 l 1,33,-1
 520 768 l 1,34,-1
 750 768 l 1,35,-1
 750 544 l 1,36,37
 922 552 922 552 1041 437 c 128,-1,38
 1160 322 1160 322 1160 154 c 0,0,1
EndSplineSet
Ligature2: "'psts' Post Base Substitutions lookup 7 subtable" tm_tta tm_ukaar
EndChar

StartChar: tm_nn_ukaar
Encoding: 65589 -1 169
Width: 2608
GlyphClass: 2
Flags: W
LayerCount: 2
Fore
SplineSet
2538 -174 m 1,0,-1
 2088 -180 l 1,1,2
 1778 -478 1778 -478 1296 -478 c 0,3,4
 1048 -478 1048 -478 834 -398 c 0,5,6
 594 -306 594 -306 594 -170 c 0,7,8
 594 -40 594 -40 708 -40 c 2,9,-1
 1846 -38 l 1,10,11
 2018 70 2018 70 2018 272 c 0,12,13
 2018 404 2018 404 1940 504 c 0,14,15
 1856 610 1856 610 1742 598 c 1,16,17
 1818 498 1818 498 1818 346 c 0,18,19
 1818 228 1818 228 1714 122 c 0,20,21
 1606 10 1606 10 1462 2 c 0,22,23
 1286 -8 1286 -8 1174 132 c 1,24,25
 1138 92 1138 92 1066 52 c 0,26,27
 976 2 976 2 900 2 c 0,28,29
 766 2 766 2 648 132 c 1,30,31
 636 90 636 90 562 44 c 128,-1,32
 488 -2 488 -2 418 -2 c 0,33,34
 268 -2 268 -2 154 110 c 0,35,36
 32 226 32 226 32 396 c 0,37,38
 32 554 32 554 145 662 c 128,-1,39
 258 770 258 770 404 770 c 2,40,-1
 1598 770 l 2,41,42
 1922 770 1922 770 2088 636 c 128,-1,43
 2254 502 2254 502 2254 252 c 0,44,45
 2254 92 2254 92 2184 -38 c 1,46,-1
 2314 -38 l 1,47,-1
 2318 768 l 1,48,-1
 2536 768 l 1,49,-1
 2538 -174 l 1,0,-1
640 612 m 1,50,-1
 412 612 l 2,51,52
 304 612 304 612 242 536 c 0,53,54
 188 472 188 472 188 394 c 0,55,56
 188 356 188 356 204 334 c 1,57,58
 266 488 266 488 430 494 c 0,59,60
 464 496 464 496 504 478 c 0,61,62
 560 454 560 454 566 452 c 1,63,-1
 640 612 l 1,50,-1
1582 390 m 0,64,65
 1582 440 1582 440 1542 490 c 0,66,67
 1494 550 1494 550 1426 550 c 0,68,69
 1374 550 1374 550 1330 512 c 128,-1,70
 1286 474 1286 474 1286 414 c 0,71,72
 1286 334 1286 334 1328 288 c 128,-1,73
 1370 242 1370 242 1434 244 c 0,74,75
 1492 246 1492 246 1537 290 c 128,-1,76
 1582 334 1582 334 1582 390 c 0,64,65
984 374 m 256,77,78
 984 436 984 436 940 482 c 128,-1,79
 896 528 896 528 836 528 c 0,80,81
 772 528 772 528 733 481 c 128,-1,82
 694 434 694 434 694 368 c 0,83,84
 694 220 694 220 844 220 c 0,85,86
 904 220 904 220 944 266 c 128,-1,87
 984 312 984 312 984 374 c 256,77,78
468 238 m 0,88,89
 468 266 468 266 444 285 c 128,-1,90
 420 304 420 304 388 304 c 0,91,92
 366 304 366 304 338 282 c 128,-1,93
 310 260 310 260 310 232 c 0,94,95
 310 202 310 202 332 181 c 128,-1,96
 354 160 354 160 382 160 c 0,97,98
 468 160 468 160 468 238 c 0,88,89
1812 -188 m 1,99,-1
 770 -188 l 1,100,101
 814 -238 814 -238 974 -292 c 0,102,103
 1154 -350 1154 -350 1304 -346 c 0,104,105
 1486 -340 1486 -340 1650 -270 c 1,106,107
 1732 -228 1732 -228 1812 -188 c 1,99,-1
EndSplineSet
Ligature2: "'psts' Post Base Substitutions lookup 7 subtable" tm_nna tm_ukaar
EndChar

StartChar: tm_t_ukaar
Encoding: 65590 -1 170
Width: 1372
GlyphClass: 2
Flags: W
LayerCount: 2
Fore
SplineSet
1302 -134 m 1,0,-1
 974 -134 l 1,1,2
 912 -228 912 -228 796 -294 c 0,3,4
 664 -368 664 -368 522 -368 c 0,5,6
 374 -368 374 -368 246 -288 c 0,7,8
 112 -202 112 -202 112 -94 c 0,9,10
 112 -64 112 -64 142 -28 c 128,-1,11
 172 8 172 8 206 8 c 0,12,13
 216 8 216 8 224 4 c 1,14,15
 142 32 142 32 88 100 c 0,16,17
 26 178 26 178 26 280 c 0,18,19
 26 358 26 358 76 434 c 0,20,21
 116 498 116 498 174 534 c 1,22,-1
 174 768 l 1,23,-1
 844 768 l 1,24,-1
 844 642 l 1,25,-1
 664 644 l 1,26,-1
 664 574 l 1,27,28
 686 578 686 578 708 578 c 0,29,30
 842 578 842 578 957 446 c 128,-1,31
 1072 314 1072 314 1072 152 c 0,32,33
 1072 50 1072 50 1042 4 c 1,34,35
 1048 0 1048 0 1086 4 c 1,36,-1
 1086 766 l 1,37,-1
 1302 766 l 1,38,-1
 1302 -134 l 1,0,-1
418 566 m 1,39,-1
 418 644 l 1,40,-1
 332 644 l 1,41,-1
 332 566 l 1,42,-1
 418 566 l 1,39,-1
402 246 m 2,43,-1
 402 380 l 1,44,-1
 278 380 l 2,45,46
 170 380 170 380 170 276 c 0,47,48
 170 226 170 226 207 189 c 128,-1,49
 244 152 244 152 296 152 c 0,50,51
 334 152 334 152 364 176 c 0,52,53
 402 202 402 202 402 246 c 2,43,-1
836 114 m 0,54,55
 836 224 836 224 764 304 c 0,56,57
 702 372 702 372 648 370 c 1,58,-1
 648 242 l 2,59,60
 648 172 648 172 596 110 c 0,61,62
 560 68 560 68 500 30 c 0,63,64
 450 0 450 0 450 0 c 1,65,-1
 810 0 l 1,66,67
 836 22 836 22 836 114 c 0,54,55
656 -134 m 1,68,-1
 308 -134 l 1,69,70
 318 -146 318 -146 383 -172 c 128,-1,71
 448 -198 448 -198 490 -198 c 256,72,73
 532 -198 532 -198 594 -172 c 0,74,75
 648 -148 648 -148 656 -134 c 1,68,-1
EndSplineSet
Ligature2: "'psts' Post Base Substitutions lookup 7 subtable" tm_ta tm_ukaar
EndChar

StartChar: tm_n_ukaar
Encoding: 65591 -1 171
Width: 1444
GlyphClass: 2
Flags: W
LayerCount: 2
Fore
SplineSet
1374 -164 m 1,0,-1
 1046 -164 l 1,1,2
 866 -418 866 -418 574 -418 c 0,3,4
 428 -418 428 -418 300 -344 c 0,5,6
 166 -264 166 -264 166 -160 c 0,7,8
 166 -36 166 -36 436 -36 c 2,9,-1
 878 -36 l 1,10,11
 904 22 904 22 904 74 c 0,12,13
 904 168 904 168 841 252 c 128,-1,14
 778 336 778 336 706 336 c 0,15,16
 682 336 682 336 662 326 c 1,17,-1
 662 0 l 1,18,-1
 426 0 l 1,19,-1
 426 614 l 1,20,-1
 252 614 l 1,21,-1
 252 0 l 1,22,-1
 70 0 l 1,23,-1
 70 768 l 1,24,-1
 874 768 l 1,25,-1
 874 614 l 1,26,-1
 656 614 l 1,27,-1
 656 528 l 1,28,29
 684 530 684 530 714 530 c 0,30,31
 898 530 898 530 1014 428 c 0,32,33
 1134 320 1134 320 1134 130 c 0,34,35
 1134 36 1134 36 1106 -24 c 1,36,-1
 1152 -24 l 1,37,-1
 1152 768 l 1,38,-1
 1374 768 l 1,39,-1
 1374 -164 l 1,0,-1
714 -180 m 1,40,-1
 348 -180 l 1,41,42
 440 -240 440 -240 550 -240 c 0,43,44
 600 -240 600 -240 648 -218 c 1,45,46
 682 -198 682 -198 714 -180 c 1,40,-1
EndSplineSet
Ligature2: "'psts' Post Base Substitutions lookup 7 subtable" tm_na tm_ukaar
EndChar

StartChar: tm_nnn_ukaar
Encoding: 65592 -1 172
Width: 2092
GlyphClass: 2
Flags: W
LayerCount: 2
Fore
SplineSet
2022 -236 m 1,0,-1
 1566 -236 l 1,1,2
 1368 -560 1368 -560 970 -560 c 0,3,4
 792 -560 792 -560 636 -470 c 0,5,6
 456 -368 456 -368 456 -218 c 0,7,8
 456 -92 456 -92 664 -92 c 2,9,-1
 1288 -92 l 1,10,11
 1356 84 1356 84 1356 156 c 0,12,13
 1356 318 1356 318 1284 454 c 128,-1,14
 1212 590 1212 590 1132 600 c 1,15,16
 1218 484 1218 484 1218 370 c 0,17,18
 1218 212 1218 212 1118 113 c 128,-1,19
 1018 14 1018 14 872 14 c 0,20,21
 722 14 722 14 622 116 c 1,22,23
 544 -4 544 -4 416 -4 c 0,24,25
 246 -4 246 -4 136 103 c 128,-1,26
 26 210 26 210 26 364 c 0,27,28
 26 564 26 564 170 676 c 0,29,30
 288 766 288 766 440 766 c 2,31,-1
 1170 766 l 2,32,33
 1460 766 1460 766 1590 524 c 0,34,35
 1680 356 1680 356 1680 120 c 0,36,37
 1680 12 1680 12 1634 -94 c 1,38,-1
 1798 -94 l 1,39,-1
 1798 770 l 1,40,-1
 2022 770 l 1,41,-1
 2022 -236 l 1,0,-1
644 612 m 1,42,43
 644 612 644 612 496 612 c 0,44,45
 360 612 360 612 272 536 c 128,-1,46
 184 460 184 460 184 354 c 0,47,48
 184 314 184 314 198 274 c 1,49,50
 212 360 212 360 271 411 c 128,-1,51
 330 462 330 462 422 462 c 0,52,53
 496 462 496 462 546 428 c 1,54,55
 542 484 542 484 588 548 c 1,56,57
 616 580 616 580 644 612 c 1,42,43
964 328 m 0,58,59
 964 384 964 384 928 429 c 128,-1,60
 892 474 892 474 840 474 c 0,61,62
 802 474 802 474 760 436 c 0,63,64
 710 392 710 392 710 340 c 0,65,66
 710 286 710 286 746 250 c 128,-1,67
 782 214 782 214 836 214 c 0,68,69
 886 214 886 214 925 247 c 128,-1,70
 964 280 964 280 964 328 c 0,58,59
470 198 m 0,71,72
 470 220 470 220 445 246 c 128,-1,73
 420 272 420 272 396 272 c 0,74,75
 316 272 316 272 316 202 c 0,76,77
 316 172 316 172 341 149 c 128,-1,78
 366 126 366 126 396 126 c 256,79,80
 426 126 426 126 448 147 c 128,-1,81
 470 168 470 168 470 198 c 0,71,72
1232 -246 m 1,82,-1
 638 -246 l 1,83,84
 658 -280 658 -280 750 -322 c 0,85,86
 852 -366 852 -366 940 -366 c 0,87,88
 1024 -366 1024 -366 1118 -324 c 0,89,90
 1202 -286 1202 -286 1232 -246 c 1,82,-1
EndSplineSet
Ligature2: "'psts' Post Base Substitutions lookup 7 subtable" tm_nnna tm_ukaar
EndChar

StartChar: tm_p_ukaar
Encoding: 65593 -1 173
Width: 924
GlyphClass: 2
Flags: W
LayerCount: 2
Fore
SplineSet
854 -140 m 1,0,-1
 618 -140 l 1,1,-1
 618 0 l 1,2,-1
 70 0 l 1,3,-1
 70 768 l 1,4,-1
 250 768 l 1,5,-1
 250 140 l 1,6,-1
 608 140 l 1,7,-1
 608 766 l 1,8,-1
 854 766 l 1,9,-1
 854 -140 l 1,0,-1
EndSplineSet
Ligature2: "'psts' Post Base Substitutions lookup 7 subtable" tm_pa tm_ukaar
EndChar

